SplineFontDB: 3.2
FontName: OCR-C
FullName: OCR-C
FamilyName: OCR-C
Weight: Medium
Copyright: Created by Sauter,U-TOWN_HALL\\Sauter,S-1-5-21-2526881554-1349 with FontForge 1.0 (http://fontforge.sf.net) Edited by jumper-cable-morty
Version: 001.000
ItalicAngle: 0
UnderlinePosition: -150
UnderlineWidth: 50
Ascent: 800
Descent: 200
InvalidEm: 0
sfntRevision: 0x00010000
LayerCount: 2
Layer: 0 0 "Back" 1
Layer: 1 0 "Fore" 0
XUID: [1021 165 1804090495 21867]
UniqueID: 4003151
StyleMap: 0x0040
FSType: 0
OS2Version: 3
OS2_WeightWidthSlopeOnly: 0
OS2_UseTypoMetrics: 0
CreationTime: 1224636879
ModificationTime: 1602038672
PfmFamily: 17
TTFWeight: 500
TTFWidth: 5
LineGap: 90
VLineGap: 0
Panose: 2 0 6 9 0 0 0 0 0 0
OS2TypoAscent: 800
OS2TypoAOffset: 0
OS2TypoDescent: -200
OS2TypoDOffset: 0
OS2TypoLinegap: 90
OS2WinAscent: 1048
OS2WinAOffset: 0
OS2WinDescent: 201
OS2WinDOffset: 0
HheadAscent: 1048
HheadAOffset: 0
HheadDescent: -201
HheadDOffset: 0
OS2SubXSize: 650
OS2SubYSize: 700
OS2SubXOff: 0
OS2SubYOff: 140
OS2SupXSize: 650
OS2SupYSize: 700
OS2SupXOff: 0
OS2SupYOff: 480
OS2StrikeYSize: 49
OS2StrikeYPos: 258
OS2CapHeight: 740
OS2XHeight: 538
OS2Vendor: 'PfEd'
OS2CodePages: 00000001.00000000
OS2UnicodeRanges: 00000003.00000200.00000000.00000000
Lookup: 1 0 0 "Single Subsitution Lookup 1" { "Single Subsitution Lookup 1-1"  } []
Lookup: 6 0 0 "'calt' Contextual Alternates in Latin lookup 1" { "'calt' Contextual Alternates in Latin lookup 1-1"  } ['calt' ('DFLT' <'dflt' > 'latn' <'dflt' > ) ]
MarkAttachClasses: 1
DEI: 91125
ChainSub2: class "'calt' Contextual Alternates in Latin lookup 1-1" 2 2 1 1
  Class: 5 equal
  BClass: 5 equal
 1 1 0
  ClsList: 1
  BClsList: 1
  FClsList:
 1
  SeqLookup: 0 "Single Subsitution Lookup 1"
  ClassNames: "All_Others" "equal(+AD0A)"
  BClassNames: "All_Others" "continue"
  FClassNames: "All_Others"
EndFPST
LangName: 1033
Encoding: UnicodeBmp
UnicodeInterp: none
NameList: AGL For New Fonts
DisplaySize: -48
AntiAlias: 1
FitToEm: 0
WinInfo: 0 38 14

StartChar: equal_equal.liga
Encoding: 65536 -1 0
Width: 715
GlyphClass: 3
Flags: W
HStem: 242 95<-66.7058 781.579> 443 95<-65.5471 781.579>
LayerCount: 2
Fore
SplineSet
553.12109375 337 m 6
 762.12109375 337 750.12109375 338 759.12109375 334 c 4
 770.12109375 330 780.12109375 321 785.12109375 310 c 4
 798.12109375 281 780.12109375 247 749.12109375 242 c 5
 551.12109375 242 l 5
 159.12109375 242 l 5
 -34.87890625 242 l 5
 -38.87890625 243 l 6
 -52.87890625 248 -64.87890625 257 -69.87890625 270 c 4
 -75.87890625 282 -75.87890625 297 -69.87890625 309 c 4
 -63.87890625 324 -49.87890625 334 -33.87890625 337 c 6
 161.12109375 337 l 6
 553.12109375 337 l 6
159.12109375 443 m 5
 -34.87890625 443 l 5
 -38.87890625 444 l 6
 -52.87890625 449 -64.87890625 458 -69.87890625 471 c 4
 -76.87890625 486 -75.87890625 504 -65.87890625 517 c 4
 -58.87890625 528 -46.87890625 536 -33.87890625 538 c 6
 161.12109375 538 l 6
 553.12109375 538 l 6
 762.12109375 539 750.12109375 539 759.12109375 535 c 4
 770.12109375 531 780.12109375 522 785.12109375 511 c 4
 798.12109375 482 780.12109375 448 749.12109375 443 c 5
 551.12109375 443 l 5
 159.12109375 443 l 5
EndSplineSet
Validated: 524321
LCarets2: 1 0
EndChar

StartChar: periodcentered
Encoding: 183 183 1
Width: 715
GlyphClass: 2
Flags: W
HStem: 0 237<247.755 448.373>
VStem: 239.875 236<8.03003 228.97>
LayerCount: 2
Fore
SplineSet
277.875 236 m 0
 280.875 236 296.875 237 358.875 237 c 0
 445.875 236 437.875 237 448.875 232 c 0
 458.875 227 465.875 220 470.875 210 c 0
 475.875 199 475.875 207 475.875 118 c 0
 475.875 30 475.875 37 470.875 27 c 0
 465.875 17 458.875 10 448.875 5 c 0
 437.875 0 445.875 0 359.875 0 c 0
 278.875 0 279.875 0 270.875 3 c 0
 263.875 5 259.875 8 253.875 14 c 0
 245.875 22 241.875 29 239.875 40 c 0
 238.875 46 238.875 191 239.875 197 c 0
 241.875 208 245.875 214 253.875 222 c 0
 260.875 230 267.875 234 277.875 236 c 0
EndSplineSet
Validated: 524321
EndChar

StartChar: cedilla
Encoding: 184 184 2
Width: 715
GlyphClass: 2
Flags: W
HStem: 0 21G<415.469 446.969> 0 21G<415.469 446.969> 201 136<223.827 356.969>
VStem: 356.969 142<7.50558 200.161>
LayerCount: 2
Fore
SplineSet
254.96875 336 m 0xb0
 257.96875 337 277.96875 337 358.96875 337 c 0
 472.96875 337 461.96875 337 472.96875 332 c 0
 481.96875 327 488.96875 320 493.96875 311 c 0
 499.96875 300 498.96875 314 498.96875 169 c 0
 498.96875 24 499.96875 38 493.96875 27 c 0
 488.96875 17 481.96875 10 472.96875 5 c 0
 462.96875 0 462.96875 0 430.96875 0 c 0
 399.96875 0 396.96875 0 387.96875 3 c 0
 380.96875 5 376.96875 8 370.96875 14 c 0
 364.96875 21 361.96875 25 359.96875 31 c 0
 355.96875 40 356.96875 38 356.96875 123 c 2
 356.96875 201 l 1
 307.96875 201 l 2
 255.96875 201 254.96875 201 246.96875 204 c 0
 239.96875 207 235.96875 210 229.96875 216 c 0
 223.96875 222 220.96875 226 218.96875 232 c 0
 215.96875 240 215.96875 244 215.96875 269 c 0
 215.96875 295 215.96875 298 218.96875 306 c 0
 220.96875 313 223.96875 317 229.96875 323 c 0
 237.96875 331 244.96875 334 254.96875 336 c 0xb0
EndSplineSet
Validated: 524321
EndChar

StartChar: questiondown
Encoding: 191 191 3
Width: 715
GlyphClass: 2
Flags: W
HStem: 639 93<411.411 492.281>
VStem: 121.5 96<125.229 180> 404.5 95<466 563.773 644.634 725.218>
LayerCount: 2
Fore
SplineSet
499.5 685 m 4
 499.5 654 472.751953125 630.686523438 439.5 639 c 4
 417.049804688 644.282226562 400.159179688 664.955078125 405.5 697 c 4
 411.627929688 719.061523438 430.90625 738.518554688 463.5 732 c 4
 483.703125 725.265625 499.5 709.900390625 499.5 685 c 4
293.5 4 m 4
 279.010742188 -8.0751953125 255.162109375 -10.7744140625 237.5 1 c 4
 233.5 4 143.5 80 136.5 87 c 4
 128.62109375 94.87890625 125.548828125 103.877929688 121.5 114 c 5
 121.5 146 121.5 178 121.5 210 c 5
 124.58203125 217.706054688 126.689453125 226.189453125 132.5 232 c 4
 134.5 234 182.5 276 269.5 351 c 6
 404.5 466 l 5
 404.5 497 l 6
 404.5 530 404.5 533 407.5 541 c 4
 412.561523438 556.185546875 427.989257812 567.998046875 444.5 571 c 4
 469.5 576 494.5 558 499.5 533 c 4
 500.5 526 500.5 442 499.5 435 c 4
 497.5 425 493.5 418 485.5 410 c 4
 482.5 407 421.5 354 348.5 293 c 5
 217.5 180 l 5
 217.5 168 217.5 156 217.5 144 c 5
 228.276367188 133.776367188 240.04296875 124.54296875 251.5 115 c 6
 263.5 104 l 5
 390.5 212 l 6
 460.5 272 518.5 322 520.5 323 c 4
 555.205078125 345.310546875 593.5 314.590820312 593.5 283 c 4
 593.5 269 588.5 258 578.5 248 c 4
 575.5 245 301.5 10 293.5 4 c 4
EndSplineSet
Validated: 524321
EndChar

StartChar: acute
Encoding: 180 180 4
Width: 715
GlyphClass: 2
Flags: W
HStem: 720 20G<333.481 383.481>
VStem: 312.481 90<418.217 464.96>
LayerCount: 2
Fore
SplineSet
358.481445312 740 m 0
 408.481445312 740 462.481445312 740 452.481445312 692 c 4
 402.481445312 428 l 1
 391.481445312 395 326.852539062 394.466796875 312.481445312 428 c 1
 262.481445312 692 l 1
 252.481445312 740 308.481445312 740 358.481445312 740 c 0
EndSplineSet
Validated: 524321
EndChar

StartChar: uni00AD
Encoding: 173 173 5
Width: 715
GlyphClass: 2
Flags: W
HStem: 323 95<129.49 585.573>
LayerCount: 2
Fore
SplineSet
162.114257812 417 m 0
 163.114257812 418 251.114257812 418 357.114257812 418 c 0
 566.114257812 418 554.114257812 418 563.114257812 415 c 0
 574.114257812 411 584.114257812 401 589.114257812 390 c 0
 602.114257812 362 584.114257812 328 553.114257812 323 c 0
 550.114257812 322 500.114257812 322 355.114257812 322 c 2
 161.114257812 323 l 1
 157.114257812 324 l 2
 143.114257812 328 131.114257812 338 126.114257812 350 c 0
 120.114257812 363 120.114257812 378 126.114257812 390 c 0
 132.114257812 404 146.114257812 415 162.114257812 417 c 0
EndSplineSet
Validated: 524321
EndChar

StartChar: uni2440
Encoding: 9280 9280 6
Width: 715
GlyphClass: 2
Flags: W
HStem: 0 96<216.556 309.556> 644 96<405.556 497.556>
VStem: 121.556 95<96 329.142> 309.556 96<96 644> 497.556 96<410.433 644>
LayerCount: 2
Fore
SplineSet
309.555664062 418 m 1
 309.555664062 740 l 1
 451.555664062 740 l 1
 593.555664062 740 l 1
 593.555664062 593 l 2
 593.555664062 435 593.555664062 443 590.555664062 434 c 0
 588.555664062 428 585.555664062 423 580.555664062 418 c 0
 572.555664062 409 562.555664062 404 550.555664062 403 c 0
 544.555664062 402 537.555664062 403 529.555664062 405 c 0
 522.555664062 408 518.555664062 410 512.555664062 417 c 0
 505.555664062 423 503.555664062 427 500.555664062 434 c 0
 497.555664062 443 497.555664062 439 497.555664062 545 c 2
 497.555664062 644 l 1
 451.555664062 644 l 1
 405.555664062 644 l 1
 405.555664062 356 l 1
 405.555664062 34 l 1
 404.555664062 0 l 1
 262.555664062 0 l 1
 121.555664062 0 l 1
 121.555664062 147 l 2
 121.555664062 305 120.555664062 297 124.555664062 306 c 0
 126.555664062 313 129.555664062 317 135.555664062 323 c 0
 142.555664062 329 145.555664062 332 153.555664062 334 c 0
 160.555664062 337 167.555664062 338 174.555664062 337 c 0
 185.555664062 335 195.555664062 330 203.555664062 322 c 0
 208.555664062 316 211.555664062 312 213.555664062 306 c 0
 217.555664062 297 216.555664062 301 216.555664062 195 c 2
 216.555664062 96 l 1
 263.555664062 96 l 1
 309.555664062 96 l 1
 309.555664062 418 l 1
EndSplineSet
Validated: 524321
EndChar

StartChar: uni2442
Encoding: 9282 9282 7
Width: 715
GlyphClass: 2
Flags: W
HStem: 322 96<216.556 309.556 404.556 497.556>
VStem: 121.556 95<418 731.913> 309.556 95<7.50558 322> 497.556 96<418 708.544>
LayerCount: 2
Fore
SplineSet
160.555664062 739 m 0
 165.555664062 740 176.555664062 740 181.555664062 738 c 0
 183.555664062 738 187.555664062 736 190.555664062 735 c 0
 199.555664062 730 207.555664062 723 211.555664062 713 c 0
 217.555664062 702 216.555664062 718 216.555664062 559 c 2
 216.555664062 418 l 1
 357.555664062 418 l 1
 497.555664062 418 l 1
 497.555664062 557 l 2
 497.555664062 707 497.555664062 699 500.555664062 709 c 0
 503.555664062 715 505.555664062 719 512.555664062 725 c 0
 518.555664062 732 522.555664062 734 529.555664062 737 c 0
 542.555664062 741 554.555664062 741 566.555664062 735 c 0
 572.555664062 732 578.555664062 727 582.555664062 722 c 0
 585.555664062 718 590.555664062 710 592.555664062 704 c 0
 593.555664062 700 593.555664062 691 593.555664062 511 c 2
 593.555664062 322 l 1
 499.555664062 322 l 1
 404.555664062 322 l 1
 404.555664062 181 l 2
 404.555664062 22 405.555664062 38 399.555664062 27 c 0
 394.555664062 17 387.555664062 10 378.555664062 5 c 0
 365.555664062 -1 353.555664062 -2 340.555664062 3 c 0
 333.555664062 5 329.555664062 8 323.555664062 14 c 0
 317.555664062 21 314.555664062 25 312.555664062 31 c 0
 308.555664062 40 309.555664062 33 309.555664062 183 c 2
 309.555664062 322 l 1
 215.555664062 322 l 1
 121.555664062 322 l 1
 121.555664062 509 l 2
 121.555664062 711 120.555664062 699 124.555664062 709 c 0
 126.555664062 715 129.555664062 719 135.555664062 725 c 0
 143.555664062 733 149.555664062 737 160.555664062 739 c 0
EndSplineSet
Validated: 524321
EndChar

StartChar: uni2441
Encoding: 9281 9281 8
Width: 715
GlyphClass: 2
Flags: W
HStem: 322 96<216.556 497.556>
VStem: 121.556 95<7.50558 322> 497.556 95<31.4108 322 418 708.544>
LayerCount: 2
Fore
SplineSet
536.555664062 739 m 0
 541.555664062 740 552.555664062 740 557.555664062 738 c 0
 562.555664062 737 571.555664062 732 575.555664062 729 c 0
 583.555664062 723 589.555664062 713 592.555664062 704 c 0
 593.555664062 700 593.555664062 686 593.555664062 370 c 0
 593.555664062 53 593.555664062 40 592.555664062 36 c 0
 591.555664062 34 589.555664062 30 588.555664062 27 c 0
 583.555664062 17 576.555664062 10 566.555664062 5 c 0
 554.555664062 -1 542.555664062 -2 529.555664062 3 c 0
 522.555664062 5 518.555664062 8 512.555664062 14 c 0
 505.555664062 21 503.555664062 25 500.555664062 31 c 0
 497.555664062 40 497.555664062 33 497.555664062 183 c 2
 497.555664062 322 l 1
 357.555664062 322 l 1
 216.555664062 322 l 1
 216.555664062 181 l 2
 216.555664062 22 217.555664062 38 211.555664062 27 c 0
 207.555664062 17 199.555664062 10 190.555664062 5 c 0
 177.555664062 -1 165.555664062 -2 152.555664062 3 c 0
 146.555664062 5 141.555664062 8 135.555664062 14 c 0
 129.555664062 21 126.555664062 25 124.555664062 31 c 0
 120.555664062 40 121.555664062 29 121.555664062 231 c 2
 121.555664062 418 l 1
 309.555664062 418 l 1
 497.555664062 418 l 1
 497.555664062 557 l 2
 497.555664062 707 497.555664062 699 500.555664062 709 c 0
 503.555664062 715 505.555664062 719 512.555664062 725 c 0
 519.555664062 733 526.555664062 737 536.555664062 739 c 0
EndSplineSet
Validated: 524321
EndChar

StartChar: brokenbar
Encoding: 166 166 9
Width: 715
GlyphClass: 2
Flags: W
VStem: 310 95<-95 1048>
LayerCount: 2
Fore
SplineSet
310 476 m 1
 310 1048 l 1
 357 1048 l 1
 405 1048 l 1
 405 476 l 1
 405 -95 l 1
 357 -95 l 1
 310 -95 l 1
 310 476 l 1
EndSplineSet
Validated: 1
EndChar

StartChar: Aring
Encoding: 197 197 10
Width: 715
GlyphClass: 2
Flags: W
HStem: 161 96<280 435> 644 95<264 451>
VStem: 123 90<8.0015 100.737> 169 95<579.192 643.082> 451 95<579.192 643.082> 501 91<7.21021 103.808>
LayerCount: 2
Fore
SplineSet
253 739 m 0xd0
 255 739 303 740 360 740 c 2
 463 739 l 1
 469 738 l 2
 485 734 499 728 511 718 c 0
 528 704 540 685 545 662 c 0
 546 656 546 655 546 611 c 0xd8
 546 567 546 567 545 561 c 0
 540 538 528 519 511 505 c 0
 500 496 486 489 473 486 c 0
 470 485 468 485 468 485 c 1
 529 274 l 2
 563 158 592 62 592 59 c 0
 594 53 594 43 592 36 c 0
 586 14 566 -1 543 0 c 0
 524 1 508 13 501 31 c 0
 500 33 491 64 481 98 c 2
 463 161 l 1
 357 161 l 1
 252 161 l 1
 233 97 l 2
 223 62 214 31 213 30 c 0
 210 21 203 13 195 8 c 0
 168 -10 131 5 123 37 c 0
 121 43 121 53 123 59 c 0xe4
 123 62 152 158 185 274 c 2
 247 485 l 1
 247 485 245 485 242 486 c 0
 229 489 215 496 205 504 c 0
 187 518 175 537 170 561 c 0
 169 567 169 567 169 611 c 0
 169 655 169 656 170 662 c 0
 175 686 187 704 205 719 c 0
 218 729 236 737 253 739 c 0xd0
451 611 m 1
 451 644 l 1
 357 644 l 1
 264 644 l 1
 264 611 l 1
 264 579 l 1
 357 579 l 1
 451 579 l 1
 451 611 l 1
369 482 m 0
 369 483 368 483 357 483 c 0
 347 483 346 483 346 482 c 0
 346 481 331 430 313 369 c 2
 280 257 l 1
 319 257 l 1
 396 257 l 1
 435 257 l 1
 402 369 l 2
 384 430 369 481 369 482 c 0
EndSplineSet
Validated: 33
EndChar

StartChar: Adieresis
Encoding: 196 196 11
Width: 715
GlyphClass: 2
Flags: W
HStem: 120 96<285.875 428.875> 564 174<149.157 209.473 525.157 585.845>
VStem: 121.875 92<571.09 731.913> 498.875 95<571.705 731.97>
LayerCount: 2
Fore
SplineSet
349.875 578 m 0
 354.875 579 358.875 579 364.875 578 c 0
 375.875 576 383.875 572 391.875 563 c 0
 394.875 561 397.875 557 398.875 555 c 0
 400.875 551 589.875 66 591.875 59 c 0
 593.875 53 593.875 43 591.875 36 c 0
 584.875 10 558.875 -5 532.875 2 c 0
 519.875 5 508.875 15 502.875 26 c 0
 501.875 28 481.875 80 468.875 114 c 2
 465.875 120 l 1
 357.875 120 l 1
 248.875 120 l 1
 230.875 74 l 2
 220.875 49 212.875 28 211.875 26 c 0
 209.875 22 205.875 17 201.875 13 c 0
 174.875 -12 131.875 1 122.875 37 c 0
 120.875 42 120.875 53 122.875 58 c 0
 122.875 61 297.875 511 311.875 547 c 0
 313.875 550 315.875 555 317.875 557 c 0
 321.875 563 328.875 570 334.875 573 c 0
 340.875 576 343.875 577 349.875 578 c 0
392.875 307 m 2
 373.875 356 357.875 397 357.875 398 c 0
 357.875 399 348.875 378 321.875 308 c 2
 285.875 217 l 1
 321.875 216 l 1
 392.875 216 l 1
 428.875 217 l 1
 392.875 307 l 2
536.875 739 m 0
 541.875 740 552.875 740 557.875 738 c 0
 559.875 738 563.875 736 566.875 735 c 0
 576.875 730 583.875 723 588.875 713 c 0
 593.875 703 593.875 706 593.875 655 c 0
 593.875 605 593.875 603 590.875 595 c 0
 585.875 583 575.875 572 563.875 567 c 0
 556.875 564 552.875 564 545.875 564 c 0
 537.875 564 530.875 565 524.875 568 c 0
 510.875 575 501.875 588 498.875 603 c 0
 497.875 609 497.875 694 498.875 700 c 0
 500.875 711 504.875 717 512.875 725 c 0
 519.875 733 526.875 737 536.875 739 c 0
160.875 739 m 0
 165.875 740 176.875 740 181.875 738 c 0
 183.875 738 187.875 736 190.875 735 c 0
 199.875 730 207.875 723 211.875 713 c 0
 216.875 703 216.875 706 216.875 655 c 0
 217.875 605 216.875 603 213.875 595 c 0
 209.875 583 199.875 572 186.875 567 c 0
 180.875 564 176.875 564 168.875 564 c 0
 161.875 564 154.875 565 148.875 568 c 0
 134.875 575 124.875 588 121.875 603 c 0
 120.875 609 120.875 694 121.875 700 c 0
 124.875 711 127.875 717 135.875 725 c 0
 143.875 733 149.875 737 160.875 739 c 0
EndSplineSet
Validated: 524321
EndChar

StartChar: AE
Encoding: 198 198 12
Width: 715
GlyphClass: 2
Flags: W
HStem: 1 95<452.25 585.383> 161 96<297.669 356.25> 322 96<452.25 585.383> 644 95<452.25 585.383>
VStem: 356.25 96<96.367 161 257 322 418 420> 363.25 230<663.619 732.117>
LayerCount: 2
Fore
SplineSet
396.25 739 m 0xf4
 402.25 740 548.25 740 554.25 739 c 0
 577.25 735 593.25 715 593.25 692 c 0xf4
 593.25 669 577.25 649 554.25 645 c 0
 551.25 644 541.25 644 501.25 644 c 2
 452.25 644 l 1
 452.25 531 l 1
 452.25 418 l 1xf8
 501.25 418 l 2
 541.25 418 551.25 418 554.25 417 c 0
 577.25 413 593.25 393 593.25 370 c 0xf4
 593.25 347 577.25 328 554.25 323 c 0
 551.25 322 541.25 322 501.25 322 c 2
 452.25 322 l 1
 452.25 209 l 1
 452.25 96 l 1xf8
 501.25 96 l 2
 541.25 96 551.25 96 554.25 95 c 0
 577.25 91 593.25 71 593.25 48 c 0
 593.25 25 577.25 5 554.25 1 c 0
 548.25 0 403.25 0 396.25 1 c 0
 386.25 3 379.25 6 371.25 14 c 0
 365.25 21 362.25 25 360.25 31 c 0
 357.25 40 357.25 40 357.25 102 c 2
 357.25 161 l 1
 309.25 161 l 2
 264.25 161 261.25 161 261.25 160 c 0
 261.25 159 250.25 130 237.25 94 c 0
 224.25 58 213.25 28 212.25 26 c 0
 210.25 22 206.25 17 202.25 13 c 0
 175.25 -12 132.25 1 123.25 37 c 0
 121.25 43 121.25 53 123.25 59 c 0
 125.25 67 361.25 712 363.25 716 c 0
 366.25 721 376.25 730 380.25 733 c 0
 384.25 736 390.25 738 396.25 739 c 0xf4
356.25 257 m 1xf8
 356.25 339 l 1
 356.25 420 l 1
 326.25 339 l 1
 297.25 257 l 1
 326.25 257 l 1
 356.25 257 l 1xf8
EndSplineSet
Validated: 524321
EndChar

StartChar: Ntilde
Encoding: 209 209 13
Width: 715
GlyphClass: 2
Flags: W
HStem: 0 21G<168 175.5> 0 21G<168 175.5> 604 136<129.358 207.509> 604 101<338.707 499.5>
VStem: 121.5 95<7.76045 329> 497.5 96<169 489.969 705.001 731.64>
LayerCount: 2
Fore
SplineSet
162.5 498 m 0x8c
 165.5 498 177.5 498 181.5 497 c 0
 185.5 495 193.5 492 197.5 489 c 0
 199.5 487 267.5 415 349.5 328 c 2
 497.5 169 l 1
 497.5 314 l 2
 498.5 477 497.5 461 502.5 471 c 0
 508.5 484 519.5 493 532.5 497 c 0
 539.5 498 551.5 498 557.5 497 c 0
 562.5 495 571.5 491 575.5 487 c 0
 583.5 481 589.5 472 592.5 462 c 0
 593.5 458 593.5 449 593.5 249 c 0
 593.5 49 593.5 40 592.5 36 c 0
 591.5 34 589.5 30 588.5 27 c 0
 583.5 17 576.5 10 566.5 5 c 0
 554.5 -1 542.5 -2 529.5 3 c 0
 522.5 5 518.5 8 512.5 14 c 0
 509.5 17 441.5 89 362.5 174 c 2
 217.5 329 l 1
 216.5 184 l 2
 216.5 21 217.5 38 211.5 27 c 0
 206.5 17 199.5 10 190.5 5 c 0
 183.5 2 178.5 1 172.5 0 c 0
 163.5 0 152.5 2 144.5 7 c 0
 140.5 9 130.5 19 127.5 24 c 0
 125.5 28 122.5 35 121.5 41 c 2
 121.5 252 l 2
 121.5 449 121.5 459 122.5 462 c 0
 124.5 468 128.5 476 131.5 481 c 0
 139.5 489 149.5 495 162.5 498 c 0x8c
160.5 739 m 0
 162.5 739 165.5 740 167.5 740 c 0x2c
 169.5 740 245.5 732 334.5 722 c 0
 424.5 713 498.5 705 499.5 705 c 2
 499.5 705 500.5 707 500.5 709 c 0
 503.5 715 506.5 719 512.5 725 c 0
 518.5 732 522.5 734 529.5 737 c 0
 542.5 741 554.5 741 566.5 735 c 0
 576.5 730 583.5 723 588.5 713 c 0
 593.5 703 592.5 703 593.5 675 c 0
 593.5 647 593.5 644 590.5 635 c 0
 588.5 629 585.5 625 579.5 619 c 0
 571.5 610 561.5 605 550.5 604 c 0x1c
 544.5 604 537.5 604 380.5 621 c 0
 290.5 631 216.5 638 216.5 638 c 2
 215.5 638 214.5 637 213.5 635 c 0
 211.5 629 208.5 624 203.5 619 c 0
 195.5 610 185.5 606 174.5 604 c 0x2c
 164.5 603 152.5 605 143.5 611 c 0
 138.5 614 130.5 622 127.5 627 c 0
 126.5 629 125.5 633 124.5 635 c 0
 121.5 643 121.5 646 121.5 672 c 0
 121.5 697 121.5 701 124.5 709 c 0
 126.5 715 129.5 719 135.5 725 c 0
 143.5 733 150.5 737 160.5 739 c 0
EndSplineSet
Validated: 524321
EndChar

StartChar: Oslash
Encoding: 216 216 14
Width: 715
GlyphClass: 2
Flags: W
HStem: 643 96<337.242 385.55>
LayerCount: 2
Fore
SplineSet
342.912109375 739 m 0
 364.912109375 742 390.912109375 737 411.912109375 727 c 0
 436.912109375 715 454.912109375 696 468.912109375 670 c 0
 470.912109375 666 472.912109375 663 472.912109375 663 c 2
 473.912109375 663 480.912109375 675 488.912109375 690 c 0
 505.912109375 719 506.912109375 720 510.912109375 725 c 0
 518.912109375 733 530.912109375 739 542.912109375 740 c 0
 561.912109375 741 580.912109375 730 588.912109375 712 c 0
 594.912109375 699 594.912109375 684 588.912109375 672 c 0
 587.912109375 670 572.912109375 644 555.912109375 614 c 2
 523.912109375 560 l 1
 549.912109375 508 l 2
 568.912109375 471 576.912109375 454 579.912109375 447 c 0
 596.912109375 402 597.912109375 355 584.912109375 309 c 0
 579.912109375 292 577.912109375 287 521.912109375 175 c 0
 491.912109375 116 465.912109375 64 463.912109375 61 c 0
 458.912109375 53 453.912109375 45 446.912109375 38 c 0
 408.912109375 -1 350.912109375 -11 302.912109375 13 c 0
 277.912109375 25 259.912109375 43 245.912109375 70 c 0
 243.912109375 74 241.912109375 77 241.912109375 77 c 1
 240.912109375 76 233.912109375 64 225.912109375 50 c 0
 208.912109375 20 206.912109375 18 201.912109375 13 c 0
 174.912109375 -12 131.912109375 1 122.912109375 37 c 0
 119.912109375 46 120.912109375 58 125.912109375 68 c 0
 126.912109375 70 141.912109375 96 158.912109375 125 c 2
 190.912109375 180 l 1
 171.912109375 217 l 1
 146.912109375 267 l 2
 143.912109375 274 139.912109375 283 137.912109375 287 c 0
 130.912109375 305 125.912109375 324 122.912109375 345 c 0
 121.912109375 357 121.912109375 383 122.912109375 395 c 0
 125.912109375 415 129.912109375 433 136.912109375 451 c 0
 140.912109375 461 247.912109375 674 251.912109375 681 c 0
 267.912109375 706 290.912109375 724 318.912109375 733 c 0
 326.912109375 736 332.912109375 738 342.912109375 739 c 0
363.912109375 643 m 0
 353.912109375 645 343.912109375 643 336.912109375 635 c 0
 333.912109375 632 329.912109375 626 280.912109375 526 c 0
 251.912109375 467 226.912109375 417 225.912109375 414 c 0
 222.912109375 408 219.912109375 397 218.912109375 389 c 0
 216.912109375 380 216.912109375 359 218.912109375 351 c 0
 219.912109375 344 222.912109375 333 224.912109375 328 c 0
 225.912109375 324 247.912109375 279 248.912109375 279 c 2
 248.912109375 279 413.912109375 561 414.912109375 563 c 0
 414.912109375 564 411.912109375 570 397.912109375 598 c 0
 381.912109375 630 380.912109375 632 377.912109375 635 c 0
 373.912109375 639 369.912109375 642 363.912109375 643 c 0
477.912109375 439 m 0
 471.912109375 452 466.912109375 461 466.912109375 461 c 2
 465.912109375 461 299.912109375 177 299.912109375 176 c 2
 316.912109375 142 l 2
 332.912109375 110 333.912109375 108 336.912109375 104 c 0
 340.912109375 100 344.912109375 98 350.912109375 97 c 0
 360.912109375 94 369.912109375 97 377.912109375 104 c 0
 380.912109375 108 381.912109375 110 410.912109375 168 c 2
 464.912109375 276 l 2
 485.912109375 316 488.912109375 324 491.912109375 331 c 0
 496.912109375 347 498.912109375 363 497.912109375 379 c 0
 495.912109375 399 492.912109375 409 477.912109375 439 c 0
EndSplineSet
Validated: 524321
EndChar

StartChar: odieresis
Encoding: 246 246 15
Width: 715
GlyphClass: 2
Flags: W
HStem: 483 95<331.016 372.875> 564 174<149.157 209.473 525.157 585.845>
VStem: 121.875 95<264 315 571.298 731.913> 498.875 95<264 315.906 571.705 731.97>
LayerCount: 2
Fore
SplineSet
331.875 578 m 0xb0
 341.875 579 371.875 579 381.875 578 c 0
 412.875 574 440.875 558 459.875 534 c 0
 461.875 532 472.875 516 484.875 500 c 2
 539.875 422 l 1
 576.875 369 l 2
 585.875 355 590.875 342 592.875 326 c 0
 593.875 320 593.875 314 593.875 286 c 0
 592.875 253 592.875 253 591.875 246 c 0
 588.875 234 583.875 221 577.875 212 c 0
 576.875 210 555.875 181 531.875 147 c 2
 475.875 67 l 2
 469.875 58 461.875 47 459.875 45 c 0
 440.875 21 412.875 5 381.875 1 c 0
 371.875 0 342.875 0 332.875 1 c 0
 301.875 5 273.875 21 254.875 45 c 0
 248.875 51 143.875 201 136.875 213 c 0
 130.875 222 125.875 234 123.875 246 c 0
 121.875 253 121.875 253 121.875 286 c 0
 121.875 314 121.875 320 122.875 326 c 0
 123.875 339 127.875 351 133.875 362 c 0
 136.875 367 148.875 384 219.875 485 c 0
 253.875 534 254.875 535 261.875 543 c 0
 280.875 562 305.875 574 331.875 578 c 0xb0
376.875 481 m 2
 372.875 483 l 1
 358.875 483 l 1
 341.875 483 l 2
 337.875 482 333.875 479 330.875 477 c 0
 329.875 475 320.875 463 311.875 449 c 2
 255.875 370 l 1
 217.875 315 l 1
 217.875 290 l 1
 216.875 264 l 1
 254.875 210 l 1
 310.875 130 l 2
 320.875 116 329.875 104 330.875 103 c 0
 332.875 101 335.875 99 337.875 98 c 2
 341.875 96 l 1
 356.875 96 l 1
 372.875 96 l 1
 376.875 98 l 2
 378.875 99 381.875 101 383.875 103 c 0
 384.875 104 400.875 125 417.875 150 c 2
 473.875 230 l 1
 497.875 264 l 1
 497.875 289 l 2
 497.875 312 497.875 314 496.875 316 c 0
 495.875 317 485.875 332 473.875 349 c 2
 418.875 427 l 2
 400.875 452 385.875 474 383.875 476 c 0
 381.875 478 379.875 480 376.875 481 c 2
536.875 739 m 0
 541.875 740 552.875 740 557.875 738 c 0
 559.875 738 563.875 736 566.875 735 c 0
 576.875 730 583.875 723 588.875 713 c 0
 593.875 703 593.875 706 593.875 655 c 0
 593.875 605 593.875 603 590.875 595 c 0
 585.875 583 575.875 572 563.875 567 c 0
 556.875 564 552.875 564 545.875 564 c 0x70
 537.875 564 530.875 565 524.875 568 c 0
 510.875 575 501.875 588 498.875 603 c 0
 497.875 609 497.875 694 498.875 700 c 0
 500.875 711 504.875 717 512.875 725 c 0
 519.875 733 526.875 737 536.875 739 c 0
160.875 739 m 0
 165.875 740 176.875 740 181.875 738 c 0
 183.875 738 187.875 736 190.875 735 c 0
 199.875 730 207.875 723 211.875 713 c 0
 216.875 703 216.875 706 216.875 655 c 0
 217.875 605 216.875 603 213.875 595 c 0
 209.875 583 199.875 572 186.875 567 c 0
 180.875 564 176.875 564 168.875 564 c 0
 161.875 564 154.875 565 148.875 568 c 0
 134.875 575 124.875 588 121.875 603 c 0
 120.875 609 120.875 694 121.875 700 c 0
 124.875 711 127.875 717 135.875 725 c 0
 143.875 733 149.875 737 160.875 739 c 0
EndSplineSet
Validated: 524321
EndChar

StartChar: udieresis
Encoding: 252 252 16
Width: 715
GlyphClass: 2
Flags: W
HStem: 0 96<245.283 470.373> 564 174<243.11 303.271 430.156 491.271>
VStem: 122.828 96<103.635 569.574> 215.828 92<571.09 731.913> 403.828 95<571.705 731.913> 497.828 96<104.406 570.176>
LayerCount: 2
Fore
SplineSet
161.828125 578 m 0xe4
 166.828125 579 170.828125 579 176.828125 578 c 0
 186.828125 576 194.828125 573 201.828125 565 c 0
 208.828125 559 212.828125 553 215.828125 542 c 0xd0
 216.828125 539 216.828125 524 216.828125 337 c 0
 217.828125 145 217.828125 135 218.828125 132 c 0
 222.828125 118 231.828125 107 244.828125 101 c 0
 254.828125 96 244.828125 96 357.828125 96 c 0
 469.828125 96 460.828125 96 470.828125 101 c 0
 482.828125 107 492.828125 118 496.828125 132 c 0
 497.828125 135 497.828125 145 497.828125 337 c 0xe4
 497.828125 526 498.828125 539 498.828125 542 c 0xc8
 503.828125 556 511.828125 567 523.828125 573 c 0
 543.828125 583 564.828125 579 580.828125 563 c 0
 585.828125 558 588.828125 554 590.828125 548 c 0
 593.828125 538 593.828125 551 593.828125 335 c 0
 593.828125 140 593.828125 135 592.828125 126 c 0
 590.828125 110 585.828125 96 578.828125 80 c 0
 557.828125 37 515.828125 7 467.828125 1 c 0
 458.828125 0 453.828125 0 357.828125 0 c 0
 271.828125 0 255.828125 0 249.828125 1 c 0
 182.828125 9 129.828125 61 122.828125 128 c 0
 120.828125 139 120.828125 532 121.828125 539 c 0
 124.828125 554 134.828125 567 146.828125 573 c 0
 152.828125 576 155.828125 577 161.828125 578 c 0xe4
442.828125 739 m 0
 447.828125 740 457.828125 740 462.828125 738 c 0
 465.828125 738 469.828125 736 472.828125 735 c 0
 481.828125 730 488.828125 723 493.828125 713 c 0
 498.828125 703 498.828125 706 498.828125 655 c 0
 498.828125 605 498.828125 603 495.828125 595 c 0
 491.828125 583 480.828125 572 468.828125 567 c 0
 462.828125 564 457.828125 564 450.828125 564 c 0
 443.828125 564 436.828125 565 429.828125 568 c 0
 416.828125 575 406.828125 588 403.828125 603 c 0
 402.828125 609 402.828125 694 403.828125 700 c 0xc8
 405.828125 711 409.828125 717 417.828125 725 c 0
 425.828125 733 431.828125 737 442.828125 739 c 0
254.828125 739 m 0
 259.828125 740 269.828125 740 275.828125 738 c 0
 277.828125 738 281.828125 736 284.828125 735 c 0
 293.828125 730 300.828125 723 305.828125 713 c 0
 310.828125 703 310.828125 706 310.828125 655 c 0
 311.828125 605 310.828125 603 307.828125 595 c 0
 303.828125 583 292.828125 572 280.828125 567 c 0
 274.828125 564 270.828125 564 262.828125 564 c 0
 255.828125 564 248.828125 565 242.828125 568 c 0
 228.828125 575 218.828125 588 215.828125 603 c 0
 214.828125 609 214.828125 694 215.828125 700 c 0xd0
 217.828125 711 221.828125 717 229.828125 725 c 0
 237.828125 733 243.828125 737 254.828125 739 c 0
EndSplineSet
Validated: 524321
EndChar

StartChar: sterling
Encoding: 163 163 17
Width: 715
GlyphClass: 2
Flags: W
HStem: 0 96<161 228 327 585.25> 322 96<161 293 422 585.133> 644 95<505.53 584.935>
VStem: 293 100<247.177 322>
LayerCount: 2
Fore
SplineSet
505 739 m 0
 516 740 547 740 554 739 c 0
 577 735 593 715 593 692 c 0
 593 670 579 652 557 645 c 0
 555 645 549 644 534 644 c 0
 513 643 511 643 503 639 c 0
 493 635 485 627 480 617 c 0
 479 614 468 579 450 516 c 0
 434 462 422 419 422 418 c 1
 486 418 l 2
 538 418 551 418 554 417 c 0
 577 413 593 393 593 370 c 0
 593 347 577 328 554 323 c 0
 551 322 536 322 472 322 c 2
 393 322 l 1
 393 321 l 2
 393 320 378 269 360 208 c 2
 327 96 l 1
 441 96 l 2
 565 95 555 96 564 92 c 0
 582 85 593 67 593 48 c 0
 593 24 576 4 553 1 c 0
 550 0 500 0 355 0 c 2
 161 0 l 1
 157 2 l 1
 135 8 122 26 122 48 c 0
 122 70 135 88 157 94 c 0
 161 95 162 95 194 96 c 2
 228 96 l 1
 260 209 l 2
 279 270 293 321 293 322 c 1
 227 322 l 1
 161 323 l 1
 157 324 l 2
 135 331 122 348 122 370 c 0
 122 392 135 410 157 416 c 1
 161 418 l 1
 241 418 l 1
 322 418 l 1
 354 529 l 2
 372 590 388 643 389 646 c 0
 402 680 427 709 460 725 c 0
 475 732 489 736 505 739 c 0
EndSplineSet
Validated: 33
EndChar

StartChar: yen
Encoding: 165 165 18
Width: 715
GlyphClass: 2
Flags: W
HStem: 242 95<157 310 405 585.682>
VStem: 310 95<7.50558 242 337 357>
LayerCount: 2
Fore
SplineSet
162 739 m 0
 172 741 185 738 194 733 c 0
 199 730 205 723 209 718 c 0
 210 716 244 658 285 589 c 2
 357 465 l 1
 359 467 l 1
 431 590 l 1
 505 716 l 2
 521 742 556 748 578 727 c 0
 583 723 587 717 589 712 c 0
 595 699 595 684 589 672 c 0
 588 670 546 598 496 513 c 2
 405 357 l 1
 405 347 l 1
 405 337 l 1
 478 337 l 1
 554 337 l 1
 577 332 593 313 593 289 c 0
 593 266 577 247 554 242 c 1
 478 242 l 1
 405 242 l 1
 405 140 l 2
 405 27 405 38 400 27 c 0
 395 17 388 10 379 5 c 0
 366 -1 354 -2 341 3 c 0
 334 5 330 8 324 14 c 0
 318 21 315 25 313 31 c 0
 309 40 310 36 310 143 c 2
 310 242 l 1
 235 242 l 1
 161 242 l 1
 157 243 l 2
 135 250 122 268 122 289 c 0
 122 311 135 329 157 336 c 2
 161 337 l 1
 235 337 l 1
 310 337 l 1
 310 347 l 1
 310 357 l 1
 219 513 l 2
 168 598 127 670 126 672 c 0
 120 684 120 699 126 712 c 0
 132 726 146 736 162 739 c 0
EndSplineSet
Validated: 33
EndChar

StartChar: space
Encoding: 32 32 19
Width: 715
GlyphClass: 2
Flags: W
LayerCount: 2
Fore
SplineSet
1105 528 m 1024
EndSplineSet
Validated: 1
EndChar

StartChar: exclam
Encoding: 33 33 20
Width: 715
GlyphClass: 2
Flags: W
HStem: 0 136<294.181 420.97>
VStem: 286 143<8.03003 127.97 391.714 731.694>
LayerCount: 2
Fore
SplineSet
325 135 m 0
 328 136 336 136 359 136 c 0
 393 136 392 136 402 131 c 0
 412 126 419 119 424 109 c 0
 429 99 429 100 429 68 c 0
 429 36 429 37 424 27 c 0
 419 17 412 10 402 5 c 0
 392 0 393 0 360 0 c 0
 329 0 326 0 318 3 c 0
 311 5 307 8 301 14 c 0
 294 21 292 25 289 31 c 0
 286 39 286 42 286 68 c 0
 286 94 286 97 289 105 c 0
 292 111 294 116 301 122 c 0
 308 130 315 133 325 135 c 0
327 739 m 0
 328 740 343 740 359 739 c 0
 393 739 392 739 402 735 c 0
 412 730 419 723 424 713 c 0
 427 706 428 702 429 695 c 0
 429 691 425 633 417 508 c 0
 411 408 405 326 405 324 c 0
 404 313 398 302 390 295 c 0
 385 290 379 286 372 284 c 0
 367 282 366 282 357 282 c 0
 349 282 348 282 343 284 c 0
 325 290 312 306 310 324 c 0
 309 333 286 690 286 695 c 0
 287 701 288 706 291 713 c 0
 294 719 298 725 304 729 c 0
 310 734 320 738 327 739 c 0
EndSplineSet
Validated: 33
EndChar

StartChar: quotedbl
Encoding: 34 34 21
Width: 715
GlyphClass: 2
Flags: W
HStem: 720 20G<213.481 263.481 453.481 503.481>
VStem: 192.481 90<418.217 464.96> 432.481 90<418.217 464.96>
LayerCount: 2
Fore
SplineSet
478.481445312 740 m 0
 528.481445312 740 582.481445312 740 572.481445312 692 c 0
 522.481445312 428 l 1
 511.481445312 395 446.852539062 394.466796875 432.481445312 428 c 1
 382.481445312 692 l 1
 372.481445312 740 428.481445312 740 478.481445312 740 c 0
238.481445312 740 m 0
 288.481445312 740 342.481445312 740 332.481445312 692 c 0
 282.481445312 428 l 1
 271.481445312 395 206.852539062 394.466796875 192.481445312 428 c 1
 142.481445312 692 l 1
 132.481445312 740 188.481445312 740 238.481445312 740 c 0
EndSplineSet
Validated: 524321
EndChar

StartChar: numbersign
Encoding: 35 35 22
Width: 715
GlyphClass: 2
Flags: W
HStem: 282 96<129.635 216 311 404 499 585.133> 483 96<129.635 216 311 404 499 585.133>
VStem: 216 95<128.318 282 378 483 579 731.913> 404 95<128.318 282 378 483 579 732.24>
LayerCount: 2
Fore
SplineSet
255 739 m 0
 260 740 270 740 276 738 c 0
 278 738 282 736 285 735 c 0
 294 730 301 723 306 713 c 0
 311 702 311 708 311 640 c 2
 311 579 l 1
 358 579 l 1
 404 579 l 1
 404 637 l 2
 404 700 404 700 407 709 c 0
 409 715 412 719 418 725 c 0
 424 732 428 734 435 737 c 0
 448 741 460 741 473 735 c 0
 482 730 489 723 494 713 c 0
 499 702 499 708 499 640 c 2
 499 579 l 1
 525 579 l 2
 544 579 551 579 554 578 c 0
 577 574 593 554 593 531 c 0
 593 508 577 488 554 484 c 0
 551 483 544 483 525 483 c 2
 499 483 l 1
 499 430 l 1
 499 378 l 1
 525 378 l 2
 544 378 551 378 554 377 c 0
 577 372 593 353 593 330 c 0
 593 307 577 287 554 283 c 0
 551 282 544 282 525 282 c 2
 499 282 l 1
 499 223 l 2
 499 175 499 164 498 160 c 0
 494 137 475 121 451 121 c 0
 428 121 409 137 404 160 c 1
 404 223 l 1
 404 282 l 1
 357 282 l 1
 311 282 l 1
 311 223 l 1
 311 160 l 1
 306 137 287 121 263 121 c 0
 240 121 221 137 216 160 c 1
 216 223 l 1
 216 282 l 1
 188 282 l 2
 162 282 161 282 157 284 c 0
 135 290 122 308 122 330 c 0
 122 352 135 370 157 376 c 0
 161 377 162 377 188 378 c 2
 216 378 l 1
 216 430 l 1
 216 483 l 1
 188 483 l 2
 162 483 161 484 157 485 c 0
 135 491 122 509 122 531 c 0
 122 553 135 571 157 577 c 0
 161 578 162 579 188 579 c 2
 216 579 l 1
 216 637 l 2
 216 700 216 700 219 709 c 0
 221 715 224 719 230 725 c 0
 238 733 244 737 255 739 c 0
404 430 m 1
 404 483 l 1
 357 483 l 1
 311 483 l 1
 311 430 l 1
 311 378 l 1
 357 378 l 1
 404 378 l 1
 404 430 l 1
EndSplineSet
Validated: 33
EndChar

StartChar: dollar
Encoding: 36 36 23
Width: 715
GlyphClass: 2
Flags: W
HStem: 161 95<156.875 309.875 404.875 494.574> 322 96<220.438 497.875> 483 96<217.972 309.875 404.875 585.008>
VStem: 121.875 95<418 483> 309.875 95<7.50558 161 579 731.913> 497.875 96<260.192 321.684>
LayerCount: 2
Fore
SplineSet
348.875 739 m 0
 353.875 740 363.875 740 369.875 738 c 0
 371.875 738 375.875 736 378.875 735 c 0
 387.875 730 394.875 723 399.875 713 c 0
 404.875 702 404.875 708 404.875 640 c 2
 404.875 579 l 1
 477.875 579 l 2
 536.875 579 550.875 579 553.875 578 c 0
 576.875 574 592.875 554 592.875 531 c 0
 592.875 508 576.875 488 553.875 484 c 0
 550.875 483 523.875 483 383.875 483 c 2
 216.875 483 l 1
 216.875 451 l 1
 216.875 418 l 1
 385.875 418 l 2
 545.875 418 554.875 418 557.875 417 c 0
 563.875 415 571.875 411 575.875 407 c 0
 581.875 403 585.875 398 588.875 391 c 0
 593.875 381 593.875 389 593.875 289 c 0
 593.875 190 593.875 198 588.875 188 c 0
 583.875 178 576.875 171 566.875 166 c 0
 555.875 161 563.875 161 479.875 161 c 2
 404.875 161 l 1
 404.875 100 l 2
 404.875 32 404.875 37 399.875 27 c 0
 394.875 17 387.875 10 378.875 5 c 0
 365.875 -1 353.875 -2 340.875 3 c 0
 333.875 5 329.875 8 323.875 14 c 0
 317.875 21 314.875 25 312.875 31 c 0
 309.875 40 309.875 40 309.875 102 c 2
 309.875 161 l 1
 234.875 161 l 1
 160.875 161 l 1
 156.875 162 l 2
 134.875 169 121.875 187 121.875 209 c 0
 121.875 230 134.875 248 156.875 255 c 2
 160.875 256 l 1
 329.875 256 l 1
 497.875 257 l 1
 497.875 289 l 1
 497.875 322 l 1
 331.875 322 l 2
 151.875 322 161.875 322 152.875 325 c 0
 145.875 328 141.875 331 135.875 337 c 0
 127.875 345 124.875 351 121.875 362 c 0
 120.875 368 120.875 533 121.875 539 c 0
 124.875 550 127.875 556 135.875 564 c 0
 141.875 571 145.875 573 152.875 576 c 0
 161.875 579 159.875 579 237.875 579 c 2
 309.875 579 l 1
 309.875 637 l 2
 309.875 700 309.875 700 312.875 709 c 0
 314.875 715 317.875 719 323.875 725 c 0
 331.875 733 337.875 737 348.875 739 c 0
EndSplineSet
Validated: 524321
EndChar

StartChar: percent
Encoding: 37 37 24
Width: 715
GlyphClass: 2
Flags: W
HStem: 0 176<411.555 585.845> 563 177<129.941 284.37>
VStem: 121.875 189<571.03 731.654> 403.875 190<8.03003 168.389>
LayerCount: 2
Fore
SplineSet
442.875 176 m 2
 500.875 176 l 2
 560.875 176 556.875 176 566.875 171 c 0
 576.875 167 583.875 160 588.875 150 c 0
 593.875 139 593.875 143 593.875 88 c 0
 593.875 34 593.875 37 588.875 27 c 0
 583.875 17 576.875 10 566.875 5 c 0
 556.875 0 560.875 0 501.875 0 c 0
 444.875 0 443.875 0 434.875 3 c 0
 427.875 5 423.875 8 417.875 14 c 0
 411.875 21 408.875 25 406.875 31 c 0
 403.875 40 403.875 41 403.875 88 c 0
 403.875 136 403.875 137 406.875 145 c 0
 408.875 152 411.875 156 417.875 162 c 0
 425.875 170 431.875 174 442.875 176 c 2
536.875 658 m 0
 537.875 659 541.875 659 545.875 659 c 0
 553.875 659 559.875 658 566.875 654 c 0
 571.875 651 573.875 650 578.875 645 c 0
 584.875 640 585.875 638 587.875 633 c 0
 591.875 625 592.875 619 592.875 611 c 0
 592.875 602 590.875 593 585.875 586 c 0
 584.875 584 498.875 474 395.875 341 c 0
 248.875 153 205.875 98 201.875 94 c 0
 196.875 90 194.875 88 190.875 86 c 0
 181.875 82 176.875 80 166.875 81 c 0
 153.875 81 144.875 85 135.875 95 c 0
 129.875 100 128.875 102 126.875 107 c 0
 122.875 115 120.875 121 121.875 130 c 0
 121.875 139 123.875 145 127.875 152 c 0
 128.875 154 214.875 264 317.875 397 c 0
 459.875 580 506.875 640 511.875 645 c 0
 516.875 650 518.875 651 522.875 653 c 0
 527.875 656 531.875 658 536.875 658 c 0
160.875 739 m 0
 163.875 739 175.875 740 217.875 740 c 0
 278.875 739 273.875 740 284.875 735 c 0
 293.875 730 300.875 723 305.875 713 c 0
 310.875 703 310.875 706 310.875 652 c 0
 310.875 597 310.875 600 305.875 590 c 0
 300.875 580 293.875 573 284.875 568 c 0
 273.875 563 277.875 564 219.875 563 c 0
 162.875 563 161.875 563 152.875 566 c 0
 146.875 569 141.875 571 135.875 578 c 0
 127.875 586 124.875 592 121.875 603 c 0
 120.875 609 120.875 694 121.875 700 c 0
 124.875 711 127.875 717 135.875 725 c 0
 143.875 733 150.875 737 160.875 739 c 0
EndSplineSet
Validated: 524321
EndChar

StartChar: ampersand
Encoding: 38 38 25
Width: 715
GlyphClass: 2
Flags: W
HStem: 0 96<225.197 339.604> 563 96<224.541 367.461>
VStem: 121.604 96<123.415 187 469 554.889> 403.604 95<472 555.375>
LayerCount: 2
Fore
SplineSet
246.603515625 658 m 0
 253.603515625 659 260.603515625 659 309.603515625 659 c 0
 360.603515625 659 364.603515625 659 373.603515625 658 c 0
 389.603515625 656 403.603515625 652 418.603515625 644 c 0
 447.603515625 630 469.603515625 608 484.603515625 579 c 0
 491.603515625 563 496.603515625 548 497.603515625 531 c 0
 498.603515625 524 498.603515625 516 498.603515625 482 c 2
 498.603515625 441 l 1
 497.603515625 437 l 2
 495.603515625 431 491.603515625 425 488.603515625 420 c 0
 486.603515625 418 462.603515625 398 425.603515625 366 c 0
 392.603515625 337 364.603515625 314 364.603515625 313 c 0
 363.603515625 312 366.603515625 309 413.603515625 258 c 0
 441.603515625 228 464.603515625 204 465.603515625 204 c 2
 490.603515625 225 l 2
 515.603515625 247 520.603515625 251 527.603515625 253 c 0
 535.603515625 257 546.603515625 258 554.603515625 256 c 0
 576.603515625 251 592.603515625 231 592.603515625 209 c 0
 592.603515625 198 589.603515625 187 582.603515625 179 c 0
 580.603515625 177 569.603515625 166 554.603515625 154 c 2
 530.603515625 134 l 1
 532.603515625 132 l 2
 533.603515625 131 544.603515625 118 558.603515625 104 c 0
 571.603515625 90 583.603515625 77 584.603515625 76 c 0
 598.603515625 56 595.603515625 29 577.603515625 13 c 0
 563.603515625 -1 541.603515625 -4 524.603515625 5 c 0
 516.603515625 9 513.603515625 12 485.603515625 41 c 0
 470.603515625 58 458.603515625 71 457.603515625 71 c 2
 422.603515625 41 l 2
 403.603515625 25 386.603515625 11 385.603515625 9 c 0
 381.603515625 7 374.603515625 3 369.603515625 1 c 0
 365.603515625 0 361.603515625 0 311.603515625 0 c 0
 265.603515625 0 256.603515625 0 249.603515625 1 c 0
 182.603515625 9 129.603515625 61 122.603515625 128 c 0
 121.603515625 134 121.603515625 144 121.603515625 176 c 0
 121.603515625 214 121.603515625 216 122.603515625 220 c 0
 124.603515625 229 129.603515625 237 135.603515625 243 c 0
 137.603515625 245 158.603515625 263 182.603515625 283 c 2
 224.603515625 320 l 1
 178.603515625 370 l 2
 153.603515625 397 131.603515625 421 130.603515625 422 c 0
 126.603515625 427 123.603515625 433 122.603515625 439 c 0
 121.603515625 443 121.603515625 446 121.603515625 484 c 0
 121.603515625 528 121.603515625 534 125.603515625 550 c 0
 134.603515625 585 155.603515625 615 185.603515625 636 c 0
 203.603515625 647 224.603515625 655 246.603515625 658 c 0
367.603515625 562 m 0
 364.603515625 563 359.603515625 563 311.603515625 563 c 2
 256.603515625 563 l 1
 238.603515625 559 224.603515625 547 218.603515625 529 c 0
 217.603515625 525 217.603515625 523 217.603515625 497 c 2
 216.603515625 469 l 1
 256.603515625 426 l 1
 297.603515625 383 l 1
 350.603515625 427 l 1
 403.603515625 472 l 1
 402.603515625 498 l 2
 402.603515625 528 402.603515625 527 397.603515625 537 c 0
 392.603515625 549 381.603515625 558 367.603515625 562 c 0
341.603515625 196 m 1
 290.603515625 250 l 1
 253.603515625 218 l 1
 216.603515625 187 l 1
 217.603515625 161 l 2
 217.603515625 132 217.603515625 132 221.603515625 123 c 0
 227.603515625 111 238.603515625 102 251.603515625 97 c 0
 256.603515625 96 256.603515625 96 297.603515625 96 c 2
 339.603515625 96 l 1
 364.603515625 117 l 2
 378.603515625 129 390.603515625 139 390.603515625 140 c 2
 392.603515625 141 l 1
 341.603515625 196 l 1
EndSplineSet
Validated: 524321
EndChar

StartChar: quotesingle
Encoding: 39 39 26
Width: 715
GlyphClass: 2
Flags: W
HStem: 720 20G<333.138 383.138>
VStem: 261.656 190.481
LayerCount: 2
Fore
SplineSet
358.137695312 740 m 0
 408.137695312 740 462.137695312 740 452.137695312 692 c 0
 351.65625 428 l 5
 340.65625 395 276.02734375 394.466796875 261.65625 428 c 5
 262.137695312 692 l 5
 261.65625 740 308.137695312 740 358.137695312 740 c 0
EndSplineSet
Validated: 524321
EndChar

StartChar: parenleft
Encoding: 40 40 27
Width: 715
GlyphClass: 2
Flags: W
VStem: 239.5 96<216.993 487>
LayerCount: 2
Fore
SplineSet
419.5 739 m 0
 424.5 740 435.5 740 440.5 738 c 0
 456.5 734 468.5 722 473.5 707 c 0
 475.5 701 475.5 701 475.5 692 c 0
 475.5 683 475.5 683 473.5 677 c 0
 472.5 674 470.5 669 468.5 667 c 0
 467.5 664 440.5 630 409.5 590 c 0
 378.5 551 352.5 516 350.5 514 c 0
 344.5 504 338.5 490 336.5 478 c 0
 335.5 472 335.5 467 335.5 370 c 0
 335.5 273 335.5 267 336.5 262 c 0
 338.5 249 344.5 236 350.5 226 c 0
 352.5 223 378.5 189 409.5 149 c 0
 440.5 110 467.5 75 468.5 73 c 0
 470.5 71 472.5 66 473.5 63 c 0
 475.5 57 475.5 57 475.5 48 c 0
 475.5 39 475.5 39 473.5 33 c 0
 466.5 14 450.5 2 430.5 0 c 0
 417.5 -1 403.5 5 393.5 15 c 0
 390.5 19 281.5 158 274.5 168 c 0
 256.5 192 245.5 221 240.5 253 c 2
 239.5 262 l 1
 239.5 370 l 1
 239.5 477 l 1
 240.5 487 l 2
 245.5 519 256.5 548 274.5 572 c 0
 281.5 582 390.5 721 393.5 725 c 0
 400.5 732 409.5 737 419.5 739 c 0
EndSplineSet
Validated: 524321
EndChar

StartChar: parenright
Encoding: 41 41 28
Width: 715
GlyphClass: 2
Flags: W
HStem: 0 21G<280.5 288> 0 21G<280.5 288>
VStem: 379.5 96<217.331 522.39>
LayerCount: 2
Fore
SplineSet
280.5 739 m 0xa0
 290.5 741 302.5 738 311.5 733 c 0
 318.5 729 322.5 724 381.5 648 c 0
 412.5 608 439.5 574 441.5 571 c 0
 458.5 546 469.5 519 474.5 487 c 2
 475.5 477 l 1
 475.5 370 l 1
 475.5 262 l 1
 474.5 253 l 2
 469.5 221 458.5 193 441.5 169 c 0
 439.5 166 412.5 131 381.5 91 c 0
 322.5 16 318.5 11 311.5 7 c 0
 303.5 2 292.5 0 283.5 0 c 0
 277.5 1 272.5 2 265.5 5 c 0
 253.5 11 245.5 21 240.5 35 c 0
 239.5 39 239.5 41 239.5 48 c 0
 239.5 55 239.5 57 240.5 61 c 0
 243.5 70 246.5 73 270.5 105 c 2
 328.5 179 l 2
 347.5 203 363.5 224 364.5 226 c 0
 371.5 236 376.5 250 378.5 262 c 0
 379.5 267 379.5 273 379.5 370 c 0
 379.5 467 379.5 472 378.5 478 c 0
 376.5 490 371.5 504 364.5 513 c 0
 363.5 515 347.5 537 328.5 561 c 2
 270.5 635 l 2
 246.5 666 243.5 670 240.5 679 c 0
 239.5 683 239.5 685 239.5 692 c 0
 239.5 699 239.5 701 240.5 705 c 0
 242.5 711 246.5 717 249.5 722 c 0
 256.5 731 269.5 738 280.5 739 c 0xa0
EndSplineSet
Validated: 524321
EndChar

StartChar: asterisk
Encoding: 42 42 29
Width: 715
GlyphClass: 2
Flags: W
VStem: 310 95<116 266 474 624>
LayerCount: 2
Fore
SplineSet
346 658 m 0
 350 659 352 659 359 659 c 0
 368 659 372 658 379 654 c 0
 390 648 400 637 404 624 c 2
 405 620 l 1
 405 547 l 1
 406 474 l 1
 461 521 l 2
 492 547 518 570 519 570 c 0
 528 577 541 580 552 578 c 0
 576 575 593 555 593 531 c 0
 593 523 592 517 588 509 c 0
 586 505 584 503 580 498 c 0
 577 495 542 465 503 431 c 2
 432 370 l 1
 503 308 l 2
 542 275 577 245 580 242 c 0
 584 237 586 235 588 231 c 0
 592 223 593 217 593 209 c 0
 593 201 592 195 588 188 c 0
 581 173 568 164 552 161 c 0
 541 160 528 163 519 169 c 0
 518 170 492 192 461 218 c 2
 406 266 l 1
 405 193 l 1
 405 120 l 1
 404 116 l 2
 400 102 390 91 379 86 c 0
 372 82 368 81 359 81 c 0
 353 81 351 81 347 82 c 0
 330 86 317 99 311 116 c 2
 310 120 l 1
 310 193 l 1
 309 266 l 1
 253 218 l 2
 223 192 196 169 194 168 c 0
 186 163 179 161 169 161 c 0
 163 161 161 162 156 163 c 0
 146 166 138 172 131 180 c 0
 125 189 122 198 122 209 c 0
 122 222 126 234 137 243 c 0
 139 246 173 275 212 308 c 2
 283 370 l 1
 212 431 l 2
 173 465 139 494 137 496 c 0
 126 506 122 517 122 531 c 0
 122 542 125 551 131 560 c 0
 138 568 146 574 156 577 c 0
 161 578 163 578 169 579 c 0
 179 579 186 576 194 572 c 0
 196 571 223 548 253 522 c 2
 309 474 l 1
 310 547 l 1
 310 620 l 1
 311 624 l 2
 316 641 330 654 346 658 c 0
EndSplineSet
Validated: 33
EndChar

StartChar: plus
Encoding: 43 43 30
Width: 715
GlyphClass: 2
Flags: W
HStem: 322 96<161 310 405 585.133>
VStem: 310 95<141.506 322 418 598.196>
LayerCount: 2
Fore
SplineSet
349 605 m 0
 354 606 364 606 370 605 c 0
 372 604 376 602 379 601 c 0
 388 596 395 589 400 579 c 0
 405 569 405 576 405 492 c 2
 405 418 l 1
 478 418 l 2
 537 418 551 418 554 417 c 0
 577 413 593 393 593 370 c 0
 593 347 577 328 554 323 c 0
 551 322 537 322 478 322 c 2
 405 322 l 1
 405 248 l 2
 405 164 405 171 400 161 c 0
 395 151 388 144 379 139 c 0
 366 133 354 132 341 137 c 0
 334 139 330 142 324 148 c 0
 318 154 315 158 313 165 c 0
 310 174 310 172 310 250 c 2
 310 322 l 1
 235 322 l 1
 161 323 l 1
 157 324 l 2
 135 331 122 348 122 370 c 0
 122 392 135 410 157 416 c 1
 161 418 l 1
 235 418 l 1
 310 418 l 1
 310 490 l 2
 310 567 310 566 313 575 c 0
 315 581 318 585 324 592 c 0
 332 599 338 603 349 605 c 0
EndSplineSet
Validated: 33
EndChar

StartChar: comma
Encoding: 44 44 31
Width: 715
GlyphClass: 2
Flags: W
HStem: 242 95<223.818 404.062>
VStem: 404.219 95<7.50558 239.221>
LayerCount: 2
Fore
SplineSet
257.21875 337 m 2
 359.21875 337 l 2
 473.21875 337 462.21875 337 473.21875 332 c 0
 482.21875 327 489.21875 320 494.21875 311 c 0
 500.21875 300 499.21875 314 499.21875 169 c 0
 499.21875 24 500.21875 38 494.21875 27 c 0
 489.21875 17 482.21875 10 473.21875 5 c 0
 460.21875 -1 448.21875 -2 435.21875 3 c 0
 428.21875 5 424.21875 8 418.21875 14 c 0
 412.21875 21 409.21875 25 407.21875 31 c 0
 403.21875 40 404.21875 36 404.21875 143 c 2
 404.21875 242 l 1
 329.21875 242 l 2
 246.21875 242 253.21875 242 242.21875 247 c 0
 230.21875 253 222.21875 263 217.21875 277 c 0
 215.21875 283 215.21875 296 217.21875 302 c 0
 219.21875 308 223.21875 315 226.21875 319 c 0
 233.21875 328 246.21875 335 257.21875 337 c 2
EndSplineSet
Validated: 524321
EndChar

StartChar: hyphen
Encoding: 45 45 32
Width: 715
GlyphClass: 2
Flags: W
HStem: 282 136<129.006 157 558 585.994>
LayerCount: 2
Fore
SplineSet
157 282 m 0
 558 282 l 0
 571.7578125 286.5859375 583.538085938 296.254882812 589 309 c 0
 592.940429688 318.1953125 593.50390625 381.9921875 589 391 c 0
 582.80859375 403.381835938 571.735351562 413.421875 558 418 c 0
 157 418 l 0
 143.264648438 413.421875 132.19140625 403.381835938 126 391 c 0
 121.49609375 381.9921875 122.059570312 318.1953125 126 309 c 0
 131.461914062 296.254882812 143.2421875 286.5859375 157 282 c 0
EndSplineSet
Validated: 524329
EndChar

StartChar: period
Encoding: 46 46 33
Width: 715
GlyphClass: 2
Flags: W
HStem: 121 176<270.721 444.352>
VStem: 263.375 189<128.231 288.957>
LayerCount: 2
Fore
SplineSet
302.375 296 m 0
 305.375 297 317.375 297 359.375 297 c 0
 420.375 297 415.375 297 426.375 292 c 0
 435.375 287 442.375 280 447.375 270 c 0
 452.375 260 452.375 263 452.375 209 c 0
 452.375 154 452.375 158 447.375 147 c 0
 442.375 137 435.375 130 426.375 126 c 0
 415.375 121 419.375 121 360.375 121 c 0
 304.375 120 303.375 120 294.375 123 c 0
 287.375 126 283.375 129 277.375 135 c 0
 269.375 143 265.375 150 263.375 160 c 0
 262.375 167 262.375 251 263.375 257 c 0
 265.375 268 269.375 275 277.375 283 c 0
 285.375 290 292.375 294 302.375 296 c 0
EndSplineSet
Validated: 524321
EndChar

StartChar: slash
Encoding: 47 47 34
Width: 715
GlyphClass: 2
Flags: W
LayerCount: 2
Fore
SplineSet
537.9921875 739 m 0
 548.9921875 741 560.9921875 738 570.9921875 733 c 0
 577.9921875 728 584.9921875 720 588.9921875 712 c 0
 594.9921875 700 594.9921875 685 588.9921875 673 c 0
 587.9921875 670 216.9921875 35 209.9921875 24 c 0
 200.9921875 8 183.9921875 -1 166.9921875 0 c 0
 144.9921875 2 127.9921875 16 122.9921875 37 c 0
 119.9921875 46 121.9921875 58 124.9921875 67 c 0
 126.9921875 70 496.9921875 704 504.9921875 716 c 0
 511.9921875 728 523.9921875 737 537.9921875 739 c 0
EndSplineSet
Validated: 524321
EndChar

StartChar: zero
Encoding: 48 48 35
Width: 715
GlyphClass: 2
Flags: W
HStem: 0 96<359.87 499.87>
VStem: 499.87 96<96 480.011>
LayerCount: 2
Fore
SplineSet
207.870117188 740 m 2
 168.55078125 740 122.870117188 706 122.870117188 667 c 2
 119.129882812 96 l 2
 119.325195312 43.0302734375 166.142578125 0 218.870117188 0 c 2
 359.870117188 0 l 1
 499.870117188 0 l 2
 552.93359375 0.3544921875 595.870117188 50.40234375 595.870117188 96 c 2
 595.870117188 644 l 2
 595.870117188 696 563.663085938 736.62890625 523.870117188 737 c 2
 207.870117188 740 l 2
499.870117188 480.010742188 m 1
 499.870117188 96 l 1
 275.069335938 96 l 1
 499.870117188 480.010742188 l 1
218.870117188 253.961914062 m 1
 218.870117188 644 l 1
 465.1484375 644 l 1
 218.870117188 253.961914062 l 1
EndSplineSet
Validated: 524297
EndChar

StartChar: one
Encoding: 49 49 36
Width: 715
GlyphClass: 2
Flags: W
HStem: 0 96<161.75 309.75 404.75 497.75> 644 96<160.75 309.75>
VStem: 309.75 95<96 644> 497.75 96<96.8744 329.572>
LayerCount: 2
Fore
SplineSet
161.75 739 m 0
 162.75 739 218.75 740 284.75 740 c 2
 404.75 740 l 1
 404.75 418 l 1
 404.75 96 l 1
 451.75 96 l 1
 497.75 96 l 1
 497.75 195 l 2
 497.75 301 497.75 297 500.75 306 c 2
 504.75 314 l 2
 506.75 318 516.75 328 521.75 331 c 0
 526.75 333 533.75 336 540.75 337 c 0
 550.75 338 562.75 335 571.75 330 c 0
 576.75 326 583.75 319 586.75 314 c 0
 589.75 309 591.75 302 592.75 296 c 0
 593.75 293 593.75 260 593.75 166 c 0
 593.75 23 593.75 38 588.75 27 c 0
 583.75 17 576.75 10 566.75 5 c 0
 563.75 4 559.75 2 557.75 1 c 0
 553.75 0 544.75 0 357.75 0 c 2
 161.75 0 l 1
 156.75 2 l 2
 134.75 8 121.75 26 121.75 48 c 0
 121.75 70 134.75 88 156.75 94 c 2
 160.75 95 l 1
 234.75 96 l 1
 309.75 96 l 1
 309.75 370 l 1
 309.75 644 l 1
 234.75 644 l 1
 160.75 644 l 1
 156.75 646 l 2
 142.75 650 130.75 660 125.75 672 c 0
 119.75 684 119.75 699 125.75 712 c 0
 131.75 726 145.75 736 161.75 739 c 0
EndSplineSet
Validated: 524321
EndChar

StartChar: two
Encoding: 50 50 37
Width: 715
GlyphClass: 2
Flags: W
HStem: 0 96<216.875 585.008> 322 96<217.101 497.875> 644 96<160.875 497.508>
VStem: 121.875 95<96 322> 497.875 95<418 644>
CounterMasks: 1 e0
LayerCount: 2
Fore
SplineSet
161.875 739 m 0
 162.875 739 240.875 740 334.875 740 c 0
 516.875 740 508.875 740 521.875 737 c 0
 559.875 727 586.875 696 592.875 656 c 0
 593.875 647 593.875 415 592.875 406 c 0
 589.875 383 579.875 364 563.875 349 c 0
 550.875 337 536.875 329 518.875 324 c 2
 511.875 323 l 1
 364.875 322 l 1
 217.875 322 l 2
 216.875 322 216.875 271 216.875 209 c 2
 216.875 96 l 1
 383.875 96 l 2
 523.875 96 550.875 96 553.875 95 c 0
 576.875 91 592.875 71 592.875 48 c 0
 592.875 25 576.875 5 553.875 1 c 0
 549.875 0 516.875 0 335.875 0 c 2
 121.875 0 l 1
 121.875 167 l 1
 121.875 334 l 1
 122.875 340 l 2
 127.875 361 136.875 377 151.875 391 c 0
 167.875 406 187.875 415 209.875 417 c 0
 214.875 418 266.875 418 357.875 418 c 2
 497.875 418 l 1
 497.875 531 l 1
 497.875 644 l 1
 329.875 644 l 1
 160.875 644 l 1
 156.875 646 l 2
 142.875 650 130.875 660 125.875 672 c 0
 119.875 684 119.875 699 125.875 712 c 0
 131.875 726 145.875 736 161.875 739 c 0
EndSplineSet
Validated: 524321
EndChar

StartChar: three
Encoding: 51 51 38
Width: 715
GlyphClass: 2
Flags: W
HStem: 0 96<160.75 497.75> 322 96<242.25 458.75> 644 96<160.75 497.383>
VStem: 497.75 96<96 314.341 454.143 644>
CounterMasks: 1 e0
LayerCount: 2
Fore
SplineSet
161.75 739 m 0
 162.75 739 240.75 740 334.75 740 c 0
 516.75 740 508.75 740 521.75 737 c 0
 559.75 727 586.75 696 592.75 656 c 0
 593.75 647 593.75 462 592.75 450 c 0
 589.75 423 578.75 397 561.75 377 c 2
 557.75 371 l 2
 556.75 370 558.75 368 560.75 365 c 0
 570.75 354 579.75 337 584.75 323 c 0
 587.75 316 590.75 306 591.75 296 c 2
 593.75 288 l 1
 593.75 186 l 1
 593.75 84 l 1
 591.75 78 l 2
 588.75 61 581.75 47 571.75 35 c 0
 555.75 16 533.75 4 507.75 1 c 0
 503.75 0 454.75 0 331.75 0 c 2
 160.75 0 l 1
 156.75 2 l 1
 134.75 8 121.75 26 121.75 48 c 0
 121.75 70 134.75 87 156.75 94 c 2
 160.75 95 l 1
 329.75 96 l 1
 497.75 96 l 1
 497.75 189 l 2
 497.75 294 497.75 285 492.75 295 c 0
 488.75 305 480.75 313 470.75 317 c 0
 460.75 322 470.75 322 356.75 322 c 0
 241.75 323 252.75 322 241.75 327 c 0
 229.75 333 221.75 344 216.75 357 c 0
 215.75 361 215.75 363 215.75 370 c 0
 215.75 377 215.75 379 216.75 383 c 0
 221.75 397 229.75 407 241.75 413 c 0
 252.75 418 241.75 418 356.75 418 c 2
 458.75 418 l 1
 463.75 420 l 2
 479.75 426 491.75 437 496.75 454 c 0
 497.75 457 497.75 463 497.75 551 c 2
 497.75 644 l 1
 329.75 644 l 1
 160.75 644 l 1
 156.75 646 l 2
 142.75 650 130.75 660 125.75 672 c 0
 119.75 684 119.75 699 125.75 712 c 0
 131.75 726 145.75 736 161.75 739 c 0
EndSplineSet
Validated: 524321
EndChar

StartChar: four
Encoding: 52 52 39
Width: 715
GlyphClass: 2
Flags: W
HStem: 242 95<241.125 427.125 523.125 562.714>
VStem: 145.125 96<337 708.549> 427.125 96<8.03003 241 337 620>
LayerCount: 2
Fore
SplineSet
184.125 739 m 0
 189.125 740 200.125 740 205.125 738 c 0
 210.125 737 219.125 732 223.125 729 c 0
 230.125 723 237.125 714 240.125 704 c 0
 241.125 700 241.125 691 241.125 519 c 2
 241.125 337 l 1
 334.125 337 l 1
 427.125 337 l 1
 427.125 478 l 1
 427.125 620 l 1
 429.125 624 l 2
 434.125 641 447.125 654 464.125 658 c 0
 469.125 659 471.125 659 477.125 659 c 0
 485.125 659 489.125 658 496.125 654 c 0
 508.125 648 517.125 637 521.125 624 c 2
 523.125 620 l 1
 523.125 479 l 1
 523.125 337 l 1
 527.125 337 l 2
 544.125 335 559.125 324 566.125 309 c 0
 571.125 297 571.125 282 566.125 270 c 0
 559.125 254 544.125 244 527.125 242 c 2
 523.125 241 l 1
 523.125 140 l 2
 522.125 27 523.125 38 518.125 27 c 0
 513.125 17 506.125 10 496.125 5 c 0
 484.125 -1 472.125 -2 459.125 3 c 0
 452.125 5 448.125 8 442.125 14 c 0
 435.125 21 433.125 25 430.125 31 c 0
 427.125 40 427.125 36 427.125 143 c 2
 427.125 242 l 1
 286.125 242 l 1
 145.125 242 l 1
 145.125 469 l 2
 145.125 715 145.125 699 148.125 709 c 0
 151.125 715 153.125 719 160.125 725 c 0
 167.125 733 174.125 737 184.125 739 c 0
EndSplineSet
Validated: 524321
EndChar

StartChar: five
Encoding: 53 53 40
Width: 715
GlyphClass: 2
Flags: W
HStem: 0 96<270.835 497.316> 322 96<310.691 497.458> 644 96<310.691 584.824>
VStem: 215.691 95<418 644> 497.691 96<96 322>
CounterMasks: 1 e0
LayerCount: 2
Fore
SplineSet
215.69140625 531 m 1
 215.69140625 740 l 1
 382.69140625 740 l 2
 523.69140625 740 550.69140625 740 553.69140625 739 c 0
 576.69140625 735 592.69140625 715 592.69140625 692 c 0
 592.69140625 669 576.69140625 649 553.69140625 645 c 0
 550.69140625 644 530.69140625 644 430.69140625 644 c 2
 310.69140625 644 l 1
 310.69140625 531 l 1
 310.69140625 418 l 1
 407.69140625 418 l 2
 510.69140625 418 509.69140625 418 521.69140625 415 c 0
 559.69140625 405 588.69140625 373 592.69140625 333 c 0
 593.69140625 328 593.69140625 293 593.69140625 205 c 2
 593.69140625 83 l 1
 591.69140625 77 l 2
 587.69140625 61 581.69140625 47 571.69140625 35 c 0
 558.69140625 19 541.69140625 8 521.69140625 3 c 0
 509.69140625 0 512.69140625 0 389.69140625 0 c 0
 277.69140625 0 273.69140625 0 264.69140625 1 c 0
 254.69140625 2 246.69140625 4 237.69140625 7 c 0
 230.69140625 10 148.69140625 45 144.69140625 47 c 0
 136.69140625 52 129.69140625 60 125.69140625 68 c 0
 119.69140625 81 119.69140625 97 126.69140625 109 c 0
 136.69140625 131 161.69140625 141 183.69140625 134 c 0
 185.69140625 133 205.69140625 125 227.69140625 115 c 0
 248.69140625 106 268.69140625 98 270.69140625 97 c 0
 273.69140625 96 279.69140625 96 385.69140625 96 c 2
 497.69140625 96 l 1
 497.69140625 209 l 1
 497.69140625 322 l 1
 356.69140625 322 l 1
 215.69140625 322 l 1
 215.69140625 531 l 1
EndSplineSet
Validated: 524321
EndChar

StartChar: six
Encoding: 54 54 41
Width: 715
GlyphClass: 2
Flags: W
HStem: 0 96<216.875 497.875> 242 95<216.875 497.875>
VStem: 121.875 95<96 242 337 644> 497.875 96<98.7794 239.221>
LayerCount: 2
Fore
SplineSet
160.875 739 m 0
 166.875 740 218.875 740 224.875 739 c 0
 234.875 737 243.875 732 250.875 725 c 0
 259.875 715 263.875 704 263.875 692 c 0
 263.875 668 245.875 648 222.875 644 c 1
 216.875 644 l 1
 216.875 491 l 1
 216.875 337 l 1
 385.875 337 l 2
 545.875 337 554.875 337 557.875 336 c 0
 563.875 334 571.875 330 575.875 327 c 0
 581.875 322 585.875 317 588.875 311 c 0
 593.875 300 593.875 314 593.875 169 c 0
 593.875 24 593.875 38 588.875 27 c 0
 585.875 20 581.875 15 575.875 11 c 0
 571.875 7 563.875 3 557.875 1 c 0
 554.875 0 544.875 0 360.875 0 c 0
 214.875 0 165.875 0 162.875 1 c 0
 156.875 2 149.875 4 144.875 7 c 0
 140.875 9 130.875 19 127.875 24 c 0
 125.875 28 123.875 34 121.875 40 c 0
 120.875 46 120.875 693 121.875 700 c 0
 124.875 711 127.875 717 135.875 725 c 0
 143.875 733 150.875 737 160.875 739 c 0
497.875 169 m 1
 497.875 242 l 1
 357.875 242 l 1
 216.875 242 l 1
 216.875 169 l 1
 216.875 96 l 1
 357.875 96 l 1
 497.875 96 l 1
 497.875 169 l 1
EndSplineSet
Validated: 524321
EndChar

StartChar: seven
Encoding: 55 55 42
Width: 715
GlyphClass: 2
Flags: W
HStem: 604 135<128.842 209.347> 644 96<216.5 497.5>
VStem: 309.5 95<7.50558 267> 497.5 96<472 644>
LayerCount: 2
Fore
SplineSet
160.5 739 m 0xb0
 163.5 739 204.5 740 378.5 740 c 2
 593.5 740 l 1
 593.5 593 l 2
 593.5 435 593.5 443 590.5 434 c 0
 588.5 428 585.5 423 580.5 418 c 0
 578.5 416 537.5 381 490.5 341 c 2
 404.5 267 l 1
 404.5 153 l 2
 404.5 25 404.5 38 399.5 27 c 0
 394.5 17 387.5 10 378.5 5 c 0
 365.5 -1 353.5 -2 340.5 3 c 0
 333.5 5 329.5 8 323.5 14 c 0
 317.5 21 314.5 25 312.5 31 c 0
 308.5 40 309.5 34 309.5 169 c 0
 309.5 303 308.5 297 312.5 306 c 0
 314.5 312 317.5 316 322.5 322 c 0
 324.5 324 364.5 359 411.5 399 c 2
 497.5 472 l 1
 497.5 558 l 1
 497.5 644 l 1
 356.5 644 l 1
 216.5 644 l 1x70
 215.5 642 l 2
 214.5 638 212.5 631 210.5 628 c 0
 207.5 622 199.5 614 194.5 611 c 0
 185.5 605 173.5 603 163.5 604 c 0
 152.5 606 142.5 610 134.5 619 c 0
 129.5 624 126.5 629 124.5 635 c 0
 121.5 643 121.5 646 121.5 672 c 0
 121.5 697 121.5 701 124.5 709 c 0
 126.5 715 129.5 719 135.5 725 c 0
 143.5 733 150.5 737 160.5 739 c 0xb0
EndSplineSet
Validated: 524321
EndChar

StartChar: eight
Encoding: 56 56 43
Width: 715
GlyphClass: 2
Flags: W
HStem: 0 96<216.5 497.5> 322 96<310.5 403.5> 644 96<310.5 403.343>
VStem: 121.5 95<97 321> 215.5 95<418 642.625> 403.5 95<418 640.336> 497.5 96<96 320.719>
CounterMasks: 1 e0
LayerCount: 2
Fore
SplineSet
254.5 739 m 0xe8
 257.5 739 277.5 740 358.5 740 c 0
 472.5 739 461.5 740 472.5 735 c 0
 481.5 730 488.5 723 493.5 713 c 0
 499.5 702 498.5 718 498.5 559 c 2
 498.5 418 l 1xec
 501.5 418 l 2
 505.5 418 515.5 416 521.5 415 c 0
 555.5 406 582.5 379 590.5 344 c 0
 593.5 332 593.5 332 593.5 205 c 2
 593.5 83 l 1
 591.5 77 l 2
 587.5 61 581.5 47 571.5 35 c 0
 555.5 16 533.5 4 507.5 1 c 0
 503.5 0 460.5 0 353.5 0 c 2
 204.5 0 l 1
 198.5 2 l 2
 175.5 7 157.5 18 142.5 35 c 0
 134.5 46 127.5 59 124.5 72 c 0
 121.5 84 121.5 81 121.5 209 c 0xf2
 121.5 337 121.5 334 124.5 346 c 0
 134.5 386 168.5 415 209.5 418 c 2
 215.5 418 l 1
 215.5 557 l 2
 215.5 707 214.5 699 218.5 709 c 0
 220.5 715 223.5 719 229.5 725 c 0
 237.5 733 244.5 737 254.5 739 c 0xe8
403.5 531 m 1
 403.5 644 l 1
 356.5 644 l 1
 310.5 644 l 1
 310.5 531 l 1
 310.5 418 l 1
 356.5 418 l 1
 403.5 418 l 1
 403.5 531 l 1
497.5 209 m 1xf2
 497.5 322 l 1
 357.5 322 l 1
 216.5 322 l 1
 216.5 209 l 1
 216.5 96 l 1
 357.5 96 l 1
 497.5 96 l 1
 497.5 209 l 1xf2
EndSplineSet
Validated: 524321
EndChar

StartChar: nine
Encoding: 57 57 44
Width: 715
GlyphClass: 2
Flags: W
HStem: 0 21G<508.875 541.375> 0 21G<508.875 541.375> 3 92<458.417 497.875> 402 96<220.438 497.875> 644 96<216.875 497.875>
VStem: 121.875 95<498 644> 497.875 96<96 402 498 644>
LayerCount: 2
Fore
SplineSet
160.875 739 m 0x3e
 163.875 739 199.875 740 359.875 740 c 0
 544.875 739 554.875 739 557.875 738 c 0
 563.875 737 571.875 732 575.875 729 c 0
 583.875 723 589.875 713 592.875 704 c 0
 593.875 700 593.875 686 593.875 370 c 0
 593.875 53 593.875 40 592.875 36 c 0
 591.875 34 589.875 30 588.875 27 c 0
 583.875 17 576.875 10 566.875 5 c 0
 556.875 0 557.875 0 524.875 0 c 0x9e
 492.875 0 489.875 0 481.875 3 c 0
 475.875 5 470.875 8 465.875 13 c 0
 458.875 20 454.875 26 452.875 35 c 0
 448.875 46 450.875 59 455.875 69 c 0
 462.875 83 476.875 93 492.875 95 c 2
 497.875 96 l 1
 497.875 249 l 1
 497.875 402 l 1
 331.875 402 l 2
 151.875 402 161.875 402 152.875 406 c 0
 145.875 408 141.875 411 135.875 417 c 0
 127.875 425 124.875 431 121.875 442 c 0
 120.875 449 120.875 693 121.875 700 c 0
 124.875 711 127.875 717 135.875 725 c 0
 143.875 733 150.875 737 160.875 739 c 0x3e
497.875 571 m 1
 497.875 644 l 1
 357.875 644 l 1
 216.875 644 l 1
 216.875 571 l 1
 216.875 498 l 1
 357.875 498 l 1
 497.875 498 l 1
 497.875 571 l 1
EndSplineSet
Validated: 524321
EndChar

StartChar: colon
Encoding: 58 58 45
Width: 715
GlyphClass: 2
Flags: W
HStem: 121 176<270.721 444.352> 443 176<270.721 425.87>
VStem: 263.375 189<128.231 288.957 450.506 611.401>
LayerCount: 2
Fore
SplineSet
302.375 296 m 0
 305.375 297 317.375 297 359.375 297 c 0
 420.375 297 415.375 297 426.375 292 c 0
 435.375 287 442.375 280 447.375 270 c 0
 452.375 260 452.375 263 452.375 209 c 0
 452.375 154 452.375 158 447.375 147 c 0
 442.375 137 435.375 130 426.375 126 c 0
 415.375 121 419.375 121 360.375 121 c 0
 304.375 120 303.375 120 294.375 123 c 0
 287.375 126 283.375 129 277.375 135 c 0
 269.375 143 265.375 150 263.375 160 c 0
 262.375 167 262.375 251 263.375 257 c 0
 265.375 268 269.375 275 277.375 283 c 0
 285.375 290 292.375 294 302.375 296 c 0
302.375 618 m 0
 305.375 619 317.375 619 359.375 619 c 0
 420.375 619 415.375 619 426.375 614 c 0
 435.375 609 442.375 602 447.375 592 c 0
 452.375 582 452.375 585 452.375 531 c 0
 452.375 477 452.375 480 447.375 470 c 0
 442.375 460 435.375 453 426.375 448 c 0
 415.375 443 419.375 443 360.375 443 c 0
 304.375 443 303.375 443 294.375 446 c 0
 287.375 448 283.375 451 277.375 457 c 0
 269.375 465 265.375 472 263.375 482 c 0
 262.375 489 262.375 573 263.375 580 c 0
 265.375 590 269.375 597 277.375 605 c 0
 285.375 613 292.375 616 302.375 618 c 0
EndSplineSet
Validated: 524321
EndChar

StartChar: semicolon
Encoding: 59 59 46
Width: 715
GlyphClass: 2
Flags: W
HStem: 242 95<223.943 404.187> 483 176<224.224 378.839>
VStem: 216.344 189<490.76 650.957> 404.344 95<7.50558 239.221>
LayerCount: 2
Fore
SplineSet
257.34375 337 m 2xd0
 359.34375 337 l 2
 473.34375 337 462.34375 337 473.34375 332 c 0
 482.34375 327 489.34375 320 494.34375 311 c 0
 500.34375 300 499.34375 314 499.34375 169 c 0
 499.34375 24 500.34375 38 494.34375 27 c 0
 489.34375 17 482.34375 10 473.34375 5 c 0
 460.34375 -1 448.34375 -2 435.34375 3 c 0
 428.34375 5 424.34375 8 418.34375 14 c 0
 412.34375 21 409.34375 25 407.34375 31 c 0
 403.34375 40 404.34375 36 404.34375 143 c 2
 404.34375 242 l 1
 329.34375 242 l 2
 246.34375 242 253.34375 242 242.34375 247 c 0
 230.34375 253 222.34375 263 217.34375 277 c 0
 215.34375 283 215.34375 296 217.34375 302 c 0
 219.34375 308 223.34375 315 226.34375 319 c 0
 233.34375 328 246.34375 335 257.34375 337 c 2xd0
255.34375 658 m 0
 258.34375 659 270.34375 659 312.34375 659 c 0
 373.34375 659 368.34375 659 379.34375 654 c 0
 388.34375 649 395.34375 642 400.34375 632 c 0
 405.34375 622 405.34375 625 405.34375 571 c 0
 405.34375 517 405.34375 520 400.34375 510 c 0
 395.34375 500 388.34375 493 379.34375 488 c 0
 368.34375 483 372.34375 484 313.34375 483 c 0
 257.34375 483 256.34375 483 247.34375 486 c 0
 240.34375 489 236.34375 491 230.34375 498 c 0
 222.34375 506 218.34375 512 216.34375 523 c 0
 215.34375 529 215.34375 613 216.34375 619 c 0xe0
 218.34375 630 222.34375 637 230.34375 645 c 0
 238.34375 652 245.34375 656 255.34375 658 c 0
EndSplineSet
Validated: 524321
EndChar

StartChar: less
Encoding: 60 60 47
Width: 715
GlyphClass: 2
Flags: W
LayerCount: 2
Fore
SplineSet
536.375 658 m 0
 538.375 659 542.375 659 546.375 659 c 0
 554.375 659 560.375 658 567.375 654 c 0
 572.375 651 574.375 650 579.375 645 c 0
 585.375 640 586.375 638 588.375 633 c 0
 592.375 625 593.375 619 593.375 611 c 0
 593.375 596 586.375 582 574.375 573 c 0
 572.375 571 494.375 525 400.375 470 c 2
 230.375 370 l 1
 400.375 270 l 2
 494.375 215 572.375 168 574.375 167 c 0
 586.375 158 593.375 144 593.375 129 c 0
 593.375 120 592.375 115 588.375 107 c 0
 586.375 102 585.375 100 579.375 95 c 0
 574.375 90 572.375 88 567.375 86 c 0
 559.375 82 553.375 80 544.375 81 c 0
 535.375 81 531.375 82 523.375 86 c 0
 518.375 89 149.375 306 143.375 310 c 0
 139.375 313 131.375 321 128.375 325 c 0
 126.375 330 124.375 336 122.375 341 c 0
 121.375 348 121.375 392 122.375 398 c 0
 124.375 404 126.375 410 128.375 414 c 0
 131.375 419 139.375 427 143.375 430 c 0
 148.375 433 517.375 650 523.375 653 c 0
 527.375 656 531.375 657 536.375 658 c 0
EndSplineSet
Validated: 524321
EndChar

StartChar: equal
Encoding: 61 61 48
Width: 715
GlyphClass: 2
Flags: W
HStem: 242 95<129.294 585.579> 443 95<130.453 585.579>
LayerCount: 2
Fore
SplineSet
162.12109375 337 m 2
 357.12109375 337 l 2
 566.12109375 337 554.12109375 338 563.12109375 334 c 0
 574.12109375 330 584.12109375 321 589.12109375 310 c 0
 602.12109375 281 584.12109375 247 553.12109375 242 c 1
 355.12109375 242 l 1
 161.12109375 242 l 1
 157.12109375 243 l 2
 143.12109375 248 131.12109375 257 126.12109375 270 c 0
 120.12109375 282 120.12109375 297 126.12109375 309 c 0
 132.12109375 324 146.12109375 334 162.12109375 337 c 2
162.12109375 538 m 2
 357.12109375 538 l 2
 566.12109375 539 554.12109375 539 563.12109375 535 c 0
 574.12109375 531 584.12109375 522 589.12109375 511 c 0
 602.12109375 482 584.12109375 448 553.12109375 443 c 1
 355.12109375 443 l 1
 161.12109375 443 l 1
 157.12109375 444 l 2
 143.12109375 449 131.12109375 458 126.12109375 471 c 0
 119.12109375 486 120.12109375 504 130.12109375 517 c 0
 137.12109375 528 149.12109375 536 162.12109375 538 c 2
EndSplineSet
Validated: 524321
Substitution2: "Single Subsitution Lookup 1-1" equal_equal.liga
EndChar

StartChar: greater
Encoding: 62 62 49
Width: 715
GlyphClass: 2
Flags: W
LayerCount: 2
Fore
SplineSet
159.751953125 658 m 0
 161.751953125 659 165.751953125 659 168.751953125 659 c 0
 176.751953125 659 182.751953125 658 188.751953125 655 c 0
 191.751953125 653 557.751953125 438 569.751953125 431 c 0
 575.751953125 428 583.751953125 420 586.751953125 414 c 0
 589.751953125 410 591.751953125 404 592.751953125 398 c 0
 593.751953125 392 593.751953125 348 592.751953125 341 c 0
 591.751953125 336 589.751953125 330 586.751953125 325 c 0
 583.751953125 320 575.751953125 312 569.751953125 309 c 0
 557.751953125 301 191.751953125 86 188.751953125 85 c 0
 181.751953125 82 175.751953125 81 166.751953125 81 c 0
 153.751953125 81 144.751953125 85 135.751953125 95 c 0
 129.751953125 100 128.751953125 102 126.751953125 107 c 0
 122.751953125 115 120.751953125 121 121.751953125 130 c 0
 121.751953125 137 121.751953125 139 123.751953125 143 c 0
 126.751953125 154 133.751953125 162 142.751953125 168 c 0
 144.751953125 170 223.751953125 216 316.751953125 270 c 2
 484.751953125 370 l 1
 316.751953125 469 l 2
 223.751953125 524 144.751953125 570 142.751953125 572 c 0
 133.751953125 578 126.751953125 586 123.751953125 596 c 0
 121.751953125 601 121.751953125 603 121.751953125 609 c 0
 120.751953125 619 122.751953125 625 126.751953125 633 c 0
 128.751953125 638 129.751953125 640 135.751953125 645 c 0
 139.751953125 650 142.751953125 652 146.751953125 653 c 0
 151.751953125 656 155.751953125 658 159.751953125 658 c 0
EndSplineSet
Validated: 524321
EndChar

StartChar: question
Encoding: 63 63 50
Width: 715
GlyphClass: 2
Flags: W
HStem: 1 93<222.718 303.589>
VStem: 215.5 95<7.78242 88.3662 169.227 267> 497.5 96<553 607.771>
LayerCount: 2
Fore
SplineSet
215.5 48 m 0
 215.5 78.9995861968 242.247575977 102.313106006 275.5 94 c 0
 297.949854658 88.7176812569 314.840810712 68.0448642709 309.5 36 c 0
 303.3718271 13.9385775616 284.093913033 -5.51878260665 251.5 1 c 0
 231.297194881 7.73426837308 215.5 23.0998500219 215.5 48 c 0
421.5 729 m 0
 435.989745024 741.07478752 459.837917381 743.774721746 477.5 732 c 0
 481.5 729 571.5 653 578.5 646 c 0
 586.378646331 638.121353669 589.451181195 629.122047013 593.5 619 c 1
 593.5 587 593.5 555 593.5 523 c 1
 590.417724135 515.294310339 588.31035997 506.81035997 582.5 501 c 0
 580.5 499 532.5 457 445.5 382 c 2
 310.5 267 l 1
 310.5 236 l 2
 310.5 203 310.5 200 307.5 192 c 0
 302.438101704 176.814305113 287.01062911 165.001932565 270.5 162 c 0
 245.5 157 220.5 175 215.5 200 c 0
 214.5 207 214.5 291 215.5 298 c 0
 217.5 308 221.5 315 229.5 323 c 0
 232.5 326 293.5 379 366.5 440 c 1
 497.5 553 l 1
 497.5 565 497.5 577 497.5 589 c 1
 486.72323137 599.22323137 474.956570668 608.456570668 463.5 618 c 2
 451.5 629 l 1
 324.5 521 l 2
 254.5 461 196.5 411 194.5 410 c 0
 159.795113961 387.689716118 121.5 418.409413691 121.5 450 c 0
 121.5 464 126.5 475 136.5 485 c 0
 139.5 488 413.5 723 421.5 729 c 0
EndSplineSet
Validated: 524321
EndChar

StartChar: at
Encoding: 64 64 51
Width: 715
GlyphClass: 2
Flags: W
HStem: 1 95<412.01 490.852> 362 96<224.133 309.627> 644 95<238.351 475.846>
VStem: 121.627 96<133 328> 308.627 96<133 362> 497.627 96<133 595>
LayerCount: 2
Fore
SplineSet
277.626953125 739 m 0
 278.626953125 739 315.626953125 740 359.626953125 739 c 0
 440.626953125 739 440.626953125 739 448.626953125 738 c 0
 486.626953125 732 517.626953125 716 543.626953125 690 c 0
 553.626953125 680 561.626953125 671 567.626953125 660 c 0
 580.626953125 640 587.626953125 620 591.626953125 595 c 2
 593.626953125 588 l 1
 593.626953125 361 l 2
 593.626953125 138 593.626953125 134 592.626953125 125 c 0
 588.626953125 92 573.626953125 63 549.626953125 40 c 0
 528.626953125 19 501.626953125 6 471.626953125 1 c 0
 461.626953125 0 441.626953125 0 431.626953125 1 c 0
 406.626953125 5 382.626953125 15 364.626953125 30 c 0
 361.626953125 32 358.626953125 34 357.626953125 35 c 2
 357.626953125 35 356.626953125 35 351.626953125 31 c 0
 332.626953125 16 308.626953125 5 283.626953125 1 c 0
 273.626953125 0 252.626953125 0 242.626953125 1 c 0
 212.626953125 6 186.626953125 19 164.626953125 40 c 0
 141.626953125 63 126.626953125 92 122.626953125 125 c 0
 121.626953125 133 121.626953125 138 121.626953125 229 c 0
 121.626953125 320 121.626953125 324 122.626953125 333 c 0
 126.626953125 365 139.626953125 392 161.626953125 415 c 0
 183.626953125 437 211.626953125 451 242.626953125 456 c 0
 249.626953125 457 254.626953125 458 307.626953125 458 c 2
 366.626953125 458 l 1
 371.626953125 456 l 2
 386.626953125 450 398.626953125 439 403.626953125 423 c 2
 404.626953125 418 l 1
 404.626953125 276 l 1
 405.626953125 133 l 1
 407.626953125 128 l 2
 409.626953125 121 411.626953125 118 415.626953125 113 c 0
 419.626953125 108 424.626953125 104 431.626953125 101 c 0
 438.626953125 97 442.626953125 96 451.626953125 96 c 0
 459.626953125 96 464.626953125 97 471.626953125 101 c 0
 483.626953125 106 490.626953125 115 495.626953125 128 c 2
 497.626953125 133 l 1
 497.626953125 354 l 1
 497.626953125 580 l 1
 493.626953125 607 474.626953125 631 448.626953125 640 c 0
 436.626953125 644 442.626953125 644 360.626953125 644 c 0
 309.626953125 644 284.626953125 644 281.626953125 643 c 0
 256.626953125 640 228.626953125 620 213.626953125 594 c 0
 209.626953125 586 205.626953125 580 202.626953125 577 c 0
 196.626953125 571 186.626953125 566 178.626953125 564 c 0
 173.626953125 563 163.626953125 563 158.626953125 565 c 0
 141.626953125 569 128.626953125 580 123.626953125 596 c 0
 121.626953125 601 121.626953125 603 121.626953125 609 c 0
 120.626953125 619 122.626953125 625 126.626953125 634 c 0
 131.626953125 642 141.626953125 658 148.626953125 667 c 0
 155.626953125 676 173.626953125 694 181.626953125 700 c 0
 211.626953125 723 241.626953125 735 277.626953125 739 c 0
308.626953125 248 m 1
 309.626953125 362 l 1
 283.626953125 362 l 2
 269.626953125 362 256.626953125 362 255.626953125 361 c 0
 253.626953125 361 250.626953125 360 247.626953125 359 c 0
 233.626953125 354 223.626953125 344 218.626953125 328 c 2
 217.626953125 324 l 1
 217.626953125 229 l 1
 217.626953125 133 l 1
 219.626953125 128 l 2
 224.626953125 114 233.626953125 104 246.626953125 99 c 0
 262.626953125 93 278.626953125 96 291.626953125 106 c 0
 298.626953125 112 304.626953125 119 307.626953125 129 c 2
 308.626953125 133 l 1
 308.626953125 248 l 1
EndSplineSet
Validated: 524321
EndChar

StartChar: A
Encoding: 65 65 52
Width: 715
GlyphClass: 2
Flags: W
HStem: 161 96<280.25 435.25>
VStem: 123.25 90<8.0015 96.1844> 501.25 92<8.06857 101.776>
LayerCount: 2
Fore
SplineSet
349.25 739 m 0
 354.25 740 364.25 740 370.25 738 c 0
 372.25 738 376.25 736 379.25 735 c 0
 388.25 730 396.25 723 400.25 713 c 0
 402.25 708 420.25 650 497.25 384 c 0
 549.25 206 592.25 59 593.25 57 c 2
 593.25 48 l 2
 593.25 16 563.25 -7 533.25 2 c 0
 519.25 6 506.25 17 501.25 31 c 0
 500.25 33 491.25 64 481.25 98 c 2
 463.25 161 l 1
 357.25 161 l 1
 252.25 161 l 1
 233.25 97 l 2
 223.25 62 214.25 31 213.25 30 c 0
 210.25 21 203.25 13 195.25 8 c 0
 168.25 -10 131.25 5 123.25 37 c 0
 121.25 43 121.25 53 123.25 59 c 0
 125.25 67 311.25 704 313.25 709 c 0
 315.25 715 318.25 719 324.25 725 c 0
 332.25 733 338.25 737 349.25 739 c 0
396.25 388 m 1
 358.25 520 l 2
 358.25 521 340.25 462 319.25 389 c 2
 280.25 257 l 1
 319.25 257 l 1
 396.25 257 l 1
 435.25 257 l 1
 396.25 388 l 1
EndSplineSet
Validated: 524321
EndChar

StartChar: B
Encoding: 66 66 53
Width: 715
GlyphClass: 2
Flags: W
HStem: 0 96<216.5 462.74> 322 96<216.5 420.5> 644 96<216.5 420.5>
VStem: 121.5 95<96 322 418 644> 497.5 96<130.607 286.649 452.867 608.133>
CounterMasks: 1 e0
LayerCount: 2
Fore
SplineSet
121.5 370 m 1
 121.5 740 l 1
 270.5 740 l 1
 419.5 739 l 1
 428.5 738 l 2
 472.5 731 507.5 713 537.5 683 c 0
 547.5 673 553.5 665 562.5 653 c 0
 579.5 627 589.5 599 592.5 567 c 0
 593.5 555 593.5 507 592.5 495 c 0
 587.5 450 568.5 410 537.5 379 c 2
 528.5 370 l 1
 537.5 361 l 2
 547.5 351 554.5 344 562.5 331 c 0
 577.5 308 587.5 282 591.5 252 c 0
 593.5 243 593.5 241 593.5 209 c 0
 593.5 177 593.5 175 591.5 166 c 0
 586.5 130 573.5 99 551.5 72 c 0
 544.5 64 529.5 49 521.5 42 c 0
 496.5 22 466.5 9 435.5 3 c 0
 418.5 0 422.5 0 266.5 0 c 2
 121.5 0 l 1
 121.5 370 l 1
420.5 642 m 2
 413.5 644 l 1
 315.5 644 l 1
 216.5 644 l 1
 216.5 531 l 1
 216.5 418 l 1
 315.5 418 l 1
 413.5 418 l 1
 420.5 420 l 2
 457.5 428 485.5 454 494.5 490 c 0
 497.5 501 497.5 508 497.5 535 c 0
 497.5 558 497.5 560 495.5 566 c 0
 489.5 596 471.5 620 444.5 634 c 0
 436.5 638 429.5 640 420.5 642 c 2
420.5 321 m 2
 413.5 322 l 1
 315.5 322 l 1
 216.5 322 l 1
 216.5 209 l 1
 216.5 96 l 1
 315.5 96 l 1
 413.5 96 l 1
 420.5 97 l 2
 450.5 104 474.5 122 487.5 148 c 0
 491.5 157 494.5 164 495.5 174 c 0
 497.5 180 497.5 182 497.5 209 c 0
 497.5 236 497.5 238 495.5 244 c 0
 489.5 275 471.5 299 444.5 312 c 0
 436.5 316 429.5 319 420.5 321 c 2
EndSplineSet
Validated: 524321
EndChar

StartChar: C
Encoding: 67 67 54
Width: 715
GlyphClass: 2
Flags: W
HStem: 1 95<357.064 585.008> 644 96<357.064 585.008>
LayerCount: 2
Fore
SplineSet
350.875 739 m 0
 358.875 740 365.875 740 454.875 740 c 0
 533.875 740 550.875 740 553.875 739 c 0
 576.875 735 592.875 715 592.875 692 c 0
 592.875 673 581.875 655 563.875 648 c 0
 554.875 644 562.875 644 456.875 644 c 0
 366.875 644 360.875 644 356.875 643 c 0
 347.875 640 337.875 633 331.875 626 c 0
 329.875 623 322.875 609 301.875 567 c 0
 267.875 500 228.875 422 225.875 415 c 0
 222.875 409 219.875 397 218.875 389 c 0
 216.875 380 216.875 360 218.875 351 c 0
 219.875 343 222.875 331 225.875 325 c 0
 228.875 318 267.875 239 301.875 172 c 0
 322.875 131 329.875 117 331.875 114 c 0
 337.875 107 347.875 100 356.875 97 c 0
 360.875 96 366.875 96 456.875 96 c 0
 562.875 95 554.875 96 563.875 92 c 0
 581.875 85 592.875 67 592.875 48 c 0
 592.875 25 576.875 5 553.875 1 c 0
 546.875 0 364.875 0 353.875 1 c 0
 309.875 6 270.875 31 246.875 69 c 0
 242.875 75 143.875 274 138.875 285 c 0
 130.875 303 125.875 323 122.875 345 c 0
 121.875 357 121.875 383 122.875 395 c 0
 125.875 417 130.875 436 138.875 455 c 0
 143.875 466 242.875 664 246.875 671 c 0
 269.875 708 307.875 733 350.875 739 c 0
EndSplineSet
Validated: 524321
EndChar

StartChar: D
Encoding: 68 68 55
Width: 715
GlyphClass: 2
Flags: W
HStem: 0 96<160.75 215.75 310.75 385.012> 644 95<129.268 215.75 310.75 382.466>
VStem: 215.75 95<96 644> 497.75 96<297.825 442.175>
LayerCount: 2
Fore
SplineSet
161.75 739 m 0
 162.75 739 206.75 740 258.75 740 c 0
 339.75 740 353.75 740 360.75 739 c 0
 404.75 734 444.75 709 467.75 671 c 0
 468.75 668 493.75 620 522.75 563 c 0
 580.75 448 581.75 446 587.75 422 c 0
 591.75 404 593.75 391 593.75 370 c 0
 593.75 349 591.75 336 587.75 318 c 0
 581.75 294 580.75 292 522.75 177 c 0
 493.75 120 468.75 71 466.75 68 c 0
 459.75 55 446.75 42 435.75 32 c 0
 414.75 15 389.75 5 362.75 1 c 0
 353.75 0 349.75 0 256.75 0 c 2
 160.75 0 l 1
 156.75 2 l 1
 134.75 8 121.75 26 121.75 48 c 0
 121.75 70 134.75 88 156.75 94 c 0
 160.75 95 161.75 95 187.75 96 c 2
 215.75 96 l 1
 215.75 370 l 1
 215.75 644 l 1
 187.75 644 l 2
 161.75 644 160.75 644 156.75 646 c 0
 142.75 650 130.75 660 125.75 672 c 0
 119.75 684 119.75 699 125.75 712 c 0
 131.75 726 145.75 736 161.75 739 c 0
356.75 643 m 0
 353.75 643 349.75 644 332.75 644 c 2
 310.75 644 l 1
 310.75 370 l 1
 310.75 96 l 1
 332.75 96 l 2
 355.75 96 356.75 96 365.75 101 c 0
 371.75 104 378.75 109 382.75 114 c 0
 385.75 118 391.75 130 465.75 277 c 0
 485.75 316 488.75 324 491.75 331 c 0
 494.75 342 496.75 349 497.75 361 c 0
 498.75 377 496.75 392 491.75 409 c 0
 488.75 416 485.75 424 465.75 463 c 0
 391.75 610 385.75 622 382.75 626 c 0
 376.75 633 366.75 640 356.75 643 c 0
EndSplineSet
Validated: 524321
EndChar

StartChar: E
Encoding: 69 69 56
Width: 715
GlyphClass: 2
Flags: W
HStem: 0 96<217 585.133> 322 96<217 378.497> 644 96<217 585.133>
VStem: 122 95<96 322 418 644>
CounterMasks: 1 e0
LayerCount: 2
Fore
SplineSet
122 370 m 1
 122 740 l 1
 336 740 l 2
 517 740 550 740 554 739 c 0
 577 735 593 715 593 692 c 0
 593 669 577 649 554 645 c 0
 551 644 524 644 384 644 c 2
 217 644 l 1
 217 531 l 1
 217 418 l 1
 292 418 l 2
 375 418 368 418 379 413 c 0
 388 408 395 401 400 391 c 0
 404 383 405 379 405 370 c 0
 405 361 404 357 400 349 c 0
 395 339 388 332 379 327 c 0
 368 322 375 323 292 322 c 2
 217 322 l 1
 217 209 l 1
 217 96 l 1
 384 96 l 2
 524 96 551 96 554 95 c 0
 577 91 593 71 593 48 c 0
 593 25 577 5 554 1 c 0
 550 0 517 0 336 0 c 2
 122 0 l 1
 122 370 l 1
EndSplineSet
Validated: 1
EndChar

StartChar: F
Encoding: 70 70 57
Width: 715
GlyphClass: 2
Flags: W
HStem: 403 95<217.056 464.056> 644 96<217.056 585.188>
VStem: 122.056 95<135.55 402 498 644>
LayerCount: 2
Fore
SplineSet
122.055664062 392 m 2
 122.055664062 740 l 1
 336.055664062 740 l 2
 517.055664062 740 550.055664062 740 554.055664062 739 c 0
 577.055664062 735 593.055664062 715 593.055664062 692 c 0
 593.055664062 669 577.055664062 649 554.055664062 645 c 0
 551.055664062 644 524.055664062 644 384.055664062 644 c 2
 217.055664062 644 l 1
 217.055664062 571 l 1
 217.055664062 498 l 1
 339.055664062 498 l 1
 460.055664062 498 l 1
 464.055664062 497 l 2
 480.055664062 492 492.055664062 481 497.055664062 465 c 0
 499.055664062 460 499.055664062 459 499.055664062 450 c 0
 499.055664062 442 499.055664062 441 497.055664062 436 c 0
 492.055664062 420 480.055664062 409 464.055664062 404 c 2
 460.055664062 403 l 1
 339.055664062 403 l 1
 217.055664062 402 l 1
 217.055664062 221 l 2
 217.055664062 48 217.055664062 39 216.055664062 36 c 0
 214.055664062 30 210.055664062 22 207.055664062 18 c 0
 202.055664062 12 197.055664062 8 191.055664062 5 c 0
 178.055664062 -1 166.055664062 -2 153.055664062 3 c 0
 147.055664062 5 142.055664062 8 136.055664062 14 c 0
 130.055664062 21 127.055664062 25 125.055664062 31 c 0
 121.055664062 41 122.055664062 15 122.055664062 392 c 2
EndSplineSet
Validated: 524321
EndChar

StartChar: G
Encoding: 71 71 58
Width: 715
GlyphClass: 2
Flags: W
HStem: 0 96<245.205 489.753> 242 95<364.163 497.75> 644 96<383.207 584.883>
VStem: 122.75 95<103.843 419> 497.75 96<103.703 242>
LayerCount: 2
Fore
SplineSet
385.75 739 m 0
 393.75 740 400.75 740 471.75 740 c 0
 536.75 740 550.75 740 553.75 739 c 0
 576.75 735 592.75 715 592.75 692 c 0
 592.75 673 581.75 655 563.75 648 c 0
 554.75 644 560.75 644 474.75 644 c 0
 385.75 644 392.75 644 382.75 639 c 0
 371.75 634 374.75 637 302.75 544 c 0
 266.75 498 235.75 457 233.75 455 c 0
 226.75 445 221.75 433 218.75 419 c 2
 217.75 413 l 1
 217.75 274 l 2
 217.75 142 217.75 136 218.75 132 c 0
 222.75 118 231.75 107 244.75 101 c 0
 254.75 96 244.75 96 357.75 96 c 0
 469.75 96 460.75 96 470.75 101 c 0
 480.75 105 488.75 113 492.75 123 c 0
 497.75 133 497.75 129 497.75 188 c 2
 497.75 242 l 1
 448.75 242 l 2
 396.75 242 395.75 242 387.75 245 c 0
 380.75 247 376.75 250 370.75 256 c 0
 364.75 262 361.75 266 359.75 274 c 0
 355.75 284 355.75 294 358.75 305 c 0
 361.75 313 364.75 316 370.75 323 c 0
 376.75 329 380.75 332 387.75 334 c 0
 396.75 337 392.75 337 496.75 337 c 2
 593.75 337 l 1
 593.75 236 l 2
 593.75 140 593.75 135 592.75 126 c 0
 590.75 110 585.75 96 578.75 80 c 0
 557.75 37 515.75 7 467.75 1 c 0
 458.75 0 453.75 0 357.75 0 c 0
 248.75 0 249.75 0 234.75 3 c 0
 219.75 7 202.75 13 189.75 21 c 0
 152.75 45 127.75 84 122.75 128 c 0
 120.75 140 120.75 406 122.75 419 c 0
 125.75 451 136.75 482 153.75 507 c 2
 225.75 602 l 2
 273.75 662 295.75 691 300.75 695 c 0
 323.75 719 352.75 734 385.75 739 c 0
EndSplineSet
Validated: 524321
EndChar

StartChar: H
Encoding: 72 72 59
Width: 715
GlyphClass: 2
Flags: W
HStem: 322 96<216.875 497.875>
VStem: 121.875 95<7.50558 322 418 731.913> 497.875 95<31.4108 322 418 708.544>
LayerCount: 2
Fore
SplineSet
160.875 739 m 0
 165.875 740 176.875 740 181.875 738 c 0
 183.875 738 187.875 736 190.875 735 c 0
 199.875 730 207.875 723 211.875 713 c 0
 217.875 702 216.875 718 216.875 559 c 2
 216.875 418 l 1
 357.875 418 l 1
 497.875 418 l 1
 497.875 557 l 2
 497.875 707 497.875 699 500.875 709 c 0
 503.875 715 505.875 719 512.875 725 c 0
 518.875 732 522.875 734 529.875 737 c 0
 542.875 741 554.875 741 566.875 735 c 0
 576.875 730 583.875 723 588.875 713 c 0
 589.875 710 591.875 706 592.875 704 c 0
 593.875 700 593.875 686 593.875 370 c 0
 593.875 53 593.875 40 592.875 36 c 0
 591.875 34 589.875 30 588.875 27 c 0
 583.875 17 576.875 10 566.875 5 c 0
 554.875 -1 542.875 -2 529.875 3 c 0
 522.875 5 518.875 8 512.875 14 c 0
 505.875 21 503.875 25 500.875 31 c 0
 497.875 40 497.875 33 497.875 183 c 2
 497.875 322 l 1
 357.875 322 l 1
 216.875 322 l 1
 216.875 181 l 2
 216.875 22 217.875 38 211.875 27 c 0
 207.875 17 199.875 10 190.875 5 c 0
 177.875 -1 165.875 -2 152.875 3 c 0
 146.875 5 141.875 8 135.875 14 c 0
 127.875 22 124.875 29 121.875 40 c 0
 120.875 46 120.875 693 121.875 700 c 0
 124.875 711 127.875 717 135.875 725 c 0
 143.875 733 149.875 737 160.875 739 c 0
EndSplineSet
Validated: 524321
EndChar

StartChar: I
Encoding: 73 73 60
Width: 715
GlyphClass: 2
Flags: W
HStem: 0 96<161.114 310.114 405.114 585.482> 644 96<161.114 310.114 405.114 585.247>
VStem: 310.114 95<96 644>
LayerCount: 2
Fore
SplineSet
162.114257812 739 m 0
 163.114257812 739 251.114257812 740 357.114257812 740 c 0
 521.114257812 740 550.114257812 740 554.114257812 739 c 0
 577.114257812 735 593.114257812 715 593.114257812 692 c 0
 593.114257812 669 577.114257812 649 554.114257812 645 c 0
 551.114257812 644 537.114257812 644 478.114257812 644 c 2
 405.114257812 644 l 1
 405.114257812 370 l 1
 405.114257812 96 l 1
 478.114257812 96 l 2
 556.114257812 96 554.114257812 96 563.114257812 93 c 0
 574.114257812 88 584.114257812 79 589.114257812 68 c 0
 602.114257812 39 584.114257812 5 553.114257812 1 c 0
 550.114257812 0 500.114257812 0 355.114257812 0 c 2
 161.114257812 0 l 1
 157.114257812 2 l 1
 135.114257812 8 122.114257812 26 122.114257812 48 c 0
 122.114257812 70 135.114257812 88 157.114257812 94 c 2
 161.114257812 95 l 1
 235.114257812 96 l 1
 310.114257812 96 l 1
 310.114257812 370 l 1
 310.114257812 644 l 1
 235.114257812 644 l 1
 161.114257812 644 l 1
 157.114257812 646 l 2
 143.114257812 650 131.114257812 660 126.114257812 672 c 0
 120.114257812 684 120.114257812 699 126.114257812 712 c 0
 132.114257812 726 146.114257812 736 162.114257812 739 c 0
EndSplineSet
Validated: 524321
EndChar

StartChar: J
Encoding: 74 74 61
Width: 715
GlyphClass: 2
Flags: W
HStem: 1 95<300.328 440.947>
VStem: 170.328 94<123.457 306.589> 449.328 96<103.217 730.859>
LayerCount: 2
Fore
SplineSet
490.328125 739 m 0
 495.328125 740 505.328125 740 510.328125 738 c 0
 516.328125 737 524.328125 732 529.328125 729 c 0
 536.328125 723 542.328125 714 545.328125 704 c 0
 546.328125 700 546.328125 688 546.328125 418 c 0
 546.328125 140 546.328125 136 545.328125 127 c 0
 544.328125 116 541.328125 104 538.328125 95 c 0
 519.328125 43 473.328125 7 418.328125 1 c 0
 407.328125 0 308.328125 0 297.328125 1 c 0
 230.328125 9 177.328125 61 170.328125 128 c 0
 168.328125 139 168.328125 291 169.328125 298 c 0
 171.328125 303 173.328125 309 175.328125 314 c 0
 178.328125 318 188.328125 328 192.328125 331 c 0
 197.328125 333 205.328125 336 211.328125 337 c 0
 221.328125 338 233.328125 335 242.328125 330 c 0
 250.328125 325 258.328125 315 261.328125 307 c 0
 264.328125 298 264.328125 304 264.328125 216 c 0
 265.328125 126 264.328125 133 269.328125 123 c 0
 275.328125 111 286.328125 101 300.328125 97 c 2
 304.328125 96 l 1
 357.328125 96 l 2
 417.328125 96 413.328125 96 423.328125 101 c 0
 436.328125 107 445.328125 118 449.328125 132 c 0
 450.328125 135 450.328125 148 451.328125 417 c 0
 451.328125 679 451.328125 700 452.328125 703 c 0
 455.328125 714 459.328125 720 466.328125 727 c 0
 473.328125 733 480.328125 737 490.328125 739 c 0
EndSplineSet
Validated: 524321
EndChar

StartChar: K
Encoding: 75 75 62
Width: 715
GlyphClass: 2
Flags: W
VStem: 122.018 95<7.50558 265 474 731.913>
LayerCount: 2
Fore
SplineSet
161.017578125 739 m 0
 166.017578125 740 177.017578125 740 182.017578125 738 c 0
 184.017578125 738 188.017578125 736 191.017578125 735 c 0
 200.017578125 730 207.017578125 723 212.017578125 713 c 0
 218.017578125 702 217.017578125 714 217.017578125 587 c 2
 218.017578125 474 l 1
 366.017578125 601 l 2
 447.017578125 671 516.017578125 729 518.017578125 730 c 0
 531.017578125 740 547.017578125 742 562.017578125 737 c 0
 574.017578125 732 584.017578125 723 589.017578125 712 c 0
 598.017578125 693 594.017578125 671 578.017578125 657 c 0
 577.017578125 655 500.017578125 590 409.017578125 512 c 2
 243.017578125 370 l 1
 409.017578125 228 l 2
 500.017578125 150 577.017578125 84 578.017578125 83 c 0
 588.017578125 73 593.017578125 61 593.017578125 48 c 0
 593.017578125 34 588.017578125 22 578.017578125 13 c 0
 561.017578125 -3 537.017578125 -4 518.017578125 9 c 0
 516.017578125 11 447.017578125 69 366.017578125 139 c 2
 218.017578125 265 l 1
 217.017578125 152 l 2
 217.017578125 25 218.017578125 38 212.017578125 27 c 0
 207.017578125 17 200.017578125 10 191.017578125 5 c 0
 178.017578125 -1 166.017578125 -2 153.017578125 3 c 0
 147.017578125 5 142.017578125 8 136.017578125 14 c 0
 128.017578125 22 125.017578125 29 122.017578125 40 c 0
 121.017578125 46 121.017578125 693 122.017578125 700 c 0
 125.017578125 711 128.017578125 717 136.017578125 725 c 0
 144.017578125 733 150.017578125 737 161.017578125 739 c 0
EndSplineSet
Validated: 524321
EndChar

StartChar: L
Encoding: 76 76 63
Width: 715
GlyphClass: 2
Flags: W
HStem: 0 96<217.056 585.188>
VStem: 122.056 95<96 604.45>
LayerCount: 2
Fore
SplineSet
161.055664062 739 m 0
 166.055664062 740 177.055664062 740 182.055664062 738 c 0
 187.055664062 737 195.055664062 732 200.055664062 729 c 0
 207.055664062 723 213.055664062 714 216.055664062 704 c 0
 217.055664062 700 217.055664062 687 217.055664062 398 c 2
 217.055664062 96 l 1
 384.055664062 96 l 2
 524.055664062 96 551.055664062 96 554.055664062 95 c 0
 577.055664062 91 593.055664062 71 593.055664062 48 c 0
 593.055664062 25 577.055664062 5 554.055664062 1 c 0
 550.055664062 0 517.055664062 0 336.055664062 0 c 2
 122.055664062 0 l 1
 122.055664062 348 l 2
 122.055664062 725 121.055664062 699 125.055664062 709 c 0
 127.055664062 715 130.055664062 719 136.055664062 725 c 0
 144.055664062 733 150.055664062 737 161.055664062 739 c 0
EndSplineSet
Validated: 524321
EndChar

StartChar: M
Encoding: 77 77 64
Width: 715
GlyphClass: 2
Flags: W
HStem: 720 20G<121.556 247.556 459.58 593.556>
VStem: 121.556 95<7.48047 606> 309.556 95<426.42 475> 497.556 96<8.17108 607>
LayerCount: 2
Fore
SplineSet
121.555664062 392 m 2
 121.555664062 740 l 1
 180.555664062 740 l 1
 240.555664062 740 l 1
 247.555664062 731 l 1
 302.555664062 651 l 1
 354.555664062 577 l 1
 357.555664062 574 l 1
 415.555664062 657 l 1
 473.555664062 740 l 1
 533.555664062 740 l 1
 593.555664062 740 l 1
 593.555664062 390 l 2
 593.555664062 54 593.555664062 39 592.555664062 36 c 0
 587.555664062 22 578.555664062 11 566.555664062 5 c 0
 554.555664062 -1 542.555664062 -2 529.555664062 3 c 0
 523.555664062 5 518.555664062 8 513.555664062 13 c 0
 505.555664062 20 502.555664062 26 498.555664062 37 c 0
 498.555664062 40 497.555664062 61 497.555664062 324 c 2
 497.555664062 607 l 1
 451.555664062 541 l 1
 404.555664062 475 l 1
 404.555664062 461 l 2
 404.555664062 442 403.555664062 435 398.555664062 426 c 0
 395.555664062 421 387.555664062 414 382.555664062 410 c 0
 373.555664062 404 361.555664062 402 351.555664062 403 c 0
 345.555664062 404 337.555664062 406 332.555664062 409 c 0
 324.555664062 414 315.555664062 425 312.555664062 432 c 0
 309.555664062 440 309.555664062 442 309.555664062 459 c 2
 308.555664062 476 l 1
 262.555664062 541 l 1
 217.555664062 606 l 1
 216.555664062 323 l 2
 216.555664062 52 216.555664062 39 215.555664062 36 c 0
 211.555664062 22 202.555664062 11 190.555664062 5 c 0
 177.555664062 -1 165.555664062 -2 152.555664062 3 c 0
 146.555664062 5 141.555664062 8 135.555664062 14 c 0
 129.555664062 21 126.555664062 25 124.555664062 31 c 0
 120.555664062 41 121.555664062 15 121.555664062 392 c 2
EndSplineSet
Validated: 524321
EndChar

StartChar: N
Encoding: 78 78 65
Width: 715
GlyphClass: 2
Flags: W
HStem: 0 21G<457.784 593.556> 0 21G<457.784 593.556> 720 20G<121.556 247.556>
VStem: 121.556 95<7.48047 569> 497.556 96<170 731.829>
LayerCount: 2
Fore
SplineSet
121.555664062 392 m 2xb8
 121.555664062 740 l 1
 184.555664062 740 l 1
 247.555664062 739 l 1
 253.555664062 725 l 1
 378.555664062 440 l 1
 497.555664062 170 l 1
 497.555664062 435 l 2
 497.555664062 680 498.555664062 700 498.555664062 703 c 0
 502.555664062 714 505.555664062 720 513.555664062 727 c 0
 518.555664062 732 523.555664062 735 529.555664062 737 c 0
 542.555664062 741 554.555664062 741 566.555664062 735 c 0
 578.555664062 729 587.555664062 718 592.555664062 704 c 0
 593.555664062 700 593.555664062 685 593.555664062 350 c 2
 593.555664062 0 l 1
 530.555664062 0 l 1
 466.555664062 0 l 1
 341.555664062 285 l 1
 217.555664062 569 l 1
 216.555664062 304 l 2
 216.555664062 52 216.555664062 39 215.555664062 36 c 0
 211.555664062 22 202.555664062 11 190.555664062 5 c 0
 177.555664062 -1 165.555664062 -2 152.555664062 3 c 0
 146.555664062 5 141.555664062 8 135.555664062 14 c 0
 129.555664062 21 126.555664062 25 124.555664062 31 c 0
 120.555664062 41 121.555664062 15 121.555664062 392 c 2xb8
EndSplineSet
Validated: 524321
EndChar

StartChar: O
Encoding: 79 79 66
Width: 715
GlyphClass: 2
Flags: W
HStem: 643 97<336.569 384.115>
LayerCount: 2
Fore
SplineSet
342.23828125 739 m 0
 345.23828125 739 351.23828125 740 356.23828125 740 c 0
 399.23828125 740 441.23828125 717 463.23828125 679 c 2
 521.23828125 564 l 2
 562.23828125 483 576.23828125 454 579.23828125 447 c 0
 596.23828125 402 598.23828125 355 584.23828125 309 c 0
 579.23828125 292 577.23828125 287 521.23828125 175 c 0
 491.23828125 116 465.23828125 64 463.23828125 61 c 0
 458.23828125 53 453.23828125 45 446.23828125 38 c 0
 408.23828125 -1 350.23828125 -11 302.23828125 13 c 0
 281.23828125 23 264.23828125 39 251.23828125 59 c 0
 247.23828125 66 140.23828125 279 136.23828125 289 c 0
 129.23828125 306 125.23828125 324 122.23828125 345 c 0
 121.23828125 357 121.23828125 383 122.23828125 395 c 0
 125.23828125 415 129.23828125 433 136.23828125 451 c 0
 140.23828125 461 247.23828125 674 251.23828125 681 c 0
 267.23828125 706 290.23828125 724 318.23828125 733 c 0
 326.23828125 736 332.23828125 738 342.23828125 739 c 0
363.23828125 643 m 0
 353.23828125 645 343.23828125 643 336.23828125 635 c 0
 333.23828125 632 329.23828125 626 280.23828125 526 c 0
 251.23828125 467 226.23828125 417 225.23828125 414 c 0
 222.23828125 408 219.23828125 397 218.23828125 389 c 0
 216.23828125 380 216.23828125 359 218.23828125 351 c 0
 219.23828125 343 222.23828125 332 225.23828125 326 c 0
 226.23828125 323 251.23828125 272 280.23828125 214 c 0
 332.23828125 110 333.23828125 108 336.23828125 104 c 0
 340.23828125 100 344.23828125 98 350.23828125 97 c 0
 360.23828125 94 369.23828125 97 377.23828125 104 c 0
 380.23828125 108 381.23828125 110 410.23828125 168 c 2
 464.23828125 276 l 2
 485.23828125 316 488.23828125 324 491.23828125 331 c 0
 496.23828125 347 498.23828125 363 497.23828125 379 c 0
 496.23828125 390 494.23828125 398 491.23828125 409 c 0
 488.23828125 416 485.23828125 424 464.23828125 464 c 2
 410.23828125 572 l 2
 381.23828125 630 380.23828125 632 377.23828125 635 c 0
 373.23828125 639 369.23828125 642 363.23828125 643 c 0
EndSplineSet
Validated: 524321
EndChar

StartChar: P
Encoding: 80 80 67
Width: 715
GlyphClass: 2
Flags: W
HStem: 282 96<216.681 488.762> 644 96<216.681 461.537>
VStem: 121.681 95<135.55 282 378 644> 497.681 95<385.963 604>
LayerCount: 2
Fore
SplineSet
121.680664062 392 m 2
 121.680664062 740 l 1
 292.680664062 740 l 2
 483.680664062 739 466.680664062 740 484.680664062 735 c 0
 542.680664062 721 585.680664062 671 592.680664062 612 c 0
 593.680664062 600 593.680664062 422 592.680664062 410 c 0
 584.680664062 344 533.680664062 292 467.680664062 283 c 0
 458.680664062 282 453.680664062 282 337.680664062 282 c 2
 216.680664062 282 l 1
 216.680664062 161 l 2
 216.680664062 24 217.680664062 38 211.680664062 27 c 0
 206.680664062 17 199.680664062 10 190.680664062 5 c 0
 177.680664062 -1 165.680664062 -2 152.680664062 3 c 0
 146.680664062 5 141.680664062 8 135.680664062 14 c 0
 129.680664062 21 126.680664062 25 124.680664062 31 c 0
 120.680664062 41 121.680664062 15 121.680664062 392 c 2
461.680664062 643 m 0
 458.680664062 644 451.680664062 644 337.680664062 644 c 2
 216.680664062 644 l 1
 216.680664062 511 l 1
 216.680664062 378 l 1
 337.680664062 378 l 2
 472.680664062 378 459.680664062 378 470.680664062 383 c 0
 480.680664062 387 488.680664062 395 492.680664062 405 c 0
 497.680664062 415 497.680664062 406 497.680664062 511 c 2
 497.680664062 604 l 1
 495.680664062 609 l 2
 491.680664062 625 478.680664062 638 461.680664062 643 c 0
EndSplineSet
Validated: 524321
EndChar

StartChar: Q
Encoding: 81 81 68
Width: 715
GlyphClass: 2
Flags: W
HStem: 0 96<483.556 584.688>
VStem: 121.556 96<111 402> 497.556 96<294.719 629>
LayerCount: 2
Fore
SplineSet
462.555664062 739 m 0
 489.555664062 742 518.555664062 736 540.555664062 721 c 0
 569.555664062 702 588.555664062 672 592.555664062 637 c 0
 593.555664062 631 593.555664062 615 593.555664062 488 c 0
 593.555664062 336 593.555664062 340 590.555664062 322 c 0
 583.555664062 285 565.555664062 250 539.555664062 223 c 0
 535.555664062 218 517.555664062 203 496.555664062 185 c 2
 461.555664062 155 l 2
 460.555664062 154 465.555664062 143 479.555664062 107 c 2
 483.555664062 96 l 1
 516.555664062 96 l 2
 542.555664062 96 550.555664062 96 553.555664062 95 c 0
 576.555664062 91 592.555664062 71 592.555664062 48 c 0
 592.555664062 25 576.555664062 5 553.555664062 1 c 0
 550.555664062 0 537.555664062 0 483.555664062 0 c 2
 418.555664062 0 l 1
 401.555664062 44 l 1
 383.555664062 88 l 1
 346.555664062 56 l 2
 321.555664062 35 307.555664062 23 302.555664062 20 c 0
 267.555664062 -4 222.555664062 -6 184.555664062 13 c 0
 155.555664062 28 133.555664062 55 124.555664062 88 c 0
 120.555664062 103 121.555664062 96 121.555664062 256 c 2
 121.555664062 402 l 1
 123.555664062 411 l 2
 128.555664062 447 141.555664062 477 163.555664062 504 c 0
 174.555664062 519 176.555664062 520 355.555664062 673 c 0
 410.555664062 720 405.555664062 716 413.555664062 721 c 0
 427.555664062 730 445.555664062 737 462.555664062 739 c 0
485.555664062 642 m 0
 479.555664062 645 471.555664062 644 466.555664062 641 c 0
 464.555664062 640 393.555664062 580 271.555664062 475 c 0
 254.555664062 461 243.555664062 451 240.555664062 448 c 0
 229.555664062 435 222.555664062 420 218.555664062 402 c 2
 217.555664062 395 l 1
 217.555664062 253 l 1
 217.555664062 111 l 1
 218.555664062 108 l 2
 220.555664062 103 224.555664062 100 228.555664062 98 c 0
 231.555664062 96 233.555664062 96 237.555664062 96 c 0
 242.555664062 96 243.555664062 96 246.555664062 98 c 0
 248.555664062 99 265.555664062 113 296.555664062 140 c 2
 345.555664062 181 l 1
 347.555664062 183 l 1
 329.555664062 228 l 2
 319.555664062 254 311.555664062 276 310.555664062 278 c 0
 307.555664062 289 309.555664062 303 315.555664062 314 c 0
 318.555664062 318 328.555664062 328 332.555664062 331 c 0
 337.555664062 333 345.555664062 336 351.555664062 337 c 0
 361.555664062 338 373.555664062 335 382.555664062 330 c 0
 387.555664062 326 395.555664062 319 398.555664062 314 c 0
 399.555664062 312 403.555664062 302 407.555664062 291 c 2
 419.555664062 260 l 1
 424.555664062 249 l 1
 444.555664062 266 l 2
 456.555664062 276 467.555664062 286 470.555664062 289 c 0
 483.555664062 302 492.555664062 319 495.555664062 338 c 2
 497.555664062 345 l 1
 497.555664062 487 l 1
 497.555664062 629 l 1
 495.555664062 632 l 2
 493.555664062 636 489.555664062 640 485.555664062 642 c 0
EndSplineSet
Validated: 524321
EndChar

StartChar: R
Encoding: 82 82 69
Width: 715
GlyphClass: 2
Flags: W
HStem: 402 96<216.556 282.556 393.556 470.057> 644 96<216.556 461.412>
VStem: 121.556 95<135.55 402 498 644> 497.556 96<506.187 635.694>
LayerCount: 2
Fore
SplineSet
121.555664062 392 m 2
 121.555664062 740 l 1
 292.555664062 740 l 2
 483.555664062 739 466.555664062 740 484.555664062 735 c 0
 542.555664062 721 585.555664062 671 592.555664062 611 c 0
 593.555664062 605 593.555664062 597 593.555664062 567 c 0
 592.555664062 528 592.555664062 527 588.555664062 511 c 0
 576.555664062 460 535.555664062 420 484.555664062 407 c 0
 469.555664062 403 466.555664062 403 428.555664062 402 c 2
 393.555664062 402 l 1
 491.555664062 235 l 2
 544.555664062 144 589.555664062 67 589.555664062 65 c 0
 596.555664062 46 592.555664062 26 577.555664062 13 c 0
 558.555664062 -5 528.555664062 -4 509.555664062 16 c 0
 507.555664062 18 504.555664062 23 502.555664062 27 c 2
 390.555664062 218 l 1
 282.555664062 402 l 1
 249.555664062 402 l 1
 216.555664062 402 l 1
 216.555664062 221 l 2
 216.555664062 48 216.555664062 39 215.555664062 36 c 0
 213.555664062 30 209.555664062 22 206.555664062 18 c 0
 201.555664062 12 196.555664062 8 190.555664062 5 c 0
 177.555664062 -1 165.555664062 -2 152.555664062 3 c 0
 146.555664062 5 141.555664062 8 135.555664062 14 c 0
 129.555664062 21 126.555664062 25 124.555664062 31 c 0
 120.555664062 41 121.555664062 15 121.555664062 392 c 2
461.555664062 643 m 0
 458.555664062 644 451.555664062 644 337.555664062 644 c 2
 216.555664062 644 l 1
 216.555664062 571 l 1
 216.555664062 498 l 1
 337.555664062 498 l 2
 472.555664062 499 459.555664062 498 470.555664062 503 c 0
 480.555664062 508 488.555664062 516 492.555664062 526 c 0
 497.555664062 535 497.555664062 534 497.555664062 571 c 0
 497.555664062 608 497.555664062 607 492.555664062 617 c 0
 486.555664062 629 475.555664062 638 461.555664062 643 c 0
EndSplineSet
Validated: 524321
EndChar

StartChar: S
Encoding: 83 83 70
Width: 715
GlyphClass: 2
Flags: W
HStem: 0 96<242.803 487.803> 644 95<224.803 471.803>
VStem: 496.803 96<97.1435 140.611 577.519 641.391>
LayerCount: 2
Fore
SplineSet
214.802734375 739 m 0
 219.802734375 739 244.802734375 740 346.802734375 740 c 0
 456.802734375 740 473.802734375 740 479.802734375 739 c 0
 509.802734375 735 535.802734375 722 556.802734375 701 c 0
 577.802734375 680 589.802734375 653 592.802734375 624 c 0
 595.802734375 603 590.802734375 588 578.802734375 577 c 0
 568.802734375 568 558.802734375 564 545.802734375 564 c 0
 539.802734375 564 537.802734375 564 532.802734375 565 c 0
 523.802734375 568 517.802734375 572 511.802734375 578 c 0
 502.802734375 587 498.802734375 597 497.802734375 611 c 0
 497.802734375 617 496.802734375 620 495.802734375 623 c 0
 492.802734375 631 484.802734375 639 475.802734375 642 c 2
 471.802734375 644 l 1
 348.802734375 644 l 1
 224.802734375 644 l 1
 222.802734375 642 l 2
 217.802734375 638 215.802734375 632 217.802734375 627 c 0
 218.802734375 626 298.802734375 523 395.802734375 398 c 0
 493.802734375 273 574.802734375 169 575.802734375 167 c 0
 584.802734375 153 590.802734375 138 592.802734375 121 c 0
 599.802734375 68 564.802734375 17 512.802734375 4 c 0
 497.802734375 0 504.802734375 0 366.802734375 0 c 0
 257.802734375 0 240.802734375 0 234.802734375 1 c 0
 204.802734375 5 178.802734375 18 157.802734375 39 c 0
 137.802734375 60 124.802734375 87 121.802734375 116 c 0
 119.802734375 136 123.802734375 149 134.802734375 161 c 0
 140.802734375 168 147.802734375 172 156.802734375 174 c 0
 160.802734375 176 163.802734375 176 168.802734375 176 c 0
 181.802734375 176 192.802734375 172 201.802734375 163 c 0
 211.802734375 154 215.802734375 144 216.802734375 129 c 0
 217.802734375 123 217.802734375 120 218.802734375 117 c 0
 222.802734375 108 229.802734375 101 238.802734375 98 c 2
 242.802734375 96 l 1
 365.802734375 96 l 1
 487.802734375 96 l 1
 490.802734375 97 l 2
 496.802734375 100 499.802734375 107 496.802734375 112 c 0
 496.802734375 113 416.802734375 217 318.802734375 342 c 0
 221.802734375 467 140.802734375 571 138.802734375 573 c 0
 115.802734375 609 115.802734375 656 139.802734375 691 c 0
 156.802734375 717 184.802734375 735 214.802734375 739 c 0
EndSplineSet
Validated: 524321
EndChar

StartChar: T
Encoding: 84 84 71
Width: 715
GlyphClass: 2
Flags: W
HStem: 564 176<128.69 209.199 505.119 585.75> 644 96<216.5 309.5 404.5 497.5>
VStem: 121.5 95<571.355 644> 309.5 95<7.48047 644> 497.5 96<571.355 644>
LayerCount: 2
Fore
SplineSet
121.5 674 m 2xb8
 121.5 740 l 1
 357.5 740 l 1
 593.5 740 l 1x78
 593.5 674 l 2
 593.5 601 593.5 603 589.5 594 c 0
 585.5 582 575.5 572 563.5 567 c 0
 556.5 564 552.5 564 545.5 564 c 0xb8
 537.5 564 530.5 565 524.5 568 c 0
 513.5 574 505.5 583 500.5 594 c 0
 498.5 602 497.5 606 497.5 626 c 2
 497.5 644 l 1
 451.5 644 l 1
 404.5 644 l 1
 404.5 342 l 2
 404.5 53 404.5 39 403.5 36 c 0
 399.5 22 390.5 11 378.5 5 c 0
 365.5 -1 353.5 -2 340.5 3 c 0
 333.5 5 329.5 8 323.5 14 c 0
 317.5 21 314.5 25 312.5 31 c 0
 308.5 41 309.5 19 309.5 344 c 2
 309.5 644 l 1
 262.5 644 l 1
 216.5 644 l 1x78
 216.5 626 l 2
 216.5 605 216.5 602 213.5 594 c 0
 208.5 582 198.5 572 186.5 567 c 0
 180.5 564 176.5 564 168.5 564 c 0
 161.5 564 154.5 565 148.5 568 c 0
 137.5 574 128.5 583 124.5 594 c 0
 121.5 603 121.5 602 121.5 674 c 2xb8
EndSplineSet
Validated: 524321
EndChar

StartChar: U
Encoding: 85 85 72
Width: 715
GlyphClass: 2
Flags: W
HStem: 0 96<245.01 470.1>
VStem: 121.556 97<152.527 678.355> 496.556 96<103.84 731.111>
LayerCount: 2
Fore
SplineSet
160.555664062 739 m 0
 165.555664062 740 176.555664062 740 181.555664062 738 c 0
 186.555664062 737 194.555664062 732 199.555664062 729 c 0
 206.555664062 723 212.555664062 714 215.555664062 704 c 0
 216.555664062 700 216.555664062 687 216.555664062 418 c 0
 217.555664062 148 217.555664062 135 218.555664062 132 c 0
 222.555664062 118 231.555664062 107 244.555664062 101 c 0
 254.555664062 96 244.555664062 96 357.555664062 96 c 0
 469.555664062 96 460.555664062 96 470.555664062 101 c 0
 482.555664062 107 492.555664062 118 496.555664062 132 c 0
 497.555664062 135 497.555664062 148 497.555664062 417 c 0
 497.555664062 679 498.555664062 700 498.555664062 703 c 0
 502.555664062 714 505.555664062 720 513.555664062 727 c 0
 518.555664062 732 523.555664062 735 529.555664062 737 c 0
 542.555664062 741 554.555664062 741 566.555664062 735 c 0
 578.555664062 729 587.555664062 718 592.555664062 704 c 0
 593.555664062 700 593.555664062 688 593.555664062 418 c 0
 593.555664062 140 593.555664062 136 592.555664062 127 c 0
 590.555664062 110 585.555664062 96 578.555664062 80 c 0
 557.555664062 37 515.555664062 7 467.555664062 1 c 0
 458.555664062 0 453.555664062 0 357.555664062 0 c 0
 271.555664062 0 255.555664062 0 249.555664062 1 c 0
 206.555664062 6 168.555664062 29 144.555664062 66 c 0
 135.555664062 79 128.555664062 97 124.555664062 113 c 0
 120.555664062 129 121.555664062 110 121.555664062 416 c 0
 121.555664062 719 120.555664062 699 124.555664062 709 c 0
 126.555664062 715 129.555664062 719 135.555664062 725 c 0
 143.555664062 733 149.555664062 737 160.555664062 739 c 0
EndSplineSet
Validated: 524321
EndChar

StartChar: V
Encoding: 86 86 73
Width: 715
GlyphClass: 2
Flags: W
VStem: 121.5 96<539 731.654> 497.5 96<540 731.64>
LayerCount: 2
Fore
SplineSet
160.5 739 m 0
 165.5 740 176.5 740 181.5 738 c 0
 183.5 738 187.5 736 190.5 735 c 0
 199.5 730 206.5 723 211.5 713 c 0
 216.5 702 216.5 710 216.5 620 c 2
 217.5 539 l 1
 287.5 360 l 1
 357.5 181 l 1
 427.5 361 l 1
 497.5 540 l 1
 497.5 618 l 2
 497.5 702 497.5 700 500.5 709 c 0
 503.5 715 505.5 719 512.5 725 c 0
 518.5 732 522.5 734 529.5 737 c 0
 542.5 741 554.5 741 566.5 735 c 0
 576.5 730 583.5 723 588.5 713 c 0
 593.5 702 593.5 711 593.5 611 c 2
 593.5 522 l 1
 497.5 275 l 2
 444.5 140 400.5 28 399.5 26 c 0
 397.5 22 393.5 17 389.5 13 c 0
 366.5 -9 328.5 -2 313.5 28 c 0
 312.5 30 270.5 138 219.5 269 c 2
 124.5 514 l 1
 121.5 522 l 1
 121.5 609 l 2
 121.5 702 121.5 700 124.5 709 c 0
 126.5 715 129.5 719 135.5 725 c 0
 143.5 733 149.5 737 160.5 739 c 0
EndSplineSet
Validated: 524321
EndChar

StartChar: W
Encoding: 87 87 74
Width: 715
GlyphClass: 2
Flags: W
HStem: 0 96<244 283 432 471>
VStem: 121 96<141 662.784> 310 96<141 489.697> 498 96<142 731.473>
LayerCount: 2
Fore
SplineSet
161 739 m 0
 166 740 177 740 182 738 c 0
 187 737 195 732 200 729 c 0
 207 723 213 714 216 704 c 0
 217 700 217 688 217 421 c 2
 217 141 l 1
 231 119 l 1
 244 96 l 1
 264 96 l 1
 283 96 l 1
 296 118 l 1
 310 141 l 1
 310 300 l 2
 310 479 309 460 315 471 c 0
 321 484 331 493 345 497 c 0
 349 498 351 498 357 498 c 0
 367 498 371 497 379 493 c 0
 388 488 395 481 400 471 c 0
 406 460 405 479 405 300 c 2
 406 141 l 1
 419 119 l 1
 432 96 l 1
 452 96 l 1
 471 96 l 1
 485 119 l 1
 498 142 l 1
 498 419 l 2
 498 719 498 699 501 709 c 0
 504 715 506 719 513 725 c 0
 519 732 523 734 530 737 c 0
 543 741 555 741 567 735 c 0
 579 729 588 718 593 704 c 0
 594 700 594 687 594 408 c 2
 594 115 l 1
 568 71 l 2
 553 46 540 24 539 22 c 0
 536 17 528 9 523 7 c 0
 519 4 512 2 506 1 c 0
 503 0 487 0 449 0 c 0
 397 0 397 0 392 2 c 0
 379 6 370 13 362 26 c 0
 360 30 358 33 358 33 c 1
 353 26 l 2
 346 13 337 6 323 2 c 0
 319 0 319 0 267 0 c 0
 228 0 213 0 210 1 c 0
 204 2 197 4 192 7 c 0
 188 9 179 18 176 23 c 0
 174 24 162 46 147 71 c 2
 121 115 l 1
 121 403 l 2
 121 719 121 697 125 708 c 0
 127 715 130 719 136 725 c 0
 144 733 150 737 161 739 c 0
EndSplineSet
Validated: 33
EndChar

StartChar: X
Encoding: 88 88 75
Width: 715
GlyphClass: 2
Flags: W
LayerCount: 2
Fore
SplineSet
161.97265625 739 m 0
 171.97265625 741 184.97265625 738 193.97265625 733 c 0
 198.97265625 730 204.97265625 723 208.97265625 718 c 0
 209.97265625 716 243.97265625 658 284.97265625 589 c 2
 356.97265625 465 l 1
 358.97265625 467 l 1
 430.97265625 590 l 1
 504.97265625 716 l 2
 520.97265625 742 555.97265625 748 577.97265625 727 c 0
 584.97265625 720 589.97265625 713 591.97265625 703 c 0
 594.97265625 694 593.97265625 682 588.97265625 673 c 0
 588.97265625 671 548.97265625 602 500.97265625 520 c 2
 412.97265625 370 l 1
 500.97265625 220 l 2
 548.97265625 137 588.97265625 69 588.97265625 67 c 0
 593.97265625 58 594.97265625 46 591.97265625 36 c 0
 589.97265625 27 584.97265625 19 577.97265625 13 c 0
 555.97265625 -8 520.97265625 -3 504.97265625 24 c 2
 430.97265625 149 l 1
 358.97265625 273 l 1
 356.97265625 275 l 1
 284.97265625 150 l 2
 243.97265625 82 209.97265625 24 208.97265625 21 c 0
 202.97265625 13 194.97265625 6 185.97265625 3 c 0
 158.97265625 -7 129.97265625 9 122.97265625 37 c 0
 119.97265625 46 121.97265625 58 124.97265625 67 c 0
 125.97265625 69 165.97265625 137 213.97265625 220 c 2
 301.97265625 370 l 1
 213.97265625 520 l 2
 165.97265625 602 125.97265625 671 124.97265625 673 c 0
 119.97265625 685 119.97265625 700 125.97265625 712 c 0
 131.97265625 726 145.97265625 736 161.97265625 739 c 0
EndSplineSet
Validated: 524321
EndChar

StartChar: Y
Encoding: 89 89 76
Width: 715
GlyphClass: 2
Flags: W
VStem: 121 97<627 731.12> 310 95<7.50558 353> 498 96<628 731.64>
LayerCount: 2
Fore
SplineSet
161 739 m 0
 166 740 177 740 182 738 c 0
 184 738 188 736 191 735 c 0
 200 730 207 723 212 713 c 0
 217 703 217 705 217 664 c 2
 218 627 l 1
 288 538 l 2
 345 464 358 448 358 449 c 1
 359 449 390 490 429 539 c 2
 498 628 l 1
 498 662 l 2
 498 698 498 700 501 709 c 0
 504 715 506 719 513 725 c 0
 519 732 523 734 530 737 c 0
 543 741 555 741 567 735 c 0
 577 730 584 723 589 713 c 0
 594 703 594 707 594 648 c 2
 594 595 l 1
 570 564 l 1
 476 443 l 1
 406 354 l 1
 405 197 l 2
 405 20 406 38 400 27 c 0
 395 17 388 10 379 5 c 0
 366 -1 354 -2 341 3 c 0
 334 5 330 8 324 14 c 0
 318 21 315 25 313 31 c 0
 309 40 310 32 310 199 c 2
 310 353 l 1
 215 474 l 1
 121 595 l 1
 121 643 l 2
 121 695 121 698 125 708 c 0
 127 715 130 719 136 725 c 0
 144 733 150 737 161 739 c 0
EndSplineSet
Validated: 33
EndChar

StartChar: Z
Encoding: 90 90 77
Width: 715
GlyphClass: 2
Flags: W
HStem: 0 96<252.75 584.883> 644 96<160.75 461.75>
LayerCount: 2
Fore
SplineSet
161.75 739 m 0
 162.75 739 260.75 740 378.75 740 c 2
 593.75 740 l 1
 593.75 710 l 1
 593.75 679 l 1
 584.75 664 l 1
 252.75 96 l 1
 400.75 96 l 2
 526.75 96 550.75 96 553.75 95 c 0
 576.75 91 592.75 71 592.75 48 c 0
 592.75 25 576.75 5 553.75 1 c 0
 549.75 0 516.75 0 335.75 0 c 2
 121.75 0 l 1
 121.75 31 l 1
 121.75 61 l 1
 130.75 77 l 2
 202.75 200 461.75 643 461.75 644 c 1
 311.75 644 l 1
 160.75 644 l 1
 156.75 646 l 2
 142.75 650 130.75 660 125.75 672 c 0
 119.75 684 119.75 699 125.75 712 c 0
 131.75 726 145.75 736 161.75 739 c 0
EndSplineSet
Validated: 524321
EndChar

StartChar: bracketleft
Encoding: 91 91 78
Width: 715
GlyphClass: 2
Flags: W
HStem: 1 95<264 585.508> 644 95<264 585.508>
VStem: 122.375 141.625<96 644>
LayerCount: 2
Fore
SplineSet
264 96 m 5
 343 96 375.375 96 454.375 96 c 0
 534.375 96 551.375 96 554.375 95 c 0
 577.375 91 593.375 71 593.375 48 c 0
 593.375 25 577.375 5 554.375 1 c 0
 548.375 0 168.375 0 161.375 1 c 0
 140.968615813 5.08127683735 127.786769175 20.1568463588 122.375 40 c 0
 121.375 46 121.375 693 122.375 700 c 0
 127.526721021 718.889643744 142.068765691 735.138753138 161.375 739 c 0
 167.375 740 548.375 740 554.375 739 c 0
 577.375 735 593.375 715 593.375 692 c 0
 593.375 669 577.375 649 554.375 645 c 0
 551.375 644 534.375 644 454.375 644 c 0
 375.375 644 343 644 264 644 c 5
 264 461.333007812 264 278.666992188 264 96 c 5
EndSplineSet
Validated: 524321
EndChar

StartChar: backslash
Encoding: 92 92 79
Width: 715
GlyphClass: 2
Flags: W
LayerCount: 2
Fore
SplineSet
161.97265625 739 m 0
 172.97265625 741 185.97265625 738 195.97265625 732 c 0
 200.97265625 728 206.97265625 722 209.97265625 716 c 0
 216.97265625 705 587.97265625 70 588.97265625 67 c 0
 593.97265625 58 594.97265625 46 591.97265625 36 c 0
 589.97265625 27 584.97265625 19 577.97265625 13 c 0
 555.97265625 -8 520.97265625 -3 504.97265625 24 c 0
 496.97265625 36 126.97265625 670 124.97265625 673 c 0
 119.97265625 685 119.97265625 700 125.97265625 712 c 0
 131.97265625 726 145.97265625 736 161.97265625 739 c 0
EndSplineSet
Validated: 524321
EndChar

StartChar: bracketright
Encoding: 93 93 80
Width: 715
GlyphClass: 2
Flags: W
LayerCount: 2
Fore
SplineSet
451 96 m 5
 372 96 339.625 96 260.625 96 c 4
 180.625 96 163.625 96 160.625 95 c 4
 137.625 91 121.625 71 121.625 48 c 4
 121.625 25 137.625 5 160.625 1 c 4
 166.625 0 546.625 0 553.625 1 c 4
 574.03125 5.0810546875 587.212890625 20.1572265625 592.625 40 c 4
 593.625 46 593.625 693 592.625 700 c 4
 587.473632812 718.889648438 572.931640625 735.138671875 553.625 739 c 4
 547.625 740 166.625 740 160.625 739 c 4
 137.625 735 121.625 715 121.625 692 c 4
 121.625 669 137.625 649 160.625 645 c 4
 163.625 644 180.625 644 260.625 644 c 4
 339.625 644 372 644 451 644 c 5
 451 461.333007812 451 278.666992188 451 96 c 5
EndSplineSet
Validated: 524329
EndChar

StartChar: asciicircum
Encoding: 94 94 81
Width: 715
GlyphClass: 2
Flags: W
LayerCount: 2
Fore
SplineSet
349.958984375 578 m 0
 354.958984375 579 358.958984375 579 364.958984375 578 c 0
 375.958984375 576 383.958984375 572 391.958984375 563 c 0
 394.958984375 561 396.958984375 557 398.958984375 555 c 0
 399.958984375 552 581.958984375 202 586.958984375 192 c 0
 592.958984375 182 593.958984375 173 592.958984375 163 c 0
 590.958984375 141 572.958984375 124 550.958984375 121 c 0
 536.958984375 119 521.958984375 125 511.958984375 135 c 0
 508.958984375 138 494.958984375 158 449.958984375 226 c 2
 374.958984375 339 l 1
 356.958984375 364 l 1
 281.958984375 252 l 2
 222.958984375 163 205.958984375 138 202.958984375 135 c 0
 192.958984375 125 177.958984375 119 163.958984375 121 c 0
 144.958984375 123 129.958984375 136 123.958984375 153 c 0
 121.958984375 158 121.958984375 160 121.958984375 167 c 0
 120.958984375 176 122.958984375 182 126.958984375 190 c 0
 132.958984375 203 314.958984375 554 317.958984375 557 c 0
 321.958984375 563 328.958984375 570 334.958984375 573 c 0
 340.958984375 576 343.958984375 577 349.958984375 578 c 0
EndSplineSet
Validated: 524321
EndChar

StartChar: underscore
Encoding: 95 95 82
Width: 715
GlyphClass: 2
Flags: W
HStem: -95 95<129.49 585.573>
LayerCount: 2
Fore
SplineSet
162.114257812 -1 m 0
 163.114257812 0 251.114257812 0 357.114257812 0 c 0
 566.114257812 0 554.114257812 0 563.114257812 -3 c 0
 574.114257812 -7 584.114257812 -17 589.114257812 -28 c 0
 602.114257812 -56 584.114257812 -90 553.114257812 -95 c 0
 550.114257812 -96 500.114257812 -96 355.114257812 -96 c 2
 161.114257812 -95 l 1
 157.114257812 -94 l 2
 143.114257812 -90 131.114257812 -80 126.114257812 -68 c 0
 120.114257812 -55 120.114257812 -40 126.114257812 -28 c 0
 132.114257812 -14 146.114257812 -3 162.114257812 -1 c 0
EndSplineSet
Validated: 524321
EndChar

StartChar: grave
Encoding: 96 96 83
Width: 715
GlyphClass: 2
Flags: W
HStem: 720 20G<190.563 296.063>
LayerCount: 2
Fore
SplineSet
207.063476562 740 m 0
 261.063476562 740 l 2
 331.063476562 740 331.063476562 738 341.063476562 727 c 0
 348.666992188 718.635742188 533.983398438 480.939453125 537.063476562 477 c 4
 580.063476562 422 523.620117188 365.290039062 469.063476562 412 c 6
 177.063476562 662 l 0
 144.063476562 691 174.063476562 740 207.063476562 740 c 0
EndSplineSet
Validated: 524321
EndChar

StartChar: a
Encoding: 97 97 84
Width: 715
GlyphClass: 2
Flags: W
HStem: 0 96<250.981 391.793> 241 96<241.793 454.793> 443 95<242.294 447.793>
VStem: 121.793 96<130 208> 487.793 98<332 432.938> 497.793 95<7.82927 46 155.008 230.998>
LayerCount: 2
Fore
SplineSet
256.79296875 538 m 2xf8
 356.79296875 538 l 2
 464.79296875 538 456.79296875 538 472.79296875 534 c 0
 531.79296875 520 573.79296875 471 580.79296875 411 c 0
 580.79296875 407 582.79296875 350 585.79296875 283 c 2xf8
 591.79296875 104 l 2
 592.79296875 65 593.79296875 45 592.79296875 42 c 0
 591.79296875 31 586.79296875 21 577.79296875 13 c 0
 551.79296875 -12 507.79296875 1 498.79296875 37 c 0
 498.79296875 39 497.79296875 42 497.79296875 43 c 2
 497.79296875 46 l 1xf4
 496.79296875 46 481.79296875 37 462.79296875 26 c 0
 426.79296875 6 422.79296875 3 415.79296875 1 c 0
 411.79296875 0 407.79296875 0 330.79296875 0 c 0
 240.79296875 0 245.79296875 0 228.79296875 4 c 0
 202.79296875 11 179.79296875 24 161.79296875 43 c 0
 139.79296875 66 126.79296875 93 122.79296875 125 c 0
 121.79296875 133 121.79296875 137 121.79296875 169 c 0
 121.79296875 200 121.79296875 205 122.79296875 213 c 0
 126.79296875 244 139.79296875 272 161.79296875 294 c 0
 182.79296875 316 209.79296875 330 241.79296875 336 c 2
 249.79296875 337 l 1
 354.79296875 337 l 1
 459.79296875 337 l 1
 467.79296875 336 l 2
 472.79296875 335 478.79296875 334 481.79296875 333 c 0
 484.79296875 332 487.79296875 331 487.79296875 332 c 2
 487.79296875 332 486.79296875 347 486.79296875 366 c 0
 485.79296875 390 484.79296875 402 484.79296875 405 c 0
 480.79296875 422 469.79296875 435 453.79296875 440 c 2
 447.79296875 442 l 1
 350.79296875 443 l 2
 242.79296875 443 252.79296875 443 241.79296875 448 c 0
 229.79296875 454 221.79296875 464 216.79296875 478 c 0
 215.79296875 482 215.79296875 483 215.79296875 491 c 0
 215.79296875 498 215.79296875 500 216.79296875 504 c 0
 218.79296875 509 222.79296875 516 225.79296875 521 c 0
 232.79296875 529 245.79296875 537 256.79296875 538 c 2xf8
460.79296875 239 m 2
 454.79296875 241 l 1
 356.79296875 241 l 1
 255.79296875 241 l 2
 253.79296875 241 250.79296875 240 247.79296875 239 c 0
 233.79296875 234 223.79296875 223 218.79296875 208 c 2
 217.79296875 203 l 1
 217.79296875 169 l 1
 217.79296875 134 l 1
 218.79296875 130 l 2
 223.79296875 113 235.79296875 102 250.79296875 97 c 0
 254.79296875 96 259.79296875 96 322.79296875 96 c 2
 391.79296875 96 l 1
 442.79296875 125 l 1
 493.79296875 155 l 1
 493.79296875 155 493.79296875 166 492.79296875 179 c 0
 491.79296875 200 491.79296875 204 490.79296875 208 c 0
 487.79296875 217 482.79296875 226 475.79296875 231 c 0
 470.79296875 235 467.79296875 237 460.79296875 239 c 2
EndSplineSet
Validated: 524321
EndChar

StartChar: b
Encoding: 98 98 85
Width: 715
GlyphClass: 2
Flags: W
HStem: 1 95<302.897 429.875> 443 96<303.344 458.68>
VStem: 121.875 96<8.30281 64 183.236 339 474 731.654> 497.875 96<163 377.858>
LayerCount: 2
Fore
SplineSet
160.875 739 m 0
 165.875 740 176.875 740 181.875 738 c 0
 183.875 738 187.875 736 190.875 735 c 0
 199.875 730 206.875 723 211.875 713 c 0
 217.875 702 216.875 714 216.875 587 c 2
 217.875 474 l 1
 236.875 490 l 2
 256.875 508 262.875 512 270.875 518 c 0
 283.875 525 300.875 532 314.875 535 c 0
 329.875 538 333.875 539 380.875 539 c 0
 427.875 539 431.875 538 445.875 535 c 0
 464.875 532 486.875 521 502.875 509 c 0
 510.875 503 548.875 470 553.875 465 c 0
 570.875 447 582.875 425 588.875 402 c 0
 593.875 384 593.875 393 593.875 272 c 0
 593.875 167 593.875 163 592.875 154 c 0
 588.875 123 575.875 96 554.875 74 c 0
 549.875 69 521.875 45 506.875 32 c 0
 485.875 15 459.875 4 432.875 1 c 0
 421.875 0 340.875 0 329.875 1 c 0
 312.875 3 296.875 8 282.875 15 c 0
 267.875 22 261.875 26 230.875 53 c 2
 217.875 64 l 1
 216.875 52 l 2
 216.875 38 215.875 35 211.875 27 c 0
 207.875 17 199.875 10 190.875 5 c 0
 177.875 -1 165.875 -2 152.875 3 c 0
 146.875 5 141.875 8 135.875 14 c 0
 127.875 22 124.875 29 121.875 40 c 0
 120.875 46 120.875 693 121.875 700 c 0
 124.875 711 127.875 717 135.875 725 c 0
 143.875 733 149.875 737 160.875 739 c 0
428.875 441 m 0
 424.875 442 420.875 442 382.875 443 c 0
 359.875 443 338.875 442 337.875 442 c 0
 330.875 441 323.875 438 318.875 434 c 0
 316.875 433 296.875 416 272.875 395 c 0
 241.875 369 228.875 358 226.875 355 c 0
 223.875 351 220.875 345 218.875 339 c 2
 217.875 335 l 1
 217.875 270 l 2
 217.875 209 217.875 204 218.875 201 c 0
 219.875 195 223.875 188 226.875 183 c 0
 228.875 181 241.875 169 272.875 143 c 0
 296.875 122 317.875 105 318.875 104 c 0
 322.875 101 327.875 99 332.875 97 c 0
 337.875 96 337.875 96 380.875 96 c 2
 424.875 96 l 1
 429.875 97 l 2
 438.875 100 441.875 103 463.875 121 c 0
 488.875 142 491.875 145 495.875 157 c 2
 497.875 163 l 1
 497.875 269 l 2
 497.875 370 497.875 375 496.875 378 c 0
 494.875 384 491.875 390 488.875 394 c 0
 486.875 397 479.875 403 466.875 414 c 0
 456.875 423 446.875 432 444.875 433 c 0
 440.875 436 433.875 440 428.875 441 c 0
EndSplineSet
Validated: 524321
EndChar

StartChar: c
Encoding: 99 99 86
Width: 715
GlyphClass: 2
Flags: W
HStem: 1 95<333.189 585.133> 442 96<333 584.566>
VStem: 122 96<183.236 339>
LayerCount: 2
Fore
SplineSet
329 538 m 0
 339 539 548 539 554 538 c 0
 577 533 593 514 593 491 c 0
 593 472 582 454 564 447 c 0
 555 443 564 443 445 443 c 2
 337 442 l 1
 333 441 l 2
 327 439 323 437 319 434 c 0
 317 433 297 416 273 395 c 0
 242 369 229 358 227 355 c 0
 224 351 221 345 219 339 c 2
 218 335 l 1
 218 270 l 2
 218 209 218 204 219 201 c 0
 220 195 224 188 227 183 c 0
 229 181 242 169 273 143 c 0
 297 123 317 105 319 104 c 0
 323 101 328 99 333 97 c 0
 337 96 343 96 445 96 c 0
 564 95 555 96 564 92 c 0
 582 85 593 67 593 48 c 0
 593 25 577 5 554 1 c 0
 547 0 341 0 330 1 c 0
 305 4 280 13 261 28 c 0
 253 34 171 104 164 111 c 0
 145 129 132 153 126 178 c 0
 122 194 122 191 122 266 c 0
 122 332 122 335 123 344 c 0
 127 375 140 403 161 425 c 0
 166 430 250 502 260 510 c 0
 279 525 304 535 329 538 c 0
EndSplineSet
Validated: 33
EndChar

StartChar: d
Encoding: 100 100 87
Width: 715
GlyphClass: 2
Flags: W
HStem: 1 95<256.259 411.841> 442 97<255.089 412.81>
VStem: 121.828 96<131.78 406.635> 497.828 96<8.03003 64 203 335 474 731.193>
LayerCount: 2
Fore
SplineSet
536.828125 739 m 0
 541.828125 740 552.828125 740 557.828125 738 c 0
 562.828125 737 571.828125 732 575.828125 729 c 0
 583.828125 723 589.828125 713 592.828125 704 c 0
 593.828125 700 593.828125 686 593.828125 370 c 0
 593.828125 53 593.828125 40 592.828125 36 c 0
 591.828125 34 589.828125 30 588.828125 27 c 0
 583.828125 17 576.828125 10 566.828125 5 c 0
 554.828125 -1 542.828125 -2 529.828125 3 c 0
 522.828125 5 518.828125 8 512.828125 14 c 0
 500.828125 26 497.828125 35 497.828125 54 c 2
 497.828125 64 l 1
 478.828125 49 l 2
 468.828125 40 458.828125 31 456.828125 30 c 0
 436.828125 14 411.828125 4 384.828125 1 c 0
 374.828125 0 293.828125 0 282.828125 1 c 0
 256.828125 4 230.828125 14 210.828125 30 c 0
 201.828125 37 165.828125 68 160.828125 74 c 0
 138.828125 96 125.828125 124 121.828125 157 c 0
 120.828125 168 120.828125 372 122.828125 382 c 0
 126.828125 414 139.828125 442 160.828125 465 c 0
 165.828125 470 200.828125 501 210.828125 509 c 0
 226.828125 521 248.828125 531 267.828125 535 c 0
 282.828125 538 286.828125 539 333.828125 539 c 0
 374.828125 539 378.828125 538 386.828125 537 c 0
 412.828125 534 435.828125 525 455.828125 510 c 0
 458.828125 507 468.828125 498 478.828125 490 c 2
 497.828125 474 l 1
 497.828125 587 l 2
 497.828125 690 498.828125 700 498.828125 703 c 0
 502.828125 713 505.828125 720 513.828125 726 c 0
 520.828125 733 527.828125 737 536.828125 739 c 0
377.828125 442 m 0
 371.828125 443 294.828125 443 288.828125 442 c 0
 277.828125 440 274.828125 438 250.828125 417 c 0
 227.828125 398 225.828125 396 221.828125 387 c 0
 216.828125 377 217.828125 387 217.828125 269 c 0
 217.828125 152 216.828125 162 221.828125 152 c 0
 225.828125 143 227.828125 141 250.828125 122 c 0
 272.828125 102 276.828125 100 285.828125 97 c 2
 290.828125 96 l 1
 333.828125 96 l 2
 381.828125 96 379.828125 96 389.828125 101 c 0
 395.828125 103 394.828125 102 429.828125 133 c 2
 472.828125 169 l 2
 488.828125 182 491.828125 186 495.828125 198 c 2
 497.828125 203 l 1
 497.828125 269 l 1
 497.828125 335 l 1
 495.828125 339 l 2
 493.828125 346 490.828125 352 486.828125 357 c 0
 482.828125 361 400.828125 432 394.828125 435 c 0
 390.828125 438 382.828125 441 377.828125 442 c 0
EndSplineSet
Validated: 524321
EndChar

StartChar: e
Encoding: 101 101 88
Width: 715
GlyphClass: 2
Flags: W
HStem: 1 95<284.5 584.633> 201 96<216.5 495.687> 443 95<255.422 429.5>
VStem: 121.5 96<131.78 201 297 376> 497.5 96<300.206 406.156>
LayerCount: 2
Fore
SplineSet
281.5 538 m 1
 356.5 538 l 2
 430.5 539 432.5 538 447.5 535 c 0
 468.5 530 489.5 520 506.5 507 c 0
 521.5 494 549.5 470 553.5 465 c 0
 572.5 445 585.5 422 590.5 395 c 0
 593.5 380 593.5 378 593.5 307 c 0
 593.5 232 593.5 239 588.5 228 c 0
 585.5 222 581.5 216 575.5 212 c 0
 571.5 209 563.5 204 557.5 203 c 0
 554.5 202 545.5 201 385.5 201 c 2
 216.5 201 l 1
 217.5 182 l 2
 217.5 161 217.5 160 221.5 152 c 0
 225.5 143 227.5 141 250.5 122 c 0
 272.5 102 275.5 100 284.5 97 c 2
 289.5 96 l 1
 421.5 96 l 2
 566.5 95 554.5 96 563.5 92 c 0
 581.5 85 592.5 67 592.5 48 c 0
 592.5 25 576.5 5 553.5 1 c 0
 546.5 0 293.5 0 282.5 1 c 0
 256.5 4 230.5 14 210.5 30 c 0
 201.5 37 165.5 68 160.5 74 c 0
 138.5 96 125.5 124 122.5 157 c 0
 121.5 163 121.5 180 121.5 270 c 0
 121.5 371 121.5 376 122.5 384 c 0
 126.5 415 139.5 443 160.5 465 c 0
 165.5 470 193.5 494 208.5 507 c 0
 228.5 523 254.5 534 281.5 538 c 1
429.5 441 m 2
 425.5 442 l 1
 359.5 443 l 2
 290.5 443 288.5 443 282.5 440 c 0
 275.5 438 271.5 435 251.5 418 c 0
 240.5 408 229.5 399 227.5 397 c 0
 223.5 392 221.5 388 219.5 381 c 2
 217.5 376 l 1
 217.5 336 l 1
 216.5 297 l 1
 357.5 297 l 1
 497.5 297 l 1
 497.5 336 l 2
 497.5 380 497.5 378 492.5 388 c 0
 491.5 391 488.5 395 486.5 397 c 0
 484.5 399 474.5 408 463.5 418 c 0
 442.5 436 438.5 438 429.5 441 c 2
EndSplineSet
Validated: 524321
EndChar

StartChar: f
Encoding: 102 102 89
Width: 715
GlyphClass: 2
Flags: W
HStem: 443 96<152.879 238.375 334.375 467.508> 644 96<356.095 562.006>
VStem: 238.375 96<7.85789 443 539 622.15>
LayerCount: 2
Fore
SplineSet
394.375 739 m 0
 396.375 739 426.375 740 461.375 740 c 0
 531.375 740 530.375 740 539.375 737 c 0
 545.375 734 549.375 732 554.375 727 c 0
 563.375 719 567.375 710 569.375 699 c 0
 570.375 694 570.375 692 569.375 687 c 0
 568.375 675 564.375 667 555.375 658 c 0
 549.375 652 545.375 650 539.375 647 c 0
 530.375 644 530.375 644 464.375 644 c 0
 426.375 644 401.375 644 398.375 643 c 0
 371.375 640 347.375 621 338.375 595 c 0
 335.375 585 335.375 583 334.375 560 c 2
 334.375 539 l 1
 383.375 539 l 2
 422.375 539 433.375 538 436.375 538 c 0
 459.375 533 475.375 514 475.375 491 c 0
 475.375 468 459.375 448 436.375 444 c 0
 433.375 443 422.375 443 383.375 443 c 2
 334.375 443 l 1
 334.375 241 l 2
 334.375 49 334.375 39 333.375 36 c 0
 331.375 30 327.375 22 323.375 18 c 0
 319.375 12 314.375 8 307.375 5 c 0
 295.375 -1 283.375 -2 270.375 3 c 0
 263.375 5 259.375 8 253.375 14 c 0
 247.375 21 244.375 25 242.375 31 c 0
 238.375 40 238.375 28 238.375 243 c 2
 238.375 443 l 1
 211.375 443 l 2
 181.375 443 181.375 443 171.375 448 c 0
 159.375 454 150.375 465 146.375 478 c 0
 144.375 485 144.375 496 146.375 503 c 0
 150.375 517 159.375 527 171.375 533 c 0
 181.375 538 181.375 538 211.375 538 c 2
 238.375 539 l 1
 239.375 563 l 2
 239.375 584 239.375 588 240.375 595 c 0
 244.375 619 252.375 641 264.375 660 c 0
 277.375 681 297.375 701 318.375 714 c 0
 340.375 728 368.375 737 394.375 739 c 0
EndSplineSet
Validated: 524321
EndChar

StartChar: g
Encoding: 103 103 90
Width: 715
GlyphClass: 2
Flags: W
HStem: -201 96<203.5 429.5> 41 95<290.5 411.835> 442 96<254.761 412.482>
VStem: 121.5 96<171.675 407.325> 497.5 96<-38 104.036 244 335>
LayerCount: 2
Fore
SplineSet
281.5 538 m 1
 332.5 538 l 2
 374.5 539 378.5 538 386.5 537 c 0
 412.5 534 435.5 525 455.5 510 c 0
 458.5 507 468.5 498 478.5 490 c 2
 497.5 474 l 1
 497.5 486 l 2
 498.5 499 498.5 501 501.5 509 c 0
 504.5 517 513.5 527 521.5 532 c 0
 526.5 535 533.5 537 539.5 538 c 0
 549.5 539 561.5 537 569.5 532 c 0
 574.5 529 584.5 519 586.5 515 c 0
 587.5 513 589.5 510 590.5 507 c 0
 593.5 498 593.5 517 593.5 228 c 0
 593.5 -33 593.5 -38 592.5 -47 c 0
 588.5 -78 575.5 -105 554.5 -127 c 0
 549.5 -133 521.5 -157 506.5 -169 c 0
 485.5 -187 457.5 -198 429.5 -201 c 2
 315.5 -201 l 1
 207.5 -201 l 1
 203.5 -200 l 2
 181.5 -193 168.5 -175 168.5 -153 c 0
 168.5 -132 181.5 -114 203.5 -107 c 2
 207.5 -106 l 1
 316.5 -105 l 1
 425.5 -105 l 1
 429.5 -104 l 2
 438.5 -101 442.5 -98 463.5 -80 c 0
 488.5 -59 491.5 -56 495.5 -44 c 2
 497.5 -38 l 1
 497.5 33 l 2
 497.5 91 497.5 105 496.5 104 c 2
 496.5 104 487.5 97 478.5 89 c 0
 454.5 69 455.5 69 447.5 64 c 0
 429.5 52 407.5 44 384.5 41 c 0
 374.5 40 293.5 40 282.5 41 c 0
 256.5 44 230.5 55 210.5 70 c 0
 201.5 78 165.5 109 160.5 114 c 0
 143.5 132 131.5 154 125.5 178 c 0
 121.5 195 121.5 189 121.5 286 c 2
 121.5 380 l 1
 125.5 412 138.5 442 160.5 465 c 0
 165.5 470 200.5 501 210.5 509 c 0
 230.5 524 256.5 534 281.5 538 c 1
377.5 442 m 0
 371.5 443 294.5 443 288.5 442 c 0
 277.5 440 274.5 438 250.5 417 c 0
 227.5 398 225.5 396 221.5 387 c 0
 216.5 377 217.5 385 217.5 289 c 0
 217.5 194 216.5 202 221.5 192 c 0
 225.5 183 227.5 181 250.5 162 c 0
 272.5 143 276.5 141 285.5 138 c 2
 290.5 136 l 1
 333.5 136 l 2
 382.5 136 379.5 136 390.5 141 c 0
 395.5 144 398.5 146 427.5 171 c 2
 471.5 209 l 2
 488.5 223 491.5 227 495.5 238 c 2
 497.5 244 l 1
 497.5 289 l 1
 497.5 335 l 1
 495.5 339 l 2
 493.5 346 490.5 352 486.5 357 c 0
 482.5 361 400.5 432 394.5 435 c 0
 390.5 438 382.5 441 377.5 442 c 0
EndSplineSet
Validated: 524321
EndChar

StartChar: h
Encoding: 104 104 91
Width: 715
GlyphClass: 2
Flags: W
HStem: 442 96<337.635 448.375>
VStem: 122.375 95<7.50558 344 458 731.913>
LayerCount: 2
Fore
SplineSet
161.375 739 m 0
 166.375 740 177.375 740 182.375 738 c 0
 184.375 738 188.375 736 191.375 735 c 0
 200.375 730 207.375 723 212.375 713 c 0
 218.375 702 217.375 716 217.375 579 c 2
 218.375 458 l 1
 265.375 488 l 2
 299.375 510 315.375 520 322.375 524 c 0
 337.375 531 353.375 536 370.375 538 c 0
 382.375 539 452.375 539 460.375 537 c 0
 492.375 532 519.375 518 541.375 495 c 0
 564.375 472 577.375 443 581.375 411 c 0
 581.375 404 593.375 65 593.375 50 c 0
 593.375 43 593.375 40 592.375 36 c 0
 586.375 14 566.375 -1 543.375 0 c 0
 522.375 2 505.375 16 499.375 37 c 0
 498.375 41 498.375 55 492.375 221 c 0
 487.375 361 485.375 401 485.375 405 c 0
 481.375 422 470.375 435 454.375 440 c 2
 448.375 442 l 1
 413.375 442 l 2
 373.375 442 374.375 443 365.375 438 c 0
 363.375 437 329.375 416 289.375 390 c 2
 218.375 344 l 1
 217.375 192 l 2
 217.375 20 218.375 38 212.375 27 c 0
 207.375 17 200.375 10 191.375 5 c 0
 178.375 -1 166.375 -2 153.375 3 c 0
 147.375 5 142.375 8 136.375 14 c 0
 128.375 22 125.375 29 122.375 40 c 0
 121.375 46 121.375 693 122.375 700 c 0
 125.375 711 128.375 717 136.375 725 c 0
 144.375 733 150.375 737 161.375 739 c 0
EndSplineSet
Validated: 524321
EndChar

StartChar: i
Encoding: 105 105 92
Width: 715
GlyphClass: 2
Flags: W
HStem: 0 96<209.189 310.189 405.189 506.189> 443 95<208.189 307.895> 644 136<270.87 397.166>
VStem: 263.189 142<651.506 772.196> 310.189 95<96 443>
LayerCount: 2
Fore
SplineSet
209.189453125 538 m 2xe8
 289.189453125 538 l 2
 376.189453125 538 368.189453125 539 379.189453125 533 c 0
 385.189453125 530 390.189453125 526 395.189453125 521 c 0
 398.189453125 517 402.189453125 508 404.189453125 503 c 0
 405.189453125 499 405.189453125 489 405.189453125 297 c 2
 405.189453125 96 l 1
 456.189453125 96 l 1
 507.189453125 95 l 1
 511.189453125 94 l 2
 525.189453125 90 536.189453125 81 541.189453125 69 c 0
 545.189453125 61 546.189453125 58 546.189453125 48 c 0
 546.189453125 38 545.189453125 34 541.189453125 27 c 0
 536.189453125 15 524.189453125 6 511.189453125 2 c 2
 506.189453125 0 l 1
 357.189453125 0 l 1
 209.189453125 0 l 1
 204.189453125 2 l 2
 183.189453125 8 169.189453125 26 169.189453125 48 c 0
 169.189453125 69 182.189453125 88 204.189453125 94 c 2
 208.189453125 95 l 1
 259.189453125 96 l 1
 310.189453125 96 l 1
 310.189453125 269 l 1
 310.189453125 443 l 1
 259.189453125 443 l 1
 208.189453125 443 l 1
 204.189453125 445 l 1
 178.189453125 452 164.189453125 477 170.189453125 502 c 0
 174.189453125 520 190.189453125 535 209.189453125 538 c 2xe8
302.189453125 779 m 0
 305.189453125 780 312.189453125 780 336.189453125 780 c 0
 370.189453125 780 369.189453125 780 379.189453125 775 c 0
 388.189453125 770 395.189453125 763 400.189453125 753 c 0
 405.189453125 743 405.189453125 744 405.189453125 712 c 0
 405.189453125 680 405.189453125 681 400.189453125 671 c 0
 395.189453125 661 388.189453125 654 379.189453125 649 c 0
 369.189453125 644 369.189453125 644 337.189453125 644 c 0
 306.189453125 644 303.189453125 644 294.189453125 647 c 0
 287.189453125 649 283.189453125 652 277.189453125 658 c 0
 271.189453125 665 268.189453125 669 266.189453125 675 c 0
 263.189453125 683 263.189453125 686 263.189453125 712 c 0xf0
 263.189453125 738 263.189453125 741 266.189453125 749 c 0
 268.189453125 755 271.189453125 760 277.189453125 766 c 0
 285.189453125 773 291.189453125 777 302.189453125 779 c 0
EndSplineSet
Validated: 524321
EndChar

StartChar: j
Encoding: 106 106 93
Width: 715
GlyphClass: 2
Flags: W
HStem: -201 96<298.319 413.319> 443 95<270.563 451.162> 644 136<412 538.296>
VStem: 404.319 142<651.506 772.196> 450.319 96<-72 443>
LayerCount: 2
Fore
SplineSet
304.319335938 538 m 2xe8
 406.319335938 538 l 2
 520.319335938 538 509.319335938 539 520.319335938 533 c 0
 532.319335938 527 541.319335938 517 545.319335938 503 c 0
 546.319335938 499 546.319335938 487 546.319335938 216 c 0
 546.319335938 -64 546.319335938 -67 545.319335938 -77 c 0
 541.319335938 -108 528.319335938 -135 506.319335938 -158 c 0
 485.319335938 -180 459.319335938 -193 428.319335938 -199 c 2
 420.319335938 -201 l 1
 362.319335938 -201 l 2
 301.319335938 -201 297.319335938 -201 283.319335938 -198 c 0
 267.319335938 -195 247.319335938 -187 233.319335938 -178 c 0
 200.319335938 -156 178.319335938 -123 170.319335938 -86 c 0
 167.319335938 -72 168.319335938 -62 174.319335938 -51 c 0
 176.319335938 -46 177.319335938 -45 183.319335938 -39 c 0
 188.319335938 -34 190.319335938 -33 194.319335938 -31 c 0
 202.319335938 -27 208.319335938 -25 216.319335938 -25 c 0
 226.319335938 -25 235.319335938 -28 244.319335938 -34 c 0
 255.319335938 -41 260.319335938 -50 264.319335938 -68 c 0
 268.319335938 -85 281.319335938 -98 298.319335938 -104 c 2
 303.319335938 -105 l 1
 358.319335938 -105 l 1
 413.319335938 -105 l 1
 419.319335938 -103 l 2
 425.319335938 -101 428.319335938 -99 434.319335938 -95 c 0
 440.319335938 -90 446.319335938 -82 449.319335938 -72 c 2
 450.319335938 -68 l 1
 450.319335938 187 l 1
 451.319335938 443 l 1
 376.319335938 443 l 2
 293.319335938 443 300.319335938 443 289.319335938 448 c 0
 277.319335938 454 268.319335938 465 264.319335938 478 c 0
 262.319335938 485 262.319335938 496 264.319335938 503 c 0
 267.319335938 513 273.319335938 522 280.319335938 528 c 0
 286.319335938 533 296.319335938 537 304.319335938 538 c 2xe8
443.319335938 779 m 0
 446.319335938 780 453.319335938 780 477.319335938 780 c 0
 511.319335938 780 510.319335938 780 520.319335938 775 c 0
 529.319335938 770 536.319335938 763 541.319335938 753 c 0
 546.319335938 743 546.319335938 744 546.319335938 712 c 0
 546.319335938 680 546.319335938 681 541.319335938 671 c 0
 536.319335938 661 529.319335938 654 520.319335938 649 c 0
 510.319335938 644 510.319335938 644 478.319335938 644 c 0
 447.319335938 644 444.319335938 644 435.319335938 647 c 0
 428.319335938 649 424.319335938 652 418.319335938 658 c 0
 412.319335938 665 409.319335938 669 407.319335938 675 c 0
 404.319335938 683 404.319335938 686 404.319335938 712 c 0xf0
 404.319335938 738 404.319335938 741 407.319335938 749 c 0
 409.319335938 755 412.319335938 760 418.319335938 766 c 0
 426.319335938 773 432.319335938 777 443.319335938 779 c 0
EndSplineSet
Validated: 524321
EndChar

StartChar: k
Encoding: 107 107 94
Width: 715
GlyphClass: 2
Flags: W
VStem: 122.375 95<7.50558 187 313 731.872>
LayerCount: 2
Fore
SplineSet
161.375 739 m 0
 166.375 740 177.375 740 182.375 738 c 0
 187.375 737 195.375 732 200.375 729 c 0
 207.375 723 213.375 714 216.375 704 c 0
 217.375 700 217.375 691 217.375 507 c 2
 218.375 313 l 1
 342.375 420 l 2
 411.375 479 468.375 528 470.375 529 c 0
 474.375 532 481.375 535 487.375 537 c 0
 493.375 539 504.375 539 510.375 537 c 0
 516.375 536 524.375 531 528.375 528 c 0
 550.375 511 552.375 479 534.375 459 c 0
 533.375 457 488.375 418 434.375 373 c 0
 381.375 327 337.375 290 337.375 289 c 2
 455.375 188 l 2
 520.375 132 575.375 85 578.375 83 c 0
 588.375 74 593.375 62 593.375 48 c 0
 593.375 43 593.375 40 592.375 36 c 0
 583.375 3 544.375 -11 517.375 10 c 0
 513.375 13 269.375 221 265.375 225 c 2
 263.375 227 l 1
 241.375 207 l 1
 218.375 187 l 1
 217.375 113 l 2
 217.375 30 217.375 37 212.375 27 c 0
 207.375 17 200.375 10 191.375 5 c 0
 178.375 -1 166.375 -2 153.375 3 c 0
 147.375 5 142.375 8 136.375 14 c 0
 128.375 22 125.375 29 122.375 40 c 0
 121.375 46 121.375 693 122.375 700 c 0
 125.375 711 128.375 717 136.375 725 c 0
 144.375 733 150.375 737 161.375 739 c 0
EndSplineSet
Validated: 524321
EndChar

StartChar: l
Encoding: 108 108 95
Width: 715
GlyphClass: 2
Flags: W
HStem: 0 96<358 464> 644 96<161 263>
VStem: 263 95<96 644>
LayerCount: 2
Fore
SplineSet
161 740 m 0
 358 740 l 1
 358 147 l 1
 358 96 l 5
 409 96 l 1
 460 95 l 1
 464 94 l 2
 478 90 489 81 494 69 c 0
 498 61 499 58 499 48 c 0
 499 38 498 34 494 27 c 0
 489 15 464 2 464 2 c 2
 554 0 l 1
 358 0 l 1
 305.559570312 0 263 43.0078125 263 96 c 1
 263 370 l 1
 263 644 l 1
 212 644 l 1
 161 644 l 1
 161 740 l 0
EndSplineSet
Validated: 524289
EndChar

StartChar: m
Encoding: 109 109 96
Width: 715
GlyphClass: 2
Flags: W
HStem: 0 21G<551.75 559.75> 0 21G<551.75 559.75> 443 95<444.622 491.201>
VStem: 115.25 95<8.03876 381 506.001 530.468> 311.25 93<7.02845 388> 499.25 88<186.386 429.831> 506.25 95<8.03003 231.045>
LayerCount: 2
Fore
SplineSet
153.25 538 m 0xbc
 164.25 540 176.25 538 186.25 532 c 0
 194.25 527 203.25 517 206.25 509 c 0
 206.25 508 207.25 506 207.25 506 c 1
 207.25 506 210.25 507 212.25 509 c 0
 230.25 525 251.25 535 275.25 538 c 0
 306.25 542 338.25 532 363.25 512 c 0
 367.25 509 376.25 500 379.25 496 c 2
 381.25 493 l 1
 392.25 502 l 2
 407.25 515 407.25 516 414.25 520 c 0
 436.25 534 464.25 541 489.25 538 c 0
 513.25 534 535.25 524 552.25 507 c 0
 572.25 488 584.25 464 587.25 436 c 0xbc
 588.25 428 601.25 51 601.25 45 c 0
 601.25 38 599.25 33 596.25 27 c 0
 591.25 17 584.25 10 574.25 5 c 0
 568.25 2 563.25 1 556.25 0 c 0
 547.25 0 537.25 2 529.25 7 c 0
 525.25 9 515.25 19 512.25 24 c 0
 510.25 28 507.25 35 506.25 40 c 0xba
 506.25 43 502.25 130 499.25 236 c 0
 494.25 385 492.25 427 491.25 430 c 0
 490.25 434 486.25 438 482.25 441 c 0
 478.25 443 478.25 443 475.25 443 c 0
 473.25 442 470.25 442 469.25 441 c 0
 467.25 440 454.25 430 436.25 414 c 2
 406.25 388 l 1
 405.25 214 l 2
 405.25 48 405.25 39 404.25 36 c 0
 402.25 30 398.25 22 395.25 18 c 0
 390.25 12 385.25 8 379.25 5 c 0
 366.25 -1 354.25 -2 341.25 3 c 0
 335.25 5 331.25 8 325.25 13 c 0
 318.25 20 314.25 26 311.25 37 c 0
 310.25 40 310.25 55 310.25 234 c 2
 309.25 427 l 1
 308.25 431 l 2
 306.25 435 302.25 439 298.25 441 c 0
 295.25 442 293.25 442 289.25 442 c 0
 284.25 442 283.25 442 280.25 440 c 0
 277.25 439 263.25 427 243.25 409 c 2
 210.25 381 l 1
 210.25 210 l 2
 209.25 48 209.25 39 208.25 36 c 0
 206.25 30 202.25 22 199.25 18 c 0
 194.25 12 189.25 8 183.25 5 c 0
 171.25 -1 158.25 -2 146.25 3 c 0
 139.25 5 135.25 8 128.25 14 c 0
 120.25 22 117.25 29 115.25 40 c 0
 113.25 46 113.25 492 115.25 499 c 0
 117.25 510 120.25 516 128.25 524 c 0
 136.25 532 143.25 536 153.25 538 c 0xbc
EndSplineSet
Validated: 524321
EndChar

StartChar: n
Encoding: 110 110 97
Width: 715
GlyphClass: 2
Flags: W
HStem: 442 96<337.635 448.375>
VStem: 122.375 95<7.50558 344 458 530.654>
LayerCount: 2
Fore
SplineSet
161.375 538 m 0
 172.375 540 184.375 538 194.375 532 c 0
 202.375 527 211.375 516 214.375 509 c 0
 217.375 500 217.375 500 217.375 478 c 2
 218.375 458 l 1
 265.375 488 l 2
 299.375 510 315.375 520 322.375 524 c 0
 337.375 531 353.375 536 370.375 538 c 0
 382.375 539 452.375 539 460.375 537 c 0
 492.375 532 519.375 518 541.375 495 c 0
 564.375 472 577.375 443 581.375 411 c 0
 581.375 404 593.375 65 593.375 50 c 0
 593.375 43 593.375 40 592.375 36 c 0
 586.375 14 566.375 -1 543.375 0 c 0
 525.375 1 510.375 12 502.375 28 c 0
 498.375 38 499.375 23 492.375 221 c 0
 487.375 361 485.375 401 485.375 405 c 0
 481.375 422 470.375 435 454.375 440 c 2
 448.375 442 l 1
 413.375 442 l 2
 373.375 442 374.375 443 365.375 438 c 0
 363.375 437 329.375 416 289.375 390 c 2
 218.375 344 l 1
 217.375 192 l 2
 217.375 20 218.375 38 212.375 27 c 0
 207.375 17 200.375 10 191.375 5 c 0
 178.375 -1 166.375 -2 153.375 3 c 0
 147.375 5 142.375 8 136.375 14 c 0
 128.375 22 125.375 29 122.375 40 c 0
 121.375 46 121.375 492 122.375 499 c 0
 125.375 510 128.375 516 136.375 524 c 0
 144.375 532 151.375 536 161.375 538 c 0
EndSplineSet
Validated: 524321
EndChar

StartChar: o
Encoding: 111 111 98
Width: 715
GlyphClass: 2
Flags: W
HStem: 0 96<255.626 459.228> 443 95<255.375 458.848>
VStem: 122.5 95<131.78 376> 497.5 95<163 406.547>
LayerCount: 2
Fore
SplineSet
281.5 538 m 1
 359.5 538 l 2
 425.5 538 431.5 538 437.5 537 c 0
 446.5 536 458.5 533 465.5 530 c 0
 478.5 525 495.5 515 505.5 508 c 0
 519.5 495 546.5 473 550.5 468 c 0
 574.5 445 588.5 416 592.5 382 c 0
 593.5 376 593.5 358 593.5 269 c 0
 593.5 167 593.5 163 592.5 154 c 0
 588.5 122 573.5 93 550.5 70 c 0
 546.5 66 519.5 42 505.5 31 c 0
 490.5 19 467.5 8 446.5 3 c 0
 432.5 0 430.5 0 357.5 0 c 0
 284.5 0 283.5 0 267.5 3 c 0
 248.5 7 226.5 18 210.5 30 c 0
 201.5 37 165.5 68 160.5 74 c 0
 138.5 96 125.5 124 122.5 157 c 0
 121.5 163 121.5 180 121.5 270 c 0
 121.5 371 121.5 376 122.5 384 c 0
 126.5 415 139.5 443 160.5 465 c 0
 165.5 470 202.5 503 211.5 509 c 0
 230.5 524 255.5 534 281.5 538 c 1
428.5 441 m 0
 425.5 442 420.5 442 358.5 443 c 0
 289.5 443 289.5 443 282.5 440 c 0
 277.5 439 272.5 436 268.5 433 c 2
 247.5 414 l 2
 225.5 396 223.5 393 219.5 381 c 2
 217.5 376 l 1
 217.5 270 l 2
 217.5 151 216.5 162 221.5 152 c 0
 225.5 143 227.5 141 250.5 122 c 0
 268.5 106 272.5 103 276.5 101 c 0
 287.5 96 281.5 96 357.5 96 c 0
 431.5 96 426.5 96 435.5 100 c 0
 441.5 103 444.5 104 465.5 123 c 0
 489.5 143 491.5 145 495.5 157 c 2
 497.5 163 l 1
 497.5 269 l 2
 497.5 368 497.5 375 496.5 378 c 0
 494.5 384 491.5 391 487.5 396 c 0
 485.5 399 448.5 431 442.5 435 c 0
 439.5 437 433.5 440 428.5 441 c 0
EndSplineSet
Validated: 524321
EndChar

StartChar: p
Encoding: 112 112 99
Width: 715
GlyphClass: 2
Flags: W
HStem: -201 21G<164.5 174> -19 95<308.019 410.753> 462 96<307.428 411.614>
VStem: 121.5 95<-193.506 53 182.237 339 485 550.766> 497.5 96<185 373.81>
LayerCount: 2
Fore
SplineSet
157.5 557 m 0
 164.5 559 173.5 559 180.5 557 c 0
 196.5 553 210.5 540 215.5 523 c 0
 216.5 519 216.5 517 216.5 502 c 2
 217.5 485 l 1
 236.5 505 l 2
 247.5 515 258.5 526 260.5 528 c 0
 283.5 545 308.5 555 336.5 558 c 0
 346.5 559 381.5 558 389.5 557 c 0
 410.5 554 430.5 546 446.5 536 c 0
 454.5 530 457.5 528 476.5 511 c 0
 532.5 463 549.5 448 553.5 444 c 0
 574.5 423 587.5 396 592.5 366 c 0
 593.5 359 593.5 352 593.5 269 c 2
 593.5 179 l 1
 591.5 171 l 2
 586.5 141 573.5 116 554.5 95 c 0
 549.5 90 476.5 26 458.5 12 c 0
 438.5 -5 411.5 -16 384.5 -19 c 0
 374.5 -20 344.5 -20 333.5 -19 c 0
 306.5 -16 282.5 -6 260.5 11 c 2
 236.5 34 l 1
 216.5 53 l 1
 216.5 -54 l 2
 216.5 -175 217.5 -164 211.5 -174 c 0
 206.5 -184 199.5 -191 190.5 -196 c 0
 181.5 -200 178.5 -201 169.5 -201 c 0
 159.5 -201 155.5 -200 147.5 -196 c 0
 138.5 -191 131.5 -184 126.5 -174 c 0
 124.5 -171 123.5 -167 122.5 -165 c 0
 121.5 -161 121.5 -147 121.5 179 c 2
 121.5 518 l 1
 122.5 523 l 2
 127.5 540 141.5 553 157.5 557 c 0
381.5 461 m 0
 376.5 463 346.5 463 340.5 462 c 0
 333.5 460 327.5 458 321.5 454 c 0
 317.5 451 231.5 365 227.5 360 c 0
 223.5 355 221.5 352 219.5 345 c 2
 217.5 339 l 1
 217.5 272 l 2
 216.5 227 217.5 203 217.5 200 c 0
 218.5 195 221.5 187 224.5 182 c 0
 227.5 178 311.5 93 319.5 87 c 0
 324.5 82 330.5 79 336.5 78 c 0
 341.5 76 342.5 76 359.5 76 c 0
 375.5 76 377.5 76 381.5 78 c 0
 391.5 80 392.5 81 439.5 122 c 0
 463.5 142 484.5 161 486.5 163 c 0
 490.5 167 493.5 174 495.5 180 c 2
 497.5 185 l 1
 497.5 269 l 2
 497.5 349 497.5 354 496.5 357 c 0
 494.5 362 491.5 370 488.5 374 c 0
 486.5 376 401.5 450 395.5 454 c 0
 391.5 457 386.5 460 381.5 461 c 0
EndSplineSet
Validated: 524321
EndChar

StartChar: q
Encoding: 113 113 100
Width: 715
GlyphClass: 2
Flags: W
HStem: -201 21G<541.328 550.328> 1 95<256.259 411.841> 442 96<255.089 412.81>
VStem: 121.828 96<131.78 406.635> 497.828 96<-192.829 64 203 335 474 530.468>
LayerCount: 2
Fore
SplineSet
281.828125 538 m 1
 332.828125 538 l 2
 374.828125 539 378.828125 538 386.828125 537 c 0
 412.828125 534 435.828125 525 455.828125 510 c 0
 458.828125 507 468.828125 498 478.828125 490 c 2
 497.828125 474 l 1
 497.828125 486 l 2
 498.828125 499 498.828125 501 501.828125 509 c 0
 504.828125 517 513.828125 527 521.828125 532 c 0
 526.828125 535 533.828125 537 539.828125 538 c 0
 549.828125 539 561.828125 537 569.828125 532 c 0
 574.828125 529 584.828125 519 586.828125 515 c 0
 589.828125 510 591.828125 503 592.828125 498 c 0
 593.828125 494 593.828125 412 593.828125 166 c 0
 593.828125 -148 593.828125 -162 592.828125 -165 c 0
 587.828125 -179 578.828125 -190 566.828125 -196 c 0
 558.828125 -200 554.828125 -201 545.828125 -201 c 0
 536.828125 -201 532.828125 -200 524.828125 -196 c 0
 514.828125 -191 507.828125 -184 502.828125 -174 c 0
 497.828125 -164 498.828125 -176 497.828125 -49 c 2
 497.828125 64 l 1
 478.828125 49 l 2
 468.828125 40 458.828125 31 456.828125 30 c 0
 436.828125 14 411.828125 4 384.828125 1 c 0
 374.828125 0 293.828125 0 282.828125 1 c 0
 256.828125 4 230.828125 14 210.828125 30 c 0
 201.828125 37 165.828125 68 160.828125 74 c 0
 138.828125 96 125.828125 124 121.828125 157 c 0
 120.828125 168 120.828125 372 122.828125 382 c 0
 126.828125 414 139.828125 442 160.828125 465 c 0
 165.828125 470 200.828125 501 210.828125 509 c 0
 230.828125 524 256.828125 534 281.828125 538 c 1
377.828125 442 m 0
 371.828125 443 294.828125 443 288.828125 442 c 0
 277.828125 440 274.828125 438 250.828125 417 c 0
 227.828125 398 225.828125 396 221.828125 387 c 0
 216.828125 377 217.828125 387 217.828125 269 c 0
 217.828125 152 216.828125 162 221.828125 152 c 0
 225.828125 143 227.828125 141 250.828125 122 c 0
 272.828125 102 276.828125 100 285.828125 97 c 2
 290.828125 96 l 1
 333.828125 96 l 2
 381.828125 96 379.828125 96 389.828125 101 c 0
 395.828125 103 394.828125 102 429.828125 133 c 2
 472.828125 169 l 2
 488.828125 182 491.828125 186 495.828125 198 c 2
 497.828125 203 l 1
 497.828125 269 l 1
 497.828125 335 l 1
 495.828125 339 l 2
 493.828125 346 490.828125 352 486.828125 357 c 0
 482.828125 361 400.828125 432 394.828125 435 c 0
 390.828125 438 382.828125 441 377.828125 442 c 0
EndSplineSet
Validated: 524321
EndChar

StartChar: r
Encoding: 114 114 101
Width: 715
GlyphClass: 2
Flags: W
HStem: 442 96<375 490.302>
VStem: 122 95<7.50558 308 434.01 514.906> 498 95<329.972 405>
LayerCount: 2
Fore
SplineSet
161 538 m 0
 172 540 184 538 194 532 c 0
 198 529 208 519 211 515 c 0
 212 513 213 510 214 507 c 0
 217 499 217 497 217 464 c 0
 217 448 218 434 218 434 c 1
 273 481 l 2
 303 507 329 529 332 531 c 0
 336 534 340 535 347 537 c 0
 350 538 356 538 407 538 c 0
 470 538 469 538 485 535 c 0
 542 521 585 473 593 414 c 0
 594 402 594 369 593 361 c 0
 589 338 569 322 546 322 c 0
 524 322 506 336 500 357 c 0
 499 361 499 364 498 383 c 2
 498 405 l 1
 496 411 l 2
 494 417 492 421 488 426 c 0
 484 431 478 435 472 438 c 0
 462 443 464 442 417 442 c 2
 375 442 l 1
 296 375 l 1
 217 308 l 1
 217 174 l 2
 217 22 218 38 212 27 c 0
 207 17 200 10 191 5 c 0
 178 -1 166 -2 153 3 c 0
 147 5 142 8 136 14 c 0
 128 22 125 29 122 40 c 0
 121 46 121 492 122 499 c 0
 125 510 128 516 136 524 c 0
 144 532 151 536 161 538 c 0
EndSplineSet
Validated: 33
EndChar

StartChar: s
Encoding: 115 115 102
Width: 715
GlyphClass: 2
Flags: W
HStem: 0 96<209.299 488.152> 44 92<130.024 182.468> 403 91<533.915 575.559> 442 96<229.175 469.984>
LayerCount: 2
Fore
SplineSet
239.984375 538 m 0x90
 248.984375 539 461.984375 539 471.984375 538 c 0x90
 505.984375 534 536.984375 518 560.984375 494 c 0
 572.984375 482 579.984375 471 581.984375 461 c 0
 583.984375 454 583.984375 444 581.984375 438 c 0
 580.984375 435 578.984375 431 577.984375 429 c 0
 568.984375 411 548.984375 400 529.984375 403 c 0x20
 515.984375 405 505.984375 411 495.984375 423 c 0
 488.984375 432 479.984375 438 469.984375 441 c 2
 464.984375 442 l 1
 358.984375 443 l 2
 285.984375 443 250.984375 443 248.984375 442 c 0
 240.984375 441 232.984375 434 228.984375 427 c 0
 227.984375 424 226.984375 423 226.984375 418 c 0
 226.984375 414 227.984375 412 228.984375 410 c 0
 230.984375 405 234.984375 399 238.984375 397 c 0
 239.984375 396 279.984375 378 328.984375 356 c 0
 523.984375 271 515.984375 274 526.984375 267 c 0
 550.984375 251 569.984375 228 580.984375 204 c 0
 593.984375 174 596.984375 142 588.984375 112 c 0
 575.984375 57 532.984375 15 477.984375 3 c 0
 461.984375 0 463.984375 0 352.984375 0 c 0x90
 251.984375 0 250.984375 0 242.984375 2 c 0
 227.984375 4 216.984375 7 198.984375 15 c 0
 178.984375 23 164.984375 30 147.984375 44 c 0
 133.984375 55 129.984375 60 125.984375 68 c 0
 119.984375 81 119.984375 97 126.984375 109 c 0
 134.984375 127 154.984375 138 174.984375 136 c 0x40
 184.984375 134 191.984375 131 203.984375 122 c 0
 217.984375 111 220.984375 109 234.984375 103 c 0
 244.984375 99 251.984375 97 258.984375 96 c 2
 359.984375 96 l 1
 455.984375 96 l 1
 460.984375 97 l 2
 474.984375 102 485.984375 111 491.984375 124 c 0
 502.984375 145 496.984375 170 477.984375 185 c 0
 475.984375 186 472.984375 188 470.984375 189 c 0
 467.984375 190 411.984375 215 276.984375 274 c 0
 235.984375 292 200.984375 308 197.984375 310 c 0
 186.984375 315 174.984375 324 165.984375 334 c 0
 146.984375 353 135.984375 377 131.984375 404 c 0
 127.984375 436 137.984375 468 158.984375 493 c 0
 179.984375 518 207.984375 533 239.984375 538 c 0x90
EndSplineSet
Validated: 524321
EndChar

StartChar: t
Encoding: 116 116 103
Width: 715
GlyphClass: 2
Flags: W
HStem: 0 96<348.734 490.797> 443 95<129.37 215.734 310.734 510.734>
VStem: 215.734 96<133 443 539 672.496> 497.734 95<104.176 159.672>
LayerCount: 2
Fore
SplineSet
253.734375 699 m 0
 258.734375 700 270.734375 699 275.734375 698 c 0
 277.734375 697 281.734375 696 284.734375 694 c 0
 293.734375 689 301.734375 682 305.734375 673 c 0
 310.734375 662 310.734375 667 310.734375 599 c 2
 310.734375 539 l 1
 408.734375 538 l 1
 506.734375 538 l 1
 510.734375 537 l 2
 524.734375 533 535.734375 524 540.734375 512 c 0
 544.734375 504 545.734375 500 545.734375 491 c 0
 545.734375 481 544.734375 477 540.734375 469 c 0
 535.734375 458 524.734375 449 510.734375 444 c 2
 506.734375 443 l 1
 408.734375 443 l 1
 310.734375 443 l 1
 311.734375 288 l 1
 311.734375 133 l 1
 313.734375 128 l 2
 316.734375 119 321.734375 112 327.734375 106 c 0
 333.734375 102 336.734375 100 342.734375 98 c 2
 348.734375 96 l 1
 403.734375 96 l 2
 465.734375 96 461.734375 96 472.734375 101 c 0
 484.734375 107 493.734375 119 497.734375 133 c 0
 500.734375 146 503.734375 153 509.734375 160 c 0
 519.734375 171 535.734375 178 550.734375 176 c 0
 577.734375 172 596.734375 148 592.734375 122 c 0
 587.734375 87 568.734375 54 540.734375 32 c 0
 523.734375 18 499.734375 7 478.734375 3 c 0
 463.734375 0 461.734375 0 399.734375 0 c 2
 341.734375 0 l 1
 333.734375 2 l 2
 302.734375 8 276.734375 21 255.734375 43 c 0
 233.734375 66 220.734375 93 216.734375 125 c 0
 215.734375 134 215.734375 138 215.734375 288 c 2
 215.734375 443 l 1
 187.734375 443 l 2
 161.734375 443 160.734375 443 156.734375 444 c 0
 134.734375 451 121.734375 469 121.734375 491 c 0
 121.734375 512 134.734375 530 156.734375 537 c 0
 160.734375 538 161.734375 538 187.734375 538 c 2
 215.734375 539 l 1
 215.734375 599 l 2
 215.734375 667 215.734375 662 220.734375 673 c 0
 226.734375 686 238.734375 695 253.734375 699 c 0
EndSplineSet
Validated: 524321
EndChar

StartChar: u
Encoding: 117 117 104
Width: 715
GlyphClass: 2
Flags: W
HStem: 1 95<266.5 377.147>
VStem: 497.5 96<8.30133 81 195 530.572>
LayerCount: 2
Fore
SplineSet
161.5 538 m 0
 165.5 539 176.5 538 181.5 537 c 0
 198.5 532 210.5 519 215.5 502 c 0
 216.5 498 216.5 483 222.5 318 c 0
 227.5 177 229.5 137 229.5 133 c 0
 232.5 117 244.5 104 260.5 98 c 2
 266.5 96 l 1
 301.5 96 l 2
 340.5 96 340.5 96 348.5 100 c 0
 351.5 101 385.5 123 425.5 148 c 2
 497.5 195 l 1
 497.5 345 l 2
 497.5 507 497.5 498 500.5 507 c 0
 501.5 510 503.5 513 504.5 515 c 0
 506.5 519 516.5 529 521.5 532 c 0
 526.5 535 533.5 537 539.5 538 c 0
 549.5 539 561.5 537 569.5 532 c 0
 574.5 529 584.5 519 586.5 515 c 0
 589.5 510 591.5 503 592.5 498 c 0
 593.5 494 593.5 437 593.5 266 c 0
 593.5 50 593.5 39 592.5 36 c 0
 590.5 30 585.5 22 582.5 18 c 0
 576.5 10 566.5 4 557.5 2 c 0
 545.5 -1 531.5 1 521.5 7 c 0
 513.5 11 504.5 22 501.5 30 c 0
 498.5 38 498.5 39 497.5 61 c 2
 497.5 81 l 1
 449.5 50 l 2
 396.5 17 389.5 13 374.5 8 c 0
 364.5 4 354.5 2 344.5 1 c 0
 332.5 0 262.5 0 254.5 1 c 0
 222.5 7 195.5 21 173.5 43 c 0
 150.5 67 137.5 95 133.5 128 c 0
 133.5 135 121.5 474 121.5 488 c 0
 121.5 498 122.5 503 125.5 510 c 0
 131.5 525 145.5 535 161.5 538 c 0
EndSplineSet
Validated: 524321
EndChar

StartChar: v
Encoding: 118 118 105
Width: 715
GlyphClass: 2
Flags: W
VStem: 121.5 95<420 514.906> 497.5 96<420 530.217>
LayerCount: 2
Fore
SplineSet
160.5 538 m 0
 171.5 540 183.5 538 193.5 532 c 0
 197.5 529 207.5 519 210.5 515 c 0
 211.5 513 212.5 510 213.5 507 c 0
 216.5 499 216.5 497 216.5 457 c 2
 216.5 420 l 1
 286.5 260 l 1
 357.5 100 l 1
 427.5 260 l 1
 497.5 420 l 1
 497.5 457 l 2
 497.5 497 497.5 499 500.5 507 c 0
 503.5 514 505.5 518 512.5 524 c 0
 518.5 530 522.5 533 529.5 536 c 0
 539.5 539 551.5 539 561.5 536 c 0
 568.5 533 572.5 530 578.5 524 c 0
 585.5 518 587.5 514 590.5 507 c 0
 593.5 499 593.5 498 593.5 450 c 0
 593.5 401 593.5 401 589.5 391 c 0
 581.5 372 429.5 25 427.5 22 c 0
 424.5 17 415.5 9 411.5 7 c 0
 406.5 4 401.5 2 395.5 1 c 0
 388.5 0 325.5 0 319.5 1 c 0
 313.5 2 307.5 4 303.5 7 c 0
 298.5 9 290.5 17 287.5 22 c 0
 285.5 25 132.5 372 125.5 391 c 0
 121.5 401 121.5 401 121.5 450 c 0
 121.5 498 121.5 499 124.5 507 c 0
 126.5 514 129.5 518 135.5 524 c 0
 143.5 532 150.5 536 160.5 538 c 0
EndSplineSet
Validated: 524321
EndChar

StartChar: w
Encoding: 119 119 106
Width: 715
GlyphClass: 2
Flags: W
HStem: 0 21G<223.023 252.523 467.523 492.023> 0 21G<223.023 252.523 467.523 492.023>
VStem: 122.023 90<199.15 502.903> 310.023 95<222 369.659> 498.023 95<210.2 496.793> 508.023 95<357.144 530.181>
LayerCount: 2
Fore
SplineSet
151.0234375 538 m 0xb8
 168.0234375 541 186.0234375 534 196.0234375 521 c 0
 200.0234375 517 204.0234375 508 206.0234375 503 c 0
 206.0234375 501 207.0234375 495 207.0234375 490 c 0
 208.0234375 485 210.0234375 422 212.0234375 349 c 2
 217.0234375 217 l 1
 232.0234375 166 l 2
 240.0234375 137 247.0234375 115 247.0234375 115 c 1
 278.0234375 169 l 1
 310.0234375 222 l 1
 310.0234375 278 l 2
 310.0234375 339 310.0234375 338 313.0234375 347 c 0
 317.0234375 358 326.0234375 367 336.0234375 372 c 0
 344.0234375 376 349.0234375 377 357.0234375 377 c 0
 366.0234375 377 371.0234375 376 379.0234375 372 c 0
 389.0234375 367 398.0234375 358 402.0234375 347 c 0
 405.0234375 338 405.0234375 339 405.0234375 278 c 2
 405.0234375 222 l 1
 436.0234375 169 l 1
 468.0234375 115 l 1
 468.0234375 115 475.0234375 137 483.0234375 166 c 2
 498.0234375 217 l 1xb8
 503.0234375 349 l 2
 505.0234375 422 507.0234375 485 508.0234375 490 c 0
 508.0234375 501 509.0234375 505 513.0234375 512 c 0
 518.0234375 522 525.0234375 529 535.0234375 534 c 0
 554.0234375 543 575.0234375 539 590.0234375 523 c 0
 597.0234375 516 602.0234375 507 603.0234375 497 c 0xb4
 603.0234375 493 603.0234375 463 599.0234375 352 c 0
 596.0234375 275 594.0234375 209 593.0234375 206 c 0
 593.0234375 200 591.0234375 192 568.0234375 116 c 0
 550.0234375 52 543.0234375 30 541.0234375 27 c 0
 536.0234375 15 525.0234375 6 511.0234375 2 c 0
 507.0234375 0 506.0234375 0 478.0234375 0 c 0
 457.0234375 0 448.0234375 0 445.0234375 1 c 0
 434.0234375 2 424.0234375 7 417.0234375 16 c 0
 413.0234375 20 410.0234375 25 385.0234375 67 c 0
 370.0234375 93 358.0234375 114 357.0234375 114 c 2
 330.0234375 67 l 1
 303.0234375 20 l 1
 297.0234375 14 l 2
 291.0234375 8 287.0234375 5 280.0234375 3 c 0
 271.0234375 0 268.0234375 0 237.0234375 0 c 0
 209.0234375 0 208.0234375 0 204.0234375 2 c 0
 190.0234375 6 179.0234375 15 174.0234375 27 c 0
 172.0234375 30 165.0234375 52 147.0234375 116 c 0
 124.0234375 192 122.0234375 200 122.0234375 206 c 0
 121.0234375 209 119.0234375 275 116.0234375 352 c 0
 111.0234375 503 111.0234375 497 114.0234375 506 c 0
 119.0234375 522 134.0234375 535 151.0234375 538 c 0xb8
EndSplineSet
Validated: 524321
EndChar

StartChar: x
Encoding: 120 120 107
Width: 715
GlyphClass: 2
Flags: W
LayerCount: 2
Fore
SplineSet
171.76953125 538 m 0
 175.76953125 539 186.76953125 538 190.76953125 537 c 0
 198.76953125 535 208.76953125 529 213.76953125 524 c 0
 214.76953125 522 247.76953125 482 286.76953125 436 c 0
 353.76953125 354 356.76953125 351 357.76953125 352 c 0
 358.76953125 352 390.76953125 391 428.76953125 437 c 0
 466.76953125 483 499.76953125 523 500.76953125 524 c 0
 504.76953125 528 509.76953125 532 515.76953125 534 c 0
 545.76953125 548 579.76953125 528 582.76953125 494 c 0
 583.76953125 486 581.76953125 476 576.76953125 468 c 0
 575.76953125 465 552.76953125 437 497.76953125 370 c 0
 454.76953125 318 419.76953125 276 419.76953125 275 c 2
 500.76953125 177 l 2
 544.76953125 124 582.76953125 78 583.76953125 76 c 0
 598.76953125 57 595.76953125 30 577.76953125 13 c 0
 558.76953125 -5 527.76953125 -4 509.76953125 16 c 0
 507.76953125 18 472.76953125 60 431.76953125 110 c 2
 357.76953125 200 l 1
 353.76953125 197 l 1
 277.76953125 104 l 2
 236.76953125 55 202.76953125 14 200.76953125 12 c 0
 177.76953125 -9 138.76953125 -1 125.76953125 28 c 0
 118.76953125 44 120.76953125 63 130.76953125 76 c 0
 131.76953125 78 169.76953125 124 213.76953125 177 c 2
 294.76953125 275 l 2
 294.76953125 276 259.76953125 318 216.76953125 370 c 0
 161.76953125 437 138.76953125 465 137.76953125 468 c 0
 132.76953125 476 130.76953125 486 131.76953125 494 c 0
 131.76953125 499 133.76953125 507 135.76953125 512 c 0
 142.76953125 525 156.76953125 535 171.76953125 538 c 0
EndSplineSet
Validated: 524321
EndChar

StartChar: y
Encoding: 121 121 108
Width: 715
GlyphClass: 2
Flags: W
HStem: -201 96<129.657 267.5>
VStem: 121.5 95<420 514.906> 497.5 96<420 530.217>
LayerCount: 2
Fore
SplineSet
160.5 538 m 0
 171.5 540 183.5 538 193.5 532 c 0
 197.5 529 207.5 519 210.5 515 c 0
 211.5 513 212.5 510 213.5 507 c 0
 216.5 499 216.5 497 216.5 457 c 2
 216.5 420 l 1
 279.5 278 l 1
 341.5 136 l 1
 357.5 136 l 1
 373.5 136 l 1
 435.5 278 l 1
 497.5 420 l 1
 497.5 457 l 2
 497.5 497 497.5 499 500.5 507 c 0
 503.5 514 505.5 518 512.5 524 c 0
 518.5 530 522.5 533 529.5 536 c 0
 539.5 539 551.5 539 561.5 536 c 0
 568.5 533 572.5 530 578.5 524 c 0
 585.5 518 587.5 514 590.5 507 c 0
 593.5 499 593.5 498 593.5 450 c 0
 593.5 401 593.5 401 589.5 391 c 0
 583.5 377 340.5 -175 339.5 -178 c 0
 334.5 -187 324.5 -195 314.5 -198 c 0
 305.5 -201 306.5 -201 230.5 -201 c 2
 160.5 -201 l 1
 156.5 -200 l 2
 134.5 -193 121.5 -175 121.5 -153 c 0
 121.5 -132 134.5 -114 156.5 -107 c 0
 160.5 -106 160.5 -106 213.5 -105 c 2
 267.5 -105 l 1
 298.5 -33 l 1
 330.5 40 l 1
 318.5 40 l 2
 301.5 40 294.5 42 285.5 47 c 0
 281.5 50 271.5 60 268.5 64 c 0
 267.5 67 127.5 386 124.5 393 c 0
 121.5 402 121.5 403 121.5 450 c 0
 121.5 498 121.5 499 124.5 507 c 0
 126.5 514 129.5 518 135.5 524 c 0
 143.5 532 150.5 536 160.5 538 c 0
EndSplineSet
Validated: 524321
EndChar

StartChar: z
Encoding: 122 122 109
Width: 715
GlyphClass: 2
Flags: W
HStem: 1 95<246.875 585.008> 443 95<151.897 468.875>
LayerCount: 2
Fore
SplineSet
184.875 538 m 2
 370.875 538 l 2
 545.875 538 554.875 538 557.875 537 c 0
 563.875 535 571.875 531 575.875 528 c 0
 581.875 523 585.875 518 588.875 512 c 0
 593.875 502 592.875 502 593.875 473 c 0
 593.875 446 593.875 442 590.875 434 c 0
 588.875 428 585.875 424 581.875 419 c 2
 412.875 256 l 1
 246.875 96 l 1
 399.875 96 l 2
 543.875 96 553.875 95 556.875 94 c 0
 565.875 92 572.875 88 577.875 83 c 0
 587.875 73 592.875 61 592.875 48 c 0
 592.875 25 576.875 5 553.875 1 c 0
 547.875 0 167.875 0 160.875 1 c 0
 150.875 3 143.875 6 135.875 14 c 0
 127.875 22 124.875 29 121.875 40 c 0
 120.875 46 120.875 90 121.875 97 c 0
 123.875 106 127.875 113 132.875 119 c 2
 302.875 282 l 1
 468.875 442 l 1
 325.875 443 l 1
 183.875 443 l 1
 178.875 444 l 2
 153.875 452 139.875 477 145.875 502 c 0
 149.875 520 165.875 535 184.875 538 c 2
EndSplineSet
Validated: 524321
EndChar

StartChar: braceleft
Encoding: 123 123 110
Width: 715
GlyphClass: 2
Flags: W
HStem: 0 96<405 585.133> 322 96<129.635 273.812> 644 95<405 585.133>
VStem: 310 95<97.3013 314.18 426.789 644>
LayerCount: 2
Fore
SplineSet
394 739 m 0
 396 739 432 740 474 740 c 0
 537 740 551 740 554 739 c 0
 577 735 593 715 593 692 c 0
 593 669 577 649 554 645 c 0
 551 644 537 644 478 644 c 2
 405 644 l 1
 405 551 l 2
 405 450 405 451 402 436 c 0
 397 414 387 393 374 377 c 2
 369 371 l 2
 369 370 370 368 373 365 c 0
 382 354 391 337 397 323 c 0
 399 316 402 306 404 296 c 2
 405 289 l 1
 405 192 l 1
 405 96 l 1
 478 96 l 2
 537 96 551 96 554 95 c 0
 577 91 593 71 593 48 c 0
 593 25 577 5 554 1 c 0
 551 0 537 0 474 0 c 0
 394 0 393 0 382 3 c 0
 348 12 322 38 313 71 c 0
 310 83 310 77 310 183 c 0
 309 295 310 285 305 295 c 0
 299 307 288 317 274 321 c 0
 270 322 265 322 216 322 c 0
 161 323 161 323 157 324 c 0
 135 331 122 348 122 370 c 0
 122 392 135 410 157 416 c 0
 161 418 161 418 216 418 c 0
 276 419 272 418 282 423 c 0
 295 429 304 440 308 454 c 0
 309 457 309 463 310 557 c 2
 310 656 l 1
 311 662 l 2
 317 686 328 705 346 719 c 0
 359 729 377 737 394 739 c 0
EndSplineSet
Validated: 1
EndChar

StartChar: bar
Encoding: 124 124 111
Width: 715
GlyphClass: 2
Flags: W
HStem: 0.5 21G<344.64 370.86> 0.5 21G<344.64 370.86> 720 20G<345.14 371.36>
VStem: 309.25 96<8.61589 731.233>
LayerCount: 2
Fore
SplineSet
405.25 181 m 2xb0
 405.25 48 l 1
 405.25 21.7802734375 383.969726562 0.5 357.75 0.5 c 0
 331.530273438 0.5 309.25 21.7802734375 309.25 48 c 1
 309.25 183 l 2
 309.25 557 l 2
 309.75 692.5 l 1
 309.75 718.719726562 332.030273438 740 358.25 740 c 0
 384.469726562 740 405.75 718.719726562 405.75 692.5 c 1
 405.25 559 l 2
 405.25 181 l 2xb0
EndSplineSet
Validated: 524289
EndChar

StartChar: braceright
Encoding: 125 125 112
Width: 715
GlyphClass: 2
Flags: W
HStem: 0 96<162.25 310.25> 322 96<413.66 563.837> 644 96<161.25 309.118>
VStem: 310.25 95<96 294.545 453 644>
CounterMasks: 1 e0
LayerCount: 2
Fore
SplineSet
162.25 739 m 0
 163.25 739 199.25 740 240.25 740 c 0
 321.25 740 321.25 740 333.25 737 c 0
 367.25 728 393.25 702 402.25 669 c 0
 405.25 657 405.25 663 405.25 557 c 2
 406.25 458 l 1
 407.25 453 l 2
 411.25 440 420.25 429 433.25 423 c 0
 443.25 418 438.25 418 499.25 418 c 0
 559.25 418 555.25 418 564.25 414 c 0
 582.25 407 593.25 389 593.25 370 c 0
 593.25 351 582.25 333 564.25 326 c 0
 555.25 322 559.25 323 499.25 322 c 0
 439.25 322 443.25 322 433.25 317 c 0
 423.25 313 415.25 305 410.25 295 c 0
 405.25 285 406.25 295 405.25 183 c 2
 405.25 83 l 1
 404.25 77 l 2
 400.25 61 393.25 47 384.25 35 c 0
 369.25 18 351.25 7 328.25 2 c 2
 321.25 0 l 1
 242.25 0 l 1
 162.25 0 l 1
 157.25 2 l 2
 135.25 8 122.25 26 122.25 48 c 0
 122.25 70 135.25 88 157.25 94 c 2
 161.25 95 l 1
 235.25 96 l 1
 310.25 96 l 1
 310.25 189 l 2
 310.25 278 310.25 283 311.25 292 c 0
 312.25 302 315.25 314 318.25 323 c 0
 323.25 337 333.25 354 342.25 365 c 0
 345.25 368 346.25 370 346.25 371 c 2
 346.25 371 343.25 374 341.25 377 c 0
 328.25 393 318.25 414 313.25 436 c 0
 310.25 451 310.25 450 310.25 551 c 2
 310.25 644 l 1
 235.25 644 l 1
 161.25 644 l 1
 157.25 646 l 2
 143.25 650 131.25 660 126.25 672 c 0
 120.25 684 120.25 699 126.25 712 c 0
 132.25 726 146.25 736 162.25 739 c 0
EndSplineSet
Validated: 524321
EndChar

StartChar: asciitilde
Encoding: 126 126 113
Width: 715
GlyphClass: 2
Flags: W
HStem: 403 95<432.827 488.326> 644 95<225.83 300.506>
VStem: 121.5 95<450.494 616.542> 309.5 96<538 605> 497.5 96<506.317 672.496>
LayerCount: 2
Fore
SplineSet
248.5 739 m 0
 273.5 742 299.5 737 323.5 726 c 0
 346.5 714 366.5 697 380.5 675 c 0
 392.5 657 399.5 640 402.5 619 c 0
 404.5 611 404.5 610 404.5 574 c 2
 405.5 538 l 1
 407.5 532 l 2
 411.5 519 420.5 508 432.5 502 c 0
 439.5 499 445.5 498 452.5 498 c 0
 459.5 499 463.5 500 470.5 503 c 0
 480.5 508 488.5 516 492.5 526 c 0
 497.5 535 497.5 531 497.5 599 c 0
 498.5 667 497.5 662 502.5 673 c 0
 507.5 682 514.5 689 524.5 694 c 0
 532.5 698 536.5 699 545.5 699 c 0
 554.5 699 558.5 698 566.5 694 c 0
 576.5 689 583.5 682 588.5 673 c 0
 593.5 662 593.5 667 593.5 596 c 0
 593.5 532 593.5 532 591.5 524 c 0
 589.5 509 585.5 497 579.5 484 c 0
 560.5 446 525.5 417 484.5 407 c 0
 473.5 404 465.5 403 454.5 403 c 0
 389.5 400 329.5 447 313.5 512 c 0
 309.5 527 309.5 529 309.5 568 c 2
 308.5 605 l 1
 306.5 610 l 2
 302.5 624 293.5 634 281.5 640 c 0
 274.5 643 268.5 644 261.5 644 c 0
 244.5 643 229.5 632 221.5 617 c 0
 216.5 607 217.5 612 216.5 543 c 0
 216.5 475 216.5 480 211.5 470 c 0
 207.5 460 199.5 453 190.5 448 c 0
 181.5 444 178.5 443 169.5 443 c 0
 159.5 443 155.5 444 147.5 448 c 0
 138.5 453 131.5 460 126.5 470 c 0
 121.5 480 121.5 475 121.5 543 c 0
 121.5 601 121.5 604 122.5 613 c 0
 126.5 645 139.5 673 161.5 696 c 0
 185.5 720 215.5 735 248.5 739 c 0
EndSplineSet
Validated: 524321
EndChar

StartChar: uni007F
Encoding: 127 127 114
Width: 715
GlyphClass: 2
Flags: W
VStem: 98 519<-24 764>
LayerCount: 2
Fore
SplineSet
98 370 m 1
 98 764 l 1
 357 764 l 1
 617 764 l 1
 617 370 l 1
 617 -24 l 1
 357 -24 l 1
 98 -24 l 1
 98 370 l 1
EndSplineSet
Validated: 1
EndChar

StartChar: LIG
Encoding: 65537 -1 115
Width: 0
Flags: W
LayerCount: 2
Fore
SplineSet
747.5 528 m 1024
EndSplineSet
Validated: 524289
EndChar
